<svg width="106" height="70" viewBox="0 0 106 70" fill="none" xmlns="http://www.w3.org/2000/svg">
    <g clip-path="url(#clip0_2780_2286)">
        <path
            d="M11.353 46.1634C11.353 50.1874 12.2339 53.277 13.3852 55.1461C14.8948 57.5942 17.1464 58.6314 19.4419 58.6314C22.4026 58.6314 25.111 57.8948 30.3306 50.6565C34.5121 44.855 39.4393 36.7115 42.7546 31.6063L48.3689 22.9571C52.269 16.9503 56.7831 10.2728 61.9588 5.7466C66.1842 2.05236 70.7422 0 75.3295 0C83.0309 0 90.3668 4.47487 95.9812 12.8675C102.126 22.0592 105.108 33.6366 105.108 45.5843C105.108 52.6869 103.712 57.9058 101.336 62.0288C99.0406 66.0162 94.5666 70 87.0406 70V58.6314C93.4847 58.6314 95.093 52.6942 95.093 45.8995C95.093 36.2168 92.8414 25.4712 87.8813 17.7932C84.3614 12.3471 79.7997 9.01937 74.7812 9.01937C69.3532 9.01937 64.9853 13.1241 60.0764 20.4429C57.4666 24.3314 54.7874 29.0702 51.7792 34.4173L48.4676 40.2995C41.8152 52.1262 40.1301 54.8199 36.8039 59.2654C30.9739 67.0497 25.9956 70 19.4419 70C11.6673 70 6.7511 66.6246 3.70635 61.5377C1.22083 57.3927 0 51.9539 0 45.7565L11.353 46.1634Z"
            fill="#0081FB" />
        <path
            d="M8.95312 13.6702C14.1581 5.62565 21.6695 0 30.2847 0C35.274 0 40.2341 1.48063 45.4135 5.72094C51.079 10.3571 57.1173 17.9911 64.6506 30.5728L67.3518 35.088C73.8726 45.9801 77.5826 51.5838 79.7538 54.2262C82.5464 57.6199 84.5019 58.6314 87.0422 58.6314C93.4863 58.6314 95.0946 52.6942 95.0946 45.8995L105.11 45.5843C105.11 52.6869 103.713 57.9058 101.338 62.0288C99.0422 66.0162 94.5682 70 87.0422 70C82.3636 70 78.2186 68.9812 73.6351 64.6456C70.1115 61.3178 65.9921 55.4063 62.8231 50.0921L53.3964 34.3037C48.6666 26.3801 44.3279 20.4723 41.8168 17.7969C39.1156 14.9199 35.6432 11.4455 30.102 11.4455C25.6171 11.4455 21.8084 14.601 18.6211 19.4277L8.95312 13.6702Z"
            fill="url(#paint0_linear_2780_2286)" />
        <path
            d="M30.1003 11.4455C25.6154 11.4455 21.8068 14.601 18.6194 19.4277C14.1126 26.2482 11.353 36.4073 11.353 46.1634C11.353 50.1874 12.2339 53.277 13.3852 55.1461L3.70634 61.5377C1.22083 57.3927 0 51.9539 0 45.7565C0 34.4869 3.08497 22.7408 8.95152 13.6702C14.1565 5.62565 21.6679 0 30.2831 0L30.1003 11.4455Z"
            fill="url(#paint1_linear_2780_2286)" />
    </g>
    <defs>
        <linearGradient id="paint0_linear_2780_2286" x1="22.2982" y1="42.8796" x2="94.6716" y2="46.5251"
            gradientUnits="userSpaceOnUse">
            <stop stop-color="#0064E1" />
            <stop offset="0.4" stop-color="#0064E1" />
            <stop offset="0.83" stop-color="#0073EE" />
            <stop offset="1" stop-color="#0082FB" />
        </linearGradient>
        <linearGradient id="paint1_linear_2780_2286" x1="16.4483" y1="50.9424" x2="16.4483" y2="24.1885"
            gradientUnits="userSpaceOnUse">
            <stop stop-color="#0082FB" />
            <stop offset="1" stop-color="#0064E0" />
        </linearGradient>
        <clipPath id="clip0_2780_2286">
            <rect width="106" height="70" fill="white" />
        </clipPath>
    </defs>
</svg>