<svg width="50" height="50" viewBox="0 0 50 50" fill="none" xmlns="http://www.w3.org/2000/svg">
    <g clip-path="url(#clip0_2711_2815)">
        <path
            d="M24.9347 0C14.4955 0 11.4424 0.0107692 10.849 0.06C8.70666 0.238077 7.37358 0.575385 5.92128 1.29846C4.80205 1.85423 3.91935 2.49846 3.0482 3.40154C1.46166 5.04846 0.500123 7.07462 0.152046 9.48308C-0.0171848 10.6523 -0.0664156 10.8908 -0.0764156 16.8631C-0.0802618 18.8538 -0.0764156 21.4738 -0.0764156 24.9881C-0.0764156 35.4188 -0.0648771 38.4688 -0.0148771 39.0612C0.1582 41.1458 0.485123 42.4573 1.17743 43.8919C2.50051 46.6381 5.02743 48.6996 8.00435 49.4688C9.03512 49.7342 10.1736 49.8804 11.6351 49.9496C12.2544 49.9765 18.5659 49.9958 24.8813 49.9958C31.1967 49.9958 37.512 49.9881 38.1159 49.9573C39.8082 49.8777 40.7909 49.7458 41.8774 49.465C44.8736 48.6919 47.3544 46.6612 48.7044 43.8765C49.3832 42.4765 49.7274 41.115 49.8832 39.1392C49.917 38.7085 49.9313 31.8404 49.9313 24.9815C49.9313 18.1215 49.9159 11.2662 49.882 10.8354C49.7244 8.82769 49.3801 7.47769 48.6794 6.05077C48.1044 4.88269 47.4659 4.01038 46.539 3.11846C44.8847 1.53846 42.8617 0.576923 40.4509 0.229231C39.2828 0.0603846 39.0501 0.0103846 33.0732 0H24.9347Z"
            fill="url(#paint0_radial_2711_2815)" />
        <path
            d="M24.9347 0C14.4955 0 11.4424 0.0107692 10.849 0.06C8.70666 0.238077 7.37358 0.575385 5.92128 1.29846C4.80205 1.85423 3.91935 2.49846 3.0482 3.40154C1.46166 5.04846 0.500123 7.07462 0.152046 9.48308C-0.0171848 10.6523 -0.0664156 10.8908 -0.0764156 16.8631C-0.0802618 18.8538 -0.0764156 21.4738 -0.0764156 24.9881C-0.0764156 35.4188 -0.0648771 38.4688 -0.0148771 39.0612C0.1582 41.1458 0.485123 42.4573 1.17743 43.8919C2.50051 46.6381 5.02743 48.6996 8.00435 49.4688C9.03512 49.7342 10.1736 49.8804 11.6351 49.9496C12.2544 49.9765 18.5659 49.9958 24.8813 49.9958C31.1967 49.9958 37.512 49.9881 38.1159 49.9573C39.8082 49.8777 40.7909 49.7458 41.8774 49.465C44.8736 48.6919 47.3544 46.6612 48.7044 43.8765C49.3832 42.4765 49.7274 41.115 49.8832 39.1392C49.917 38.7085 49.9313 31.8404 49.9313 24.9815C49.9313 18.1215 49.9159 11.2662 49.882 10.8354C49.7244 8.82769 49.3801 7.47769 48.6794 6.05077C48.1044 4.88269 47.4659 4.01038 46.539 3.11846C44.8847 1.53846 42.8617 0.576923 40.4509 0.229231C39.2828 0.0603846 39.0501 0.0103846 33.0732 0H24.9347Z"
            fill="url(#paint1_radial_2711_2815)" />
        <path
            d="M24.924 6.53906C19.9102 6.53906 19.2809 6.56099 17.3117 6.6506C15.3463 6.7406 14.0048 7.05175 12.8309 7.50829C11.6167 7.97983 10.5867 8.6106 9.56055 9.63714C8.53363 10.6633 7.90286 11.6933 7.42978 12.9071C6.97209 14.0814 6.66055 15.4233 6.57209 17.3879C6.48401 19.3571 6.46094 19.9868 6.46094 25.0006C6.46094 30.0144 6.48325 30.6418 6.57248 32.611C6.66286 34.5764 6.97401 35.9179 7.43017 37.0918C7.90209 38.306 8.53286 39.336 9.5594 40.3621C10.5852 41.3891 11.6152 42.0214 12.8286 42.4929C14.0032 42.9494 15.3452 43.2606 17.3102 43.3506C19.2794 43.4402 19.9082 43.4621 24.9217 43.4621C29.9359 43.4621 30.5632 43.4402 32.5325 43.3506C34.4979 43.2606 35.8409 42.9494 37.0156 42.4929C38.2294 42.0214 39.2579 41.3891 40.2836 40.3621C41.3106 39.336 41.9413 38.306 42.4144 37.0921C42.8682 35.9179 43.1798 34.576 43.2721 32.6114C43.3605 30.6421 43.3836 30.0144 43.3836 25.0006C43.3836 19.9868 43.3605 19.3575 43.2721 17.3883C43.1798 15.4229 42.8682 14.0814 42.4144 12.9075C41.9413 11.6933 41.3106 10.6633 40.2836 9.63714C39.2567 8.61022 38.2298 7.97945 37.0144 7.50829C35.8375 7.05175 34.4952 6.7406 32.5298 6.6506C30.5606 6.56099 29.9336 6.53906 24.9182 6.53906H24.924ZM23.2679 9.86599C23.7594 9.86522 24.3079 9.86599 24.924 9.86599C29.8532 9.86599 30.4375 9.88368 32.384 9.97214C34.184 10.0544 35.1609 10.3552 35.8117 10.6079C36.6732 10.9425 37.2875 11.3425 37.9332 11.9887C38.5794 12.6348 38.9794 13.2502 39.3148 14.1118C39.5675 14.7618 39.8686 15.7387 39.9506 17.5387C40.039 19.4848 40.0582 20.0694 40.0582 24.9964C40.0582 29.9233 40.039 30.5079 39.9506 32.4541C39.8682 34.2541 39.5675 35.231 39.3148 35.881C38.9802 36.7425 38.5794 37.356 37.9332 38.0018C37.2871 38.6479 36.6736 39.0479 35.8117 39.3825C35.1617 39.6364 34.184 39.9364 32.384 40.0187C30.4379 40.1071 29.8532 40.1264 24.924 40.1264C19.9944 40.1264 19.4102 40.1071 17.464 40.0187C15.664 39.9356 14.6871 39.6348 14.0359 39.3821C13.1744 39.0475 12.559 38.6475 11.9129 38.0014C11.2667 37.3552 10.8667 36.7414 10.5313 35.8794C10.2786 35.2294 9.97748 34.2525 9.89555 32.4525C9.80709 30.5064 9.7894 29.9218 9.7894 24.9918C9.7894 20.0618 9.80709 19.4802 9.89555 17.5341C9.97786 15.7341 10.2786 14.7571 10.5313 14.1064C10.8659 13.2448 11.2667 12.6294 11.9129 11.9833C12.559 11.3371 13.1744 10.9371 14.0359 10.6018C14.6867 10.3479 15.664 10.0479 17.464 9.96522C19.1671 9.88829 19.8271 9.86522 23.2679 9.86137V9.86599ZM34.7786 12.9314C33.5556 12.9314 32.5632 13.9225 32.5632 15.146C32.5632 16.3691 33.5556 17.3614 34.7786 17.3614C36.0017 17.3614 36.994 16.3691 36.994 15.146C36.994 13.9229 36.0017 12.9306 34.7786 12.9306V12.9314ZM24.924 15.5198C19.6882 15.5198 15.4432 19.7648 15.4432 25.0006C15.4432 30.2364 19.6882 34.4794 24.924 34.4794C30.1598 34.4794 34.4032 30.2364 34.4032 25.0006C34.4032 19.7648 30.1598 15.5198 24.924 15.5198ZM24.924 18.8468C28.3225 18.8468 31.0779 21.6018 31.0779 25.0006C31.0779 28.3991 28.3225 31.1544 24.924 31.1544C21.5252 31.1544 18.7702 28.3991 18.7702 25.0006C18.7702 21.6018 21.5252 18.8468 24.924 18.8468Z"
            fill="white" />
    </g>
    <defs>
        <radialGradient id="paint0_radial_2711_2815" cx="0" cy="0" r="1" gradientUnits="userSpaceOnUse"
            gradientTransform="translate(13.2057 53.8465) rotate(-90) scale(49.5495 46.0975)">
            <stop stop-color="#FFDD55" />
            <stop offset="0.1" stop-color="#FFDD55" />
            <stop offset="0.5" stop-color="#FF543E" />
            <stop offset="1" stop-color="#C837AB" />
        </radialGradient>
        <radialGradient id="paint1_radial_2711_2815" cx="0" cy="0" r="1"
            gradientTransform="matrix(4.3485 21.718 -89.545 17.9295 -8.45496 3.60161)" gradientUnits="userSpaceOnUse">
            <stop stop-color="#3771C8" />
            <stop offset="0.128" stop-color="#3771C8" />
            <stop offset="1" stop-color="#6600FF" stop-opacity="0" />
        </radialGradient>
        <clipPath id="clip0_2711_2815">
            <rect width="50" height="50" fill="white" />
        </clipPath>
    </defs>
</svg>