<svg width="67" height="70" viewBox="0 0 67 70" fill="none" xmlns="http://www.w3.org/2000/svg">
    <g clip-path="url(#clip0_2643_2331)">
        <path
            d="M48.476 59.3075C48.2119 59.1992 47.9254 59.1366 47.622 59.1366C47.3186 59.1366 47.032 59.1992 46.768 59.3075C46.5039 59.4214 46.2623 59.5809 46.0657 59.786L46.0488 59.7974C45.9364 59.9113 45.8297 60.0423 45.7454 60.1847C45.7005 60.2588 45.6555 60.3385 45.6162 60.424H42.0709V57.3022C41.526 57.5586 40.9585 57.7523 40.3798 57.8719C40.2787 57.8947 40.1831 57.9118 40.082 57.9289V61.4266C40.082 61.7057 40.1944 61.9564 40.3742 62.1387C40.554 62.321 40.8012 62.4349 41.0765 62.4349H45.6499C45.6836 62.5033 45.7229 62.5716 45.7679 62.64C45.8465 62.7596 45.9364 62.8735 46.0376 62.9761L46.0544 62.9932C46.2567 63.1982 46.5039 63.3691 46.7792 63.4831C47.0433 63.5913 47.3298 63.654 47.6332 63.654C47.9254 63.654 48.2119 63.597 48.4704 63.4888L48.4872 63.4831C48.7625 63.3691 49.0041 63.1982 49.212 62.9932C49.4143 62.7881 49.5828 62.5374 49.6952 62.2583C49.8019 61.9906 49.8637 61.7 49.8637 61.3924C49.8637 61.0905 49.8019 60.8 49.6952 60.5265C49.5828 60.2474 49.4143 59.9967 49.212 59.7917C48.9985 59.5923 48.7513 59.4214 48.476 59.3075ZM32.2668 37.9452H28.1091L27.5135 39.9276H23.7717L28.2383 27.8963H32.2499L36.6997 39.9276H32.8623L32.2668 37.9452ZM31.4914 35.3361L30.1935 31.0124L28.8901 35.3361H31.4914ZM37.7335 27.8906H41.4136V39.9219H37.7335V27.8906ZM34.9299 15.5575C34.3231 16.0018 33.7613 16.5999 33.2725 17.3747C33.25 17.4146 33.2163 17.4487 33.1769 17.4715C33.0252 17.5684 32.823 17.5228 32.7275 17.3747C32.2387 16.5999 31.6768 16.0018 31.07 15.5575C30.4183 15.0789 29.716 14.777 28.9912 14.6289H28.98C28.272 14.4808 27.5473 14.4808 26.8506 14.6061C26.1146 14.7371 25.401 15.0106 24.7605 15.3866C24.1256 15.7625 23.5525 16.2467 23.075 16.805C22.6143 17.3462 22.2434 17.9671 22.0018 18.6336C21.9625 18.7362 21.9288 18.8444 21.8951 18.9583C21.867 19.0609 21.8333 19.1748 21.8108 19.2887C21.7827 19.4369 21.6591 19.5451 21.5018 19.5508C20.7489 19.6647 20.0017 19.9438 19.305 20.3597C18.5971 20.7869 17.9397 21.368 17.3722 22.063C16.8104 22.758 16.3384 23.5783 16.0013 24.4897C15.6867 25.3442 15.4957 26.2842 15.4564 27.2811C15.4507 27.4121 15.4507 27.5374 15.4507 27.6685C15.4507 27.7881 15.4564 27.9134 15.4564 28.0444C15.462 28.1527 15.417 28.2666 15.3215 28.335C14.8608 28.6711 14.445 29.0186 14.0742 29.3774C13.6978 29.7477 13.3663 30.1294 13.0797 30.5225C12.6134 31.1662 12.2707 31.8384 12.0403 32.5163C11.7987 33.2227 11.6808 33.9461 11.6695 34.6582C11.6639 35.3418 11.7538 36.0197 11.9448 36.6748C12.1358 37.3413 12.428 37.9907 12.8044 38.5946C13.0179 38.9421 13.2595 39.2839 13.5236 39.6029C13.7933 39.9276 14.0855 40.2352 14.4001 40.5257C14.4787 40.5998 14.5237 40.7194 14.5012 40.8333C14.4113 41.2663 14.3664 41.6935 14.3495 42.1151C14.3383 42.548 14.3608 42.9753 14.4169 43.3911C14.5237 44.1545 14.7428 44.8836 15.0518 45.5558C15.3777 46.2736 15.8047 46.9287 16.2991 47.5041C16.7767 48.068 17.3217 48.5579 17.906 48.9624C18.4959 49.3726 19.1196 49.6916 19.7601 49.9137C20.0466 50.0106 20.3388 50.0903 20.6366 50.1473C20.9175 50.2043 21.1984 50.2384 21.4737 50.2498C21.6254 50.2441 21.7659 50.3524 21.7996 50.5119C21.9457 51.1898 22.2153 51.8278 22.5862 52.4032C22.9738 53.007 23.4626 53.5425 24.0245 53.9868C24.7324 54.5451 25.5639 54.9666 26.4404 55.1888C27.2663 55.3996 28.1372 55.4395 28.9912 55.2572C29.7553 55.0977 30.4969 54.7673 31.1824 54.2432C31.8117 53.759 32.396 53.1095 32.8848 52.2664C32.9129 52.2152 32.9578 52.1753 33.014 52.1468C33.1713 52.0614 33.368 52.124 33.4522 52.2835C33.8568 53.0469 34.3512 53.6564 34.9018 54.1178C35.4974 54.6134 36.1547 54.9496 36.8458 55.1432C37.7279 55.3882 38.6493 55.3882 39.5426 55.2002C40.4978 55.0008 41.4192 54.5793 42.2114 53.9982C42.8351 53.5482 43.3857 52.9956 43.8239 52.369C44.2397 51.7822 44.5487 51.1271 44.7285 50.4378C44.7509 50.3068 44.8521 50.1929 44.9925 50.1701C45.8185 50.022 46.6331 49.6745 47.3804 49.1561C48.1276 48.6377 48.8075 47.9541 49.3637 47.1395C49.875 46.3875 50.2851 45.5216 50.5492 44.576C50.7964 43.693 50.9144 42.736 50.8751 41.7277C50.8638 41.6138 50.9144 41.4998 51.0155 41.4315C51.4987 41.0954 51.9257 40.7422 52.3078 40.3833C52.6954 40.0073 53.0382 39.62 53.3303 39.2155C53.7798 38.6003 54.1113 37.9622 54.3416 37.3071C54.5776 36.6292 54.7012 35.9399 54.7237 35.2507C54.7405 34.5841 54.6619 33.9233 54.4933 33.2739C54.3248 32.6188 54.0607 31.9865 53.718 31.3883L53.7067 31.377C53.482 30.9839 53.2179 30.6079 52.9258 30.2433C52.6336 29.8787 52.3021 29.5369 51.9482 29.2122C51.8639 29.1382 51.819 29.0186 51.8414 28.8989C51.9201 28.5059 51.9706 28.1128 51.9875 27.7254C52.0044 27.3324 51.9931 26.945 51.9538 26.5633C51.8695 25.7715 51.6616 25.0195 51.3582 24.3188C51.038 23.5783 50.611 22.8947 50.1109 22.2966C49.6278 21.7155 49.0715 21.2085 48.476 20.7869C47.8804 20.3654 47.2455 20.035 46.5994 19.8128L46.5826 19.8071C46.2398 19.6875 45.8915 19.6021 45.5488 19.5451H45.5375C45.2004 19.4881 44.8633 19.4653 44.5318 19.471C44.3801 19.4824 44.2341 19.3799 44.1947 19.2204C44.1385 18.9868 44.0655 18.759 43.9812 18.5368C43.8913 18.3089 43.7902 18.0868 43.6722 17.8646C43.3688 17.2949 42.9699 16.7708 42.5036 16.3208C42.026 15.8594 41.481 15.4663 40.8967 15.1644C40.2955 14.8568 39.6382 14.6403 38.9639 14.5435C38.3234 14.4523 37.6661 14.4637 37.02 14.6004C36.2952 14.777 35.5816 15.0789 34.9299 15.5575ZM44.1161 21.9718C44.1554 21.8465 44.2678 21.7497 44.4082 21.7383C44.6442 21.7212 44.8858 21.7326 45.1274 21.7725C45.3746 21.8123 45.6218 21.875 45.869 21.9605C46.3353 22.12 46.8017 22.3649 47.2343 22.6725C47.6613 22.9744 48.0658 23.3447 48.4142 23.7663L48.4198 23.7777C48.785 24.2163 49.094 24.7062 49.3244 25.2417C49.5435 25.743 49.6896 26.2785 49.7514 26.8424C49.7907 27.2184 49.7907 27.6115 49.7457 28.0103C49.7064 28.3805 49.6221 28.7622 49.4929 29.1439L49.4873 29.1667C49.4086 29.4059 49.4143 29.6566 49.4873 29.8787C49.566 30.1066 49.712 30.3117 49.9199 30.4484L49.9368 30.4598C50.3301 30.756 50.6784 31.0807 50.9818 31.4225C51.2964 31.77 51.5661 32.146 51.7909 32.5334C52.0381 32.9606 52.2291 33.4049 52.3471 33.8607C52.4707 34.3107 52.5269 34.7664 52.51 35.2165C52.4988 35.6836 52.4089 36.1507 52.246 36.6121C52.0886 37.0508 51.8583 37.4837 51.5549 37.9053L51.5493 37.911C51.274 38.2926 50.9256 38.6686 50.5155 39.0275C50.1222 39.3693 49.6671 39.694 49.1446 40.0073L49.1277 40.0187C48.9198 40.1383 48.7681 40.3206 48.6782 40.5314C48.5883 40.7422 48.5603 40.9758 48.6052 41.2036L48.6108 41.2492C48.7176 42.1208 48.667 42.9525 48.4928 43.7101C48.3018 44.5361 47.9703 45.2767 47.5377 45.909C47.2062 46.3932 46.8242 46.8091 46.414 47.1395C45.9926 47.4813 45.5375 47.7319 45.0712 47.8857H45.0656C44.897 47.937 44.7116 47.8402 44.661 47.6693C44.0262 45.5672 42.9306 44.8893 41.0765 43.9209L41.0372 43.8981C40.7787 43.7728 40.4978 43.7614 40.2449 43.8411C39.9921 43.9209 39.773 44.0975 39.6438 44.3538L39.6269 44.388C39.5033 44.6501 39.4921 44.9349 39.5707 45.1912C39.655 45.4476 39.8348 45.6755 40.0933 45.8122C41.6439 46.6154 42.7901 47.2249 42.7733 49.196C42.7676 49.7827 42.5878 50.3524 42.2844 50.8651C41.9642 51.4063 41.5035 51.8905 40.9697 52.2835C40.4247 52.6823 39.8123 52.9728 39.1831 53.1152C38.5819 53.2577 37.9639 53.2634 37.3852 53.1038C36.4076 52.8304 35.7727 52.1696 35.3457 51.3664C34.9411 50.603 34.7164 49.7144 34.5535 48.9054C34.5422 48.877 34.5422 48.8428 34.5422 48.8143C34.5422 48.4041 34.2276 48.1364 33.8174 48.0168C33.6377 47.9598 33.441 47.937 33.25 47.937C33.0533 47.937 32.8623 47.9655 32.6825 48.0168C32.278 48.1421 31.9634 48.4098 31.9634 48.8143C31.9634 48.8428 31.9577 48.8656 31.9521 48.894C31.6375 50.1587 31.1824 51.11 30.6486 51.7936C30.025 52.5968 29.2946 53.0355 28.5417 53.195C27.9911 53.3089 27.4236 53.2804 26.8843 53.138C26.3168 52.9842 25.7774 52.7051 25.3055 52.3405C24.8392 51.9702 24.4515 51.5202 24.1818 51.0132C23.9234 50.529 23.7717 49.9935 23.7717 49.4466C23.7717 47.3731 25.0077 46.6781 26.6427 45.8293C26.9011 45.6925 27.0809 45.4647 27.1652 45.2083C27.2495 44.9463 27.2326 44.6558 27.1034 44.388C26.9686 44.126 26.7438 43.9437 26.491 43.8582C26.2382 43.7785 25.9572 43.7899 25.6988 43.9152L25.6819 43.9209C23.7548 44.9178 22.603 45.647 21.912 47.8174C21.8726 47.9598 21.7378 48.068 21.5861 48.0623C21.3951 48.0566 21.204 48.0339 21.0074 47.994C20.8164 47.9541 20.6253 47.9028 20.4455 47.8345C19.9904 47.675 19.5353 47.4414 19.1083 47.1452C18.687 46.849 18.2937 46.4958 17.9453 46.0856C17.5857 45.6641 17.2767 45.1912 17.0408 44.6729C16.816 44.1886 16.6587 43.6702 16.58 43.1291V43.1177C16.5239 42.7189 16.5126 42.3031 16.5576 41.8758C16.5969 41.4771 16.6812 41.0612 16.8216 40.651L16.8273 40.634C16.9059 40.4004 16.9003 40.1554 16.8329 39.939L16.8273 39.9276C16.7542 39.6997 16.6081 39.5003 16.4059 39.3579L16.3946 39.3465C16.0351 39.0731 15.7092 38.7826 15.4226 38.4635C15.1305 38.1445 14.872 37.8027 14.6585 37.4495C14.4001 37.0223 14.1978 36.5666 14.063 36.0994C13.9338 35.6437 13.8663 35.1766 13.872 34.6981C13.8776 34.2139 13.9618 33.7183 14.1304 33.2341C14.2933 32.7726 14.5293 32.3112 14.8552 31.8612C15.1305 31.4795 15.4676 31.1035 15.8721 30.7446C16.2598 30.3971 16.698 30.0667 17.2037 29.7534C17.3891 29.6395 17.5239 29.48 17.6138 29.2977L17.6195 29.2806C17.7094 29.0926 17.7431 28.8818 17.715 28.6711C17.7094 28.6483 17.7094 28.6255 17.7094 28.6027V28.5913C17.6813 28.3919 17.6644 28.1925 17.6532 27.9989C17.6419 27.7881 17.6419 27.5773 17.6475 27.3722C17.6756 26.626 17.8161 25.9253 18.0465 25.293C18.2937 24.6151 18.642 24.0055 19.0578 23.4871C19.4005 23.0599 19.7938 22.701 20.2039 22.4219C20.6141 22.1427 21.0467 21.9434 21.4906 21.8294C21.6591 21.7782 21.8445 21.875 21.8951 22.0459C22.2434 23.1624 22.6817 23.8631 23.5188 24.6549L23.5525 24.6834C23.7604 24.8771 24.0301 24.9683 24.2942 24.9569C24.5582 24.9455 24.8167 24.8372 25.0077 24.6265L25.0246 24.6037C25.2156 24.3929 25.3055 24.1195 25.2943 23.8517C25.283 23.584 25.1707 23.3162 24.9571 23.1112C24.2829 22.4788 24.1312 22.0858 23.929 21.4478C23.693 20.7129 23.7323 19.9951 23.9627 19.3571C24.12 18.9185 24.3672 18.5083 24.6818 18.1494C24.9909 17.7905 25.3673 17.4715 25.7831 17.2266L25.7999 17.2152C26.2269 16.9645 26.6876 16.7822 27.1652 16.6911C27.6203 16.6056 28.0866 16.5999 28.5417 16.6968C29.1822 16.8335 29.8115 17.1753 30.3677 17.7677C30.8565 18.2861 31.2891 19.0039 31.6319 19.9495L31.6375 19.9609C31.7555 20.3312 32.1375 20.5477 32.587 20.6331C32.7893 20.673 33.0028 20.6844 33.2107 20.673H33.2163C33.4298 20.6616 33.632 20.6217 33.8231 20.5591C34.1602 20.4452 34.4242 20.2629 34.486 20.0293V19.8983C34.486 19.2375 34.8737 18.5368 35.4075 17.9614C35.9918 17.3348 36.7728 16.8392 37.4301 16.7025C37.8459 16.617 38.2673 16.6113 38.6774 16.674C39.1044 16.7424 39.5202 16.8791 39.9135 17.0785L39.9472 17.0898C40.3461 17.2949 40.7113 17.557 41.0315 17.8646C41.3462 18.1722 41.6159 18.5197 41.8181 18.9014C42.1384 19.4995 42.2844 20.1831 42.1833 20.9066C42.0934 21.5389 42.0709 21.9377 41.5484 22.57L41.5428 22.5757C41.3574 22.7979 41.2787 23.077 41.3012 23.3504C41.3237 23.6125 41.4417 23.8688 41.6496 24.0511L41.6833 24.0796C41.9024 24.2619 42.1721 24.3359 42.4361 24.3132C42.6946 24.2904 42.9474 24.1707 43.1272 23.96L43.1553 23.9201C43.6947 23.2707 43.8688 22.7922 44.1161 21.9718ZM56.4542 49.8511C56.3474 49.5833 56.2856 49.2928 56.2856 48.9852C56.2856 48.6776 56.3474 48.387 56.4542 48.1193C56.5665 47.8516 56.7239 47.6066 56.9261 47.4072L56.9374 47.3901C57.0497 47.2762 57.179 47.168 57.3194 47.0825C57.3925 47.0369 57.4711 46.9914 57.5554 46.9515V43.3569H53.1955C53.2011 43.1234 53.2011 42.8898 53.1899 42.6506C53.1786 42.5195 53.2348 42.3885 53.3472 42.3145C53.7966 42.0011 54.2068 41.6764 54.5776 41.3403H58.5442C58.8195 41.3403 59.0667 41.4543 59.2465 41.6366C59.4263 41.8188 59.5387 42.0695 59.5387 42.3486V46.9857C59.6061 47.0199 59.6735 47.0597 59.741 47.1053C59.859 47.1851 59.9713 47.2762 60.0725 47.3787L60.0893 47.3958C60.2916 47.6009 60.4601 47.8516 60.5725 48.1307C60.6792 48.3984 60.7411 48.689 60.7411 48.9966C60.7411 49.2928 60.6849 49.5776 60.5781 49.8454L60.5725 49.8625C60.4601 50.1416 60.2916 50.3866 60.0893 50.5973C59.887 50.8024 59.6398 50.9733 59.3645 51.0872C59.1005 51.1955 58.8139 51.2581 58.5105 51.2581C58.2127 51.2581 57.9262 51.1955 57.6565 51.0872C57.3812 50.9733 57.134 50.8024 56.9317 50.5973C56.7351 50.3809 56.5665 50.1302 56.4542 49.8511ZM62.7693 38.3154H56.8418C56.943 38.0933 57.0329 37.8711 57.1115 37.6432C57.2688 37.1989 57.3812 36.7489 57.4486 36.2988H62.7693C62.8086 36.2248 62.848 36.1507 62.8929 36.0767C62.9772 35.9399 63.0783 35.8146 63.1851 35.7064C63.393 35.4956 63.6346 35.3304 63.9099 35.2165C64.1739 35.1082 64.4605 35.0456 64.7639 35.0456C65.056 35.0456 65.3369 35.1025 65.601 35.2108L65.6179 35.2165C65.8932 35.3304 66.1348 35.5013 66.3426 35.7064C66.5449 35.9115 66.7135 36.1621 66.8258 36.4412C66.9326 36.709 66.9944 36.9995 66.9944 37.3071C66.9944 37.6091 66.9326 37.8996 66.8258 38.173C66.7135 38.4522 66.5449 38.7028 66.3426 38.9079C66.1404 39.113 65.8932 39.2839 65.6179 39.3978C65.3538 39.506 65.0673 39.5687 64.7639 39.5687C64.4717 39.5687 64.1908 39.5117 63.9267 39.4035L63.9099 39.3978C63.6346 39.2839 63.393 39.113 63.1851 38.9079C63.0783 38.7996 62.9828 38.68 62.8985 38.549L62.8873 38.5319C62.848 38.4635 62.8086 38.3895 62.7693 38.3154ZM64.6571 32.8011H57.2014C57.0104 32.1631 56.7407 31.5422 56.4036 30.9497L56.3924 30.9326C56.3643 30.8813 56.3362 30.8358 56.3081 30.7845H63.6683V24.2049C63.6121 24.1707 63.5559 24.1366 63.4997 24.0967C63.3873 24.0169 63.2862 23.9315 63.1907 23.8346C62.9884 23.6296 62.8199 23.3789 62.7075 23.0998C62.6008 22.832 62.539 22.5415 62.539 22.2339C62.539 21.932 62.6008 21.6357 62.7075 21.368C62.8199 21.0889 62.9884 20.8439 63.1907 20.6331C63.393 20.4281 63.6402 20.2572 63.9155 20.1432C64.1795 20.035 64.4661 19.9723 64.7695 19.9723C65.0673 19.9723 65.3538 20.035 65.6235 20.1432C65.8988 20.2572 66.146 20.4281 66.3483 20.6331C66.5505 20.8382 66.7191 21.0889 66.8314 21.368C66.9382 21.6357 67 21.9263 67 22.2339C67 22.5301 66.9438 22.8149 66.8371 23.0827L66.8314 23.0998C66.7191 23.3789 66.5505 23.6239 66.3483 23.8346C66.2247 23.96 66.0786 24.0739 65.9269 24.1707C65.8426 24.222 65.7471 24.2733 65.6572 24.3132V31.7871C65.6572 32.0662 65.5448 32.3169 65.365 32.4992C65.1796 32.6872 64.9324 32.8011 64.6571 32.8011ZM56.8643 27.9362H54.3248C54.3922 27.5602 54.4315 27.1842 54.4484 26.8083C54.4596 26.5063 54.4596 26.2101 54.4428 25.9196H55.8699V22.946C55.7912 22.9061 55.7182 22.8662 55.6451 22.8149C55.5103 22.7295 55.3867 22.627 55.2687 22.5073C55.0664 22.3022 54.8979 22.0516 54.7855 21.7725C54.6787 21.5047 54.6169 21.2142 54.6169 20.9123C54.6169 20.6104 54.6787 20.3198 54.7855 20.0464C54.8979 19.7786 55.0552 19.5337 55.2518 19.3286L55.2687 19.3115C55.4709 19.1064 55.7182 18.9355 55.9935 18.8216C56.2575 18.7134 56.5441 18.6507 56.8475 18.6507C57.1509 18.6507 57.4374 18.7134 57.7015 18.8216C57.9655 18.9355 58.2071 19.0951 58.4094 19.3001L58.4262 19.3115C58.6285 19.5166 58.7914 19.7559 58.9038 20.0293L58.9094 20.0464C59.0162 20.3141 59.078 20.6047 59.078 20.9123C59.078 21.2142 59.0162 21.5104 58.9094 21.7782C58.7971 22.0459 58.6397 22.2909 58.4431 22.4959L58.4262 22.513C58.3195 22.6213 58.2015 22.7181 58.0667 22.8092C57.9992 22.8548 57.9318 22.8947 57.8588 22.9289V26.9279C57.8588 27.207 57.7464 27.4577 57.5666 27.64C57.3868 27.8223 57.134 27.9362 56.8643 27.9362ZM17.4902 10.6925C17.7543 10.8008 18.0408 10.8634 18.3442 10.8634C18.6476 10.8634 18.9342 10.8008 19.1982 10.6925C19.4623 10.5786 19.7039 10.4191 19.9005 10.214L19.9174 10.2026C20.0298 10.0887 20.1365 9.95768 20.2208 9.81527C20.2657 9.74121 20.3107 9.66146 20.35 9.57601H23.8953V12.6807C24.5189 12.3446 25.1931 12.0996 25.8842 11.9572V8.56771C25.8842 8.28858 25.7718 8.03792 25.592 7.85563C25.4122 7.67334 25.165 7.55941 24.8897 7.55941H20.3163C20.2826 7.49105 20.2433 7.42269 20.1983 7.35433C20.1197 7.2347 20.0298 7.12077 19.9286 7.01823L19.9118 7.00114C19.7095 6.79606 19.4623 6.62516 19.187 6.51123C18.9229 6.403 18.6364 6.34033 18.333 6.34033C18.0408 6.34033 17.7543 6.3973 17.4958 6.50553L17.479 6.51123C17.2037 6.62516 16.9621 6.79606 16.7542 7.00114C16.552 7.20622 16.3834 7.45687 16.271 7.736C16.1643 8.00374 16.1025 8.29427 16.1025 8.60189C16.1025 8.90381 16.1643 9.19434 16.271 9.46777C16.3834 9.74691 16.552 9.99756 16.7542 10.2026C16.9733 10.4077 17.2149 10.5786 17.4902 10.6925ZM28.8732 4.28955V12.0711C29.5362 12.2648 30.1823 12.5724 30.7891 13.0168L30.8565 13.068C30.8565 13.0509 30.8621 13.0339 30.8621 13.0168V4.28955C30.9352 4.24967 31.0082 4.2098 31.0813 4.16423C31.2161 4.07878 31.3397 3.97624 31.4465 3.868C31.6487 3.65723 31.8173 3.41227 31.9296 3.13314C32.0364 2.8654 32.0982 2.57487 32.0982 2.26725C32.0982 1.97103 32.042 1.6862 31.9353 1.41846L31.9296 1.40137C31.8173 1.12223 31.6487 0.877279 31.4465 0.666504C31.2442 0.461426 30.997 0.290527 30.7217 0.176595C30.4576 0.0683594 30.1711 0.00569661 29.8677 0.00569661C29.5699 0.00569661 29.2834 0.0683594 29.0137 0.176595C28.7384 0.290527 28.4912 0.461426 28.2889 0.666504C28.0866 0.871582 27.9181 1.12223 27.8057 1.40137C27.699 1.66911 27.6371 1.95964 27.6371 2.26725C27.6371 2.56348 27.6933 2.84831 27.8001 3.11605L27.8057 3.13314C27.9181 3.41227 28.0866 3.65723 28.2889 3.868C28.3956 3.97624 28.5136 4.07308 28.6429 4.15853L28.6541 4.16423C28.7271 4.2098 28.7945 4.24967 28.8732 4.28955ZM34.3062 2.37549V13.7573C34.5759 13.4782 34.8625 13.2332 35.1546 13.0168C35.5198 12.749 35.9019 12.5269 36.2952 12.356V3.37809H42.7845C42.8182 3.43506 42.8519 3.49202 42.8912 3.54899C42.9699 3.66292 43.0542 3.76546 43.1497 3.86231C43.352 4.06738 43.5992 4.23828 43.8745 4.35221C44.1385 4.46045 44.4251 4.52311 44.7285 4.52311C45.0262 4.52311 45.3184 4.46045 45.5825 4.35221C45.8578 4.23828 46.105 4.06738 46.3073 3.86231C46.5095 3.65723 46.6781 3.40658 46.7904 3.12744C46.8972 2.8597 46.959 2.56917 46.959 2.26156C46.959 1.95964 46.8972 1.66911 46.7904 1.39567C46.6781 1.11654 46.5095 0.865885 46.3073 0.660807C46.0938 0.455729 45.8465 0.284831 45.5712 0.170898C45.3072 0.0626628 45.0206 0 44.7229 0C44.4307 0 44.1498 0.0569661 43.8857 0.165202L43.8689 0.170898C43.5935 0.284831 43.352 0.455729 43.1441 0.660807C43.0205 0.786133 42.9081 0.934245 42.8126 1.08805C42.762 1.1735 42.7114 1.27035 42.6721 1.36149H35.3007C35.0254 1.36149 34.7782 1.47542 34.5984 1.65771C34.4186 1.8457 34.3062 2.09635 34.3062 2.37549ZM39.1044 10.2767V11.8376C39.3067 11.849 39.5146 11.866 39.7168 11.9002C40.1888 11.9686 40.6495 12.0882 41.0933 12.2534V11.2907H44.0262C44.0655 11.3704 44.1048 11.4445 44.1554 11.5186C44.2397 11.6553 44.3408 11.7806 44.4588 11.9002C44.661 12.1053 44.9083 12.2762 45.1836 12.3901C45.4476 12.4984 45.7342 12.561 46.032 12.561C46.3297 12.561 46.6163 12.4984 46.886 12.3901C47.15 12.2762 47.3916 12.1167 47.5939 11.9173L47.6107 11.9002C47.813 11.6952 47.9816 11.4445 48.0939 11.1654C48.2007 10.8976 48.2625 10.6071 48.2625 10.2995C48.2625 9.99186 48.2007 9.70133 48.0939 9.43359C47.9816 9.16585 47.8242 8.9209 47.622 8.71582L47.6107 8.69873C47.4085 8.49365 47.1725 8.32845 46.9028 8.21452L46.886 8.20882C46.6219 8.10059 46.3353 8.03792 46.032 8.03792C45.7342 8.03792 45.442 8.10059 45.1779 8.20882C44.9139 8.32275 44.6723 8.48226 44.47 8.68164L44.4532 8.69873C44.3464 8.80697 44.2509 8.9266 44.161 9.06331C44.1161 9.13167 44.0767 9.20003 44.043 9.27409H40.0989C39.8236 9.27409 39.5764 9.38802 39.3966 9.57031C39.2168 9.74691 39.1044 9.99756 39.1044 10.2767ZM10.5458 20.0521C10.6526 20.3198 10.7144 20.6104 10.7144 20.918C10.7144 21.2256 10.6526 21.5161 10.5458 21.7839C10.4335 22.0516 10.2761 22.2966 10.0739 22.4959L10.0626 22.513C9.95027 22.627 9.82105 22.7352 9.68059 22.8206C9.60755 22.8662 9.52889 22.9118 9.44461 22.9517V26.5462H13.1247V26.7228C13.1247 26.8595 13.1303 27.002 13.1359 27.1501C13.1472 27.2754 13.091 27.4007 12.9842 27.4805C12.501 27.828 12.0684 28.1925 11.6751 28.5628H8.46138C8.18608 28.5628 7.93887 28.4489 7.75908 28.2666C7.57929 28.0843 7.46692 27.8337 7.46692 27.5545V22.9175C7.3995 22.8833 7.33208 22.8434 7.26465 22.7979C7.14667 22.7181 7.0343 22.627 6.93317 22.5244L6.91631 22.5073C6.71405 22.3022 6.54549 22.0516 6.43312 21.7725C6.32637 21.5047 6.26457 21.2142 6.26457 20.9066C6.26457 20.6104 6.32075 20.3255 6.42751 20.0578L6.43312 20.0407C6.54549 19.7616 6.71405 19.5166 6.91631 19.3058C7.11858 19.1007 7.36579 18.9299 7.64109 18.8159C7.90516 18.7077 8.1917 18.645 8.49509 18.645C8.79287 18.645 9.07941 18.7077 9.3491 18.8159C9.6244 18.9299 9.87161 19.1007 10.0739 19.3058C10.2649 19.5223 10.4335 19.773 10.5458 20.0521ZM4.23069 31.5877H9.51203C9.42214 31.7928 9.34348 32.0036 9.27044 32.2087C9.11312 32.6701 9.00076 33.1315 8.93333 33.5986H4.23069C4.19136 33.6727 4.15203 33.7467 4.10709 33.8208C4.02281 33.9575 3.92168 34.0828 3.81493 34.1911C3.60704 34.4019 3.36545 34.5671 3.09015 34.681C2.82608 34.7892 2.53954 34.8519 2.23614 34.8519C1.94398 34.8519 1.66306 34.7949 1.39899 34.6867L1.38214 34.681C1.10683 34.5671 0.865241 34.3962 0.657358 34.1911C0.455094 33.986 0.286541 33.7354 0.174172 33.4562C0.0674214 33.1885 0.00561845 32.8979 0.00561845 32.5903C0.00561845 32.2884 0.0674214 31.9979 0.174172 31.7244C0.286541 31.4453 0.455094 31.1947 0.657358 30.9896C0.859623 30.7845 1.10683 30.6136 1.38214 30.4997C1.64621 30.3914 1.93275 30.3288 2.23614 30.3288C2.5283 30.3288 2.80922 30.3857 3.07329 30.494L3.09015 30.4997C3.36545 30.6136 3.60704 30.7845 3.81493 30.9896C3.92168 31.0978 4.01719 31.2174 4.10147 31.3485L4.1127 31.3656C4.15203 31.4396 4.19136 31.5137 4.23069 31.5877ZM2.34289 37.1021H9.21426C9.42776 37.7913 9.73677 38.4578 10.1301 39.0902V39.0959L10.1413 39.1187H3.33174V45.6982C3.38792 45.7324 3.44411 45.7666 3.50029 45.8065C3.61266 45.8862 3.71379 45.9717 3.80931 46.0685C4.01157 46.2736 4.18013 46.5243 4.29249 46.8034C4.39925 47.0711 4.46105 47.3617 4.46105 47.6693C4.46105 47.9712 4.39925 48.2674 4.29249 48.5352C4.18013 48.8143 4.01157 49.0592 3.80931 49.27C3.60704 49.4751 3.35983 49.646 3.08453 49.7599C2.82046 49.8682 2.53392 49.9308 2.23052 49.9308C1.93275 49.9308 1.64621 49.8682 1.37652 49.7599C1.10122 49.646 0.854004 49.4751 0.65174 49.27C0.449476 49.0479 0.280922 48.7972 0.168553 48.5238C0.0618029 48.256 0 47.9655 0 47.6579C0 47.3617 0.0561845 47.0768 0.162935 46.8091L0.168553 46.792C0.280922 46.5129 0.449476 46.2679 0.65174 46.0571C0.775346 45.9318 0.921426 45.8179 1.07312 45.721C1.1574 45.6698 1.25291 45.6185 1.34281 45.5786V38.1047C1.34281 37.8255 1.45518 37.5749 1.63497 37.3926C1.82038 37.216 2.06759 37.1021 2.34289 37.1021ZM10.1357 41.967H11.9898C11.928 42.3429 11.8943 42.7132 11.883 43.0778C11.8718 43.3854 11.8774 43.6873 11.8999 43.9836H11.1301V46.9572C11.2088 46.9971 11.2818 47.037 11.3549 47.0882C11.4897 47.1737 11.6133 47.2762 11.7313 47.3958C11.9336 47.6009 12.1021 47.8516 12.2145 48.1307C12.3213 48.3984 12.3831 48.689 12.3831 48.9966C12.3831 49.3042 12.3213 49.589 12.2145 49.8625C12.1021 50.1302 11.9448 50.3752 11.7482 50.5802L11.7313 50.5973C11.5291 50.8024 11.2818 50.9733 11.0065 51.0872C10.7425 51.1955 10.4559 51.2581 10.1525 51.2581C9.84914 51.2581 9.5626 51.1955 9.29853 51.0872C9.03447 50.9733 8.79287 50.8138 8.59061 50.6087L8.57375 50.5973C8.37149 50.3923 8.20855 50.153 8.09618 49.8796L8.09057 49.8625C7.98382 49.5947 7.92201 49.3042 7.92201 48.9966C7.92201 48.6947 7.98382 48.3984 8.09057 48.1307C8.20294 47.863 8.36025 47.618 8.5569 47.4129L8.57375 47.3958C8.6805 47.2876 8.79849 47.1908 8.93333 47.0996C9.00076 47.054 9.06818 47.0142 9.14122 46.98V42.981C9.14122 42.7018 9.25359 42.4512 9.43338 42.2689C9.61317 42.0752 9.86038 41.967 10.1357 41.967ZM37.0986 65.7104V57.7409C36.3963 57.5187 35.7333 57.1598 35.1265 56.6528L35.1153 56.6414V65.7161C35.0423 65.756 34.9692 65.7959 34.8962 65.8415C34.7613 65.9269 34.6377 66.0295 34.531 66.1377C34.3287 66.3485 34.1602 66.5934 34.0478 66.8726C33.941 67.1403 33.8792 67.4308 33.8792 67.7384C33.8792 68.0347 33.9354 68.3195 34.0422 68.5872L34.0478 68.6043C34.1602 68.8835 34.3287 69.1284 34.531 69.3392C34.7332 69.5443 34.9805 69.7152 35.2558 69.8291C35.5198 69.9373 35.8064 70 36.1098 70C36.4075 70 36.6941 69.9373 36.9638 69.8291C37.2391 69.7152 37.4863 69.5443 37.6886 69.3392C37.8908 69.1341 38.0594 68.8835 38.1717 68.6043C38.2785 68.3366 38.3403 68.0461 38.3403 67.7384C38.3403 67.4422 38.2841 67.1574 38.1774 66.8896L38.1717 66.8726C38.0594 66.5934 37.8908 66.3485 37.6886 66.1377C37.5818 66.0295 37.4638 65.9326 37.3346 65.8472L37.3177 65.8358C37.2447 65.7902 37.1717 65.7503 37.0986 65.7104ZM31.66 67.6245V56.1401C31.424 56.3851 31.1768 56.6016 30.9183 56.8009C30.5194 57.1086 30.1036 57.3535 29.671 57.5472V66.6276H23.1817C23.148 66.5706 23.1143 66.5137 23.075 66.4567C22.9963 66.3428 22.912 66.2402 22.8165 66.1434C22.6143 65.9383 22.367 65.7674 22.0917 65.6535C21.8277 65.5452 21.5411 65.4826 21.2377 65.4826C20.94 65.4826 20.6478 65.5452 20.3837 65.6535C20.1084 65.7674 19.8668 65.9383 19.659 66.1434C19.4567 66.3485 19.2881 66.5991 19.1758 66.8783C19.069 67.146 19.0072 67.4365 19.0072 67.7441C19.0072 68.0461 19.069 68.3366 19.1758 68.61C19.2881 68.8892 19.4567 69.1398 19.659 69.3449C19.8612 69.55 20.1084 69.7209 20.3837 69.8348C20.6478 69.943 20.9343 70.0057 21.2377 70.0057C21.5299 70.0057 21.8108 69.9487 22.0749 69.8405L22.0917 69.8348C22.367 69.7209 22.6086 69.55 22.8165 69.3449C22.9401 69.2196 23.0525 69.0715 23.148 68.9176C23.1986 68.8322 23.2491 68.7354 23.2885 68.6442H30.6599C30.9352 68.6442 31.1824 68.5303 31.3622 68.348C31.5476 68.1543 31.66 67.9036 31.66 67.6245ZM26.8618 59.7233V58.0656C26.4236 58.0428 25.9853 57.9745 25.5583 57.8662C25.328 57.8092 25.0976 57.7352 24.8729 57.6554V58.7207H21.94C21.9007 58.641 21.8614 58.5669 21.8108 58.4928C21.7265 58.3561 21.6254 58.2308 21.5074 58.1112C21.3052 57.9061 21.0579 57.7352 20.7826 57.6213C20.5186 57.513 20.232 57.4504 19.9343 57.4504C19.6365 57.4504 19.3499 57.513 19.0803 57.6213C18.8162 57.7352 18.5746 57.8947 18.3723 58.0941L18.3555 58.1055C18.1532 58.3106 17.9847 58.5612 17.8723 58.8403C17.7655 59.1081 17.7037 59.3986 17.7037 59.7062C17.7037 60.0138 17.7655 60.3044 17.8723 60.5721C17.9847 60.8398 18.142 61.0848 18.3442 61.2899L18.3555 61.307C18.5577 61.5121 18.7937 61.6772 19.0634 61.7912L19.0803 61.7969C19.3443 61.9051 19.6309 61.9678 19.9343 61.9678C20.232 61.9678 20.5186 61.9051 20.7883 61.7969C21.0523 61.6829 21.2939 61.5234 21.4962 61.3241L21.513 61.307C21.6198 61.1987 21.7153 61.0791 21.8052 60.9424C21.8501 60.874 21.8895 60.8057 21.9232 60.7316H25.8673C26.1426 60.7316 26.3899 60.6177 26.5696 60.4354C26.7494 60.2531 26.8618 60.0024 26.8618 59.7233Z"
            fill="black" />
    </g>
    <defs>
        <clipPath id="clip0_2643_2331">
            <rect width="67" height="70" fill="white" />
        </clipPath>
    </defs>
</svg>