<svg width="116" height="70" viewBox="0 0 116 70" fill="none" xmlns="http://www.w3.org/2000/svg">
    <g clip-path="url(#clip0_2643_2488)">
        <path
            d="M32.9632 25.5373C32.9632 26.9603 33.1158 28.1142 33.3829 28.9603C33.6882 29.8065 34.0697 30.7296 34.6039 31.7296C34.7947 32.0373 34.8711 32.345 34.8711 32.6142C34.8711 32.9988 34.6421 33.3834 34.1461 33.768L31.7421 35.3834C31.3987 35.6142 31.0553 35.7296 30.75 35.7296C30.3684 35.7296 29.9868 35.5373 29.6053 35.1911C29.0711 34.6142 28.6132 33.9988 28.2316 33.3834C27.85 32.7296 27.4684 31.9988 27.0487 31.1142C24.0724 34.6526 20.3329 36.4219 15.8303 36.4219C12.625 36.4219 10.0684 35.4988 8.19868 33.6526C6.32895 31.8065 5.375 29.345 5.375 26.268C5.375 22.9988 6.51974 20.345 8.84737 18.345C11.175 16.345 14.2658 15.345 18.1961 15.345C19.4934 15.345 20.8289 15.4603 22.2408 15.6526C23.6526 15.845 25.1026 16.1526 26.6289 16.4988V13.6911C26.6289 10.768 26.0184 8.72957 24.8355 7.53726C23.6145 6.34495 21.5539 5.76803 18.6158 5.76803C17.2803 5.76803 15.9066 5.92187 14.4947 6.26803C13.0829 6.61418 11.7092 7.03726 10.3737 7.57572C9.76316 7.84495 9.30526 7.9988 9.03816 8.07572C8.77105 8.15264 8.58026 8.19111 8.42763 8.19111C7.89342 8.19111 7.62632 7.80649 7.62632 6.9988V5.11418C7.62632 4.4988 7.70263 4.03726 7.89342 3.76803C8.08421 3.4988 8.42763 3.22957 8.96184 2.96034C10.2974 2.26803 11.9 1.69111 13.7697 1.22957C15.6395 0.729567 17.6237 0.498798 19.7224 0.498798C24.2632 0.498798 27.5829 1.53726 29.7197 3.61418C31.8184 5.69111 32.8868 8.84495 32.8868 13.0757V25.5373H32.9632ZM17.4711 31.3834C18.7303 31.3834 20.0276 31.1526 21.4013 30.6911C22.775 30.2296 23.9961 29.3834 25.0263 28.2296C25.6368 27.4988 26.0947 26.6911 26.3237 25.768C26.5526 24.845 26.7053 23.7296 26.7053 22.4219V20.8065C25.5987 20.5373 24.4158 20.3065 23.1947 20.1526C21.9737 19.9988 20.7908 19.9219 19.6079 19.9219C17.0513 19.9219 15.1816 20.4219 13.9224 21.4603C12.6632 22.4988 12.0526 23.9603 12.0526 25.8834C12.0526 27.6911 12.5105 29.0373 13.4645 29.9603C14.3803 30.9219 15.7158 31.3834 17.4711 31.3834ZM48.1118 35.5373C47.425 35.5373 46.9671 35.4219 46.6618 35.1526C46.3566 34.9219 46.0895 34.3834 45.8605 33.6526L36.8934 3.92187C36.6645 3.15264 36.55 2.65264 36.55 2.38341C36.55 1.76803 36.8553 1.42188 37.4658 1.42188H41.2053C41.9303 1.42188 42.4263 1.53726 42.6934 1.80649C42.9987 2.03726 43.2276 2.57572 43.4566 3.30649L49.8671 28.768L55.8197 3.30649C56.0105 2.53726 56.2395 2.03726 56.5447 1.80649C56.85 1.57572 57.3842 1.42188 58.071 1.42188H61.1237C61.8487 1.42188 62.3447 1.53726 62.65 1.80649C62.9553 2.03726 63.2224 2.57572 63.375 3.30649L69.4039 29.0757L76.0053 3.30649C76.2342 2.53726 76.5013 2.03726 76.7684 1.80649C77.0737 1.57572 77.5697 1.42188 78.2566 1.42188H81.8053C82.4158 1.42188 82.7592 1.72957 82.7592 2.38341C82.7592 2.57572 82.721 2.76803 82.6829 2.9988C82.6447 3.22957 82.5684 3.53726 82.4158 3.96034L73.2197 33.6911C72.9908 34.4603 72.7237 34.9603 72.4184 35.1911C72.1132 35.4219 71.6171 35.5757 70.9684 35.5757H67.6868C66.9618 35.5757 66.4658 35.4603 66.1605 35.1911C65.8553 34.9219 65.5882 34.4219 65.4355 33.6526L59.521 8.84495L53.6447 33.6142C53.4539 34.3834 53.225 34.8834 52.9197 35.1526C52.6145 35.4219 52.0803 35.5373 51.3934 35.5373H48.1118ZM97.1447 36.5757C95.1605 36.5757 93.1763 36.345 91.2684 35.8834C89.3605 35.4219 87.8724 34.9219 86.8803 34.345C86.2697 33.9988 85.85 33.6142 85.6974 33.268C85.5447 32.9219 85.4684 32.5373 85.4684 32.1911V30.2296C85.4684 29.4219 85.7737 29.0373 86.346 29.0373C86.575 29.0373 86.8039 29.0757 87.0329 29.1526C87.2618 29.2296 87.6053 29.3834 87.9868 29.5373C89.2842 30.1142 90.696 30.5757 92.1842 30.8834C93.7105 31.1911 95.1987 31.345 96.725 31.345C99.1289 31.345 100.999 30.9219 102.296 30.0757C103.593 29.2296 104.28 27.9988 104.28 26.4219C104.28 25.345 103.937 24.4603 103.25 23.7296C102.563 22.9988 101.266 22.345 99.396 21.7296L93.8632 19.9988C91.0776 19.1142 89.0171 17.8065 87.7579 16.0757C86.4987 14.3834 85.85 12.4988 85.85 10.4988C85.85 8.88341 86.1934 7.46034 86.8803 6.22957C87.5671 4.9988 88.4829 3.92188 89.6276 3.07572C90.7724 2.19111 92.0697 1.53726 93.596 1.07572C95.1224 0.614183 96.725 0.421875 98.4039 0.421875C99.2434 0.421875 100.121 0.460337 100.961 0.575721C101.838 0.691106 102.639 0.844952 103.441 0.998798C104.204 1.19111 104.929 1.38341 105.616 1.61418C106.303 1.84495 106.837 2.07572 107.218 2.30649C107.753 2.61418 108.134 2.92188 108.363 3.26803C108.592 3.57572 108.707 3.9988 108.707 4.53726V6.34495C108.707 7.15264 108.401 7.57572 107.829 7.57572C107.524 7.57572 107.028 7.42188 106.379 7.11418C104.204 6.11418 101.762 5.61418 99.0526 5.61418C96.8776 5.61418 95.1605 5.96034 93.9776 6.69111C92.7947 7.42188 92.1842 8.53726 92.1842 10.1142C92.1842 11.1911 92.5658 12.1142 93.3289 12.845C94.0921 13.5757 95.5039 14.3065 97.5263 14.9603L102.945 16.6911C105.692 17.5757 107.676 18.8065 108.859 20.3834C110.042 21.9603 110.614 23.768 110.614 25.768C110.614 27.4219 110.271 28.9219 109.622 30.2296C108.936 31.5373 108.02 32.6911 106.837 33.6142C105.654 34.5757 104.242 35.268 102.601 35.768C100.884 36.3065 99.0908 36.5757 97.1447 36.5757Z"
            fill="#252F3E" />
        <path fill-rule="evenodd" clip-rule="evenodd"
            d="M104.358 55.2653C91.8042 64.6115 73.5648 69.573 57.8819 69.573C35.9029 69.573 16.099 61.3807 1.14108 47.7653C-0.0418125 46.6884 1.02661 45.2269 2.43845 46.073C18.6174 55.5346 38.574 61.2653 59.2174 61.2653C73.145 61.2653 88.4464 58.3423 102.527 52.3423C104.625 51.3807 106.419 53.7269 104.358 55.2653Z"
            fill="#FF9900" />
        <path fill-rule="evenodd" clip-rule="evenodd"
            d="M109.586 49.265C107.983 47.1881 98.9776 48.265 94.8947 48.765C93.6737 48.9188 93.4829 47.8419 94.5895 47.0342C101.763 41.9573 113.554 43.4188 114.928 45.1112C116.301 46.8419 114.546 58.7265 107.83 64.4188C106.8 65.3035 105.808 64.8419 106.266 63.6881C107.792 59.8804 111.188 51.3035 109.586 49.265Z"
            fill="#FF9900" />
    </g>
    <defs>
        <clipPath id="clip0_2643_2488">
            <rect width="116" height="70" fill="white" />
        </clipPath>
    </defs>
</svg>