<svg width="242" height="70" viewBox="0 0 242 70" fill="none" xmlns="http://www.w3.org/2000/svg">
    <g clip-path="url(#clip0_2655_2321)">
        <path
            d="M41.6412 66.2617C53.2055 64.2106 62.757 62.5133 62.8667 62.49L63.0661 62.4475L52.1483 49.4087C46.1435 42.2373 41.2305 36.342 41.2305 36.308C41.2305 36.2437 52.5041 5.0733 52.5674 4.96241C52.5886 4.92533 60.2606 18.2243 71.1649 37.2001C81.3737 54.9655 89.7903 69.6132 89.8686 69.7504L90.0108 70L55.313 69.9955L20.6152 69.991L41.6412 66.2617ZM174.703 63.1084C169.421 62.7684 166.35 59.7487 165.536 54.0966C165.319 52.5931 165.318 52.554 165.296 42.793L165.275 33.3459H167.612H169.95L169.968 42.4837C169.985 50.7193 169.995 51.6849 170.074 52.2642C170.392 54.6155 171.025 56.1966 172.104 57.3316C172.967 58.2399 173.978 58.7717 175.377 59.0539C176.037 59.187 177.915 59.1873 178.517 59.0544C179.935 58.7411 181.072 58.1214 182.074 57.1149C183.217 55.9677 184.063 54.3401 184.472 52.4996L184.61 51.8793L184.625 42.6642L184.641 33.4492H187.027H189.414V47.9355V62.4218H187.052H184.69V60.1235C184.69 58.5618 184.673 57.8308 184.637 57.8429C184.607 57.8526 184.486 58.039 184.367 58.2569C183.553 59.7473 182.197 61.1102 180.711 61.9313C178.93 62.9156 177.144 63.2655 174.703 63.1084ZM228.313 63.085C226.448 62.9442 224.485 62.3007 222.881 61.3041C219.499 59.2037 217.498 55.7416 216.912 50.977C216.709 49.3283 216.685 47.1137 216.854 45.7127C217.232 42.5824 218.457 39.5094 220.202 37.3155C220.649 36.7531 221.663 35.7344 222.223 35.2854C223.736 34.0729 225.505 33.225 227.384 32.8124C228.478 32.572 230.406 32.4591 231.568 32.5673C234.489 32.8391 237.167 34.22 238.986 36.3935C240.835 38.6016 241.851 41.6872 241.981 45.4866C242.001 46.0821 242.006 47.126 241.992 47.8065L241.966 49.0438L231.735 49.0568L221.505 49.0698V49.5282C221.505 50.9236 221.843 52.5129 222.427 53.8652C222.93 55.0313 223.798 56.3046 224.507 56.9209C225.963 58.1843 227.745 58.9406 229.694 59.1226C230.417 59.1901 232.259 59.119 233.083 58.992C235.433 58.6293 237.668 57.7038 239.472 56.3455C239.684 56.1857 239.888 56.0364 239.924 56.0137C239.976 55.9805 239.989 56.3981 239.987 58.1532L239.986 60.3338L239.502 60.6341C237.461 61.9016 235.123 62.7155 232.647 63.0202C231.908 63.1111 229.196 63.1516 228.313 63.085ZM237.216 44.693C237.216 42.3556 236.235 39.759 234.847 38.422C233.856 37.4678 232.658 36.8846 231.235 36.6632C230.561 36.5584 229.141 36.5988 228.431 36.7429C226.93 37.0475 225.688 37.7102 224.605 38.7848C223.465 39.9157 222.61 41.2894 222.073 42.8544C221.879 43.4172 221.653 44.3412 221.583 44.8551L221.55 45.1H229.383H237.216V44.693ZM98.4402 62.3573C98.4522 62.3219 101.926 53.1584 106.16 41.9941L113.859 21.6953L116.332 21.6952L118.806 21.695L119.011 22.2235C119.638 23.8383 134.423 62.3777 134.423 62.3977C134.423 62.4109 133.238 62.4216 131.791 62.4214L129.16 62.4208L127.029 56.7247L124.898 51.0286L116.318 51.0285L107.739 51.0284L107.664 51.2217C107.623 51.3281 106.713 53.8911 105.641 56.9174L103.692 62.4198L101.055 62.4207C98.9681 62.4214 98.4229 62.4083 98.4402 62.3573ZM123.332 46.6817C123.332 46.6727 121.898 42.7695 120.145 38.0079C116.866 29.0999 116.683 28.564 116.424 27.1338C116.303 26.4632 116.241 26.4446 116.169 27.0565C116.117 27.4939 115.894 28.4726 115.722 29.0155C115.636 29.2849 114.16 33.3538 112.44 38.0576C110.721 42.7614 109.315 46.6298 109.315 46.654C109.315 46.6783 112.469 46.6981 116.323 46.6981C120.178 46.6981 123.332 46.6907 123.332 46.6817ZM136.014 61.6799V60.938L144.562 49.1397L153.11 37.3413L145.371 37.3155L137.632 37.2897L137.618 35.3178L137.605 33.3459H148.799H159.993V34.012V34.678L151.444 46.5407C146.742 53.0652 142.895 58.4144 142.895 58.4278C142.895 58.4412 146.695 58.4522 151.341 58.4522H159.787V60.437V62.4217H147.901H136.014V61.6799ZM198.741 62.3874C198.723 62.3685 198.707 55.8264 198.707 47.8495V33.3459H201.043H203.38V36.336C203.38 37.9805 203.4 39.3261 203.424 39.3261C203.448 39.3261 203.562 39.0569 203.677 38.7279C204.202 37.2202 205.113 35.8114 206.286 34.6918C207.344 33.6832 208.552 33.08 209.978 32.8492C210.378 32.7843 210.717 32.772 211.518 32.7929C212.524 32.8192 213.05 32.893 213.662 33.0938L213.854 33.157V35.5918V38.0266L213.302 37.7491C212.327 37.2591 211.365 37.0652 210.209 37.1256C209.456 37.1649 208.962 37.2619 208.36 37.4886C207.122 37.9552 206.118 38.7786 205.416 39.9027C204.4 41.5299 203.676 43.6216 203.462 45.544C203.424 45.889 203.401 48.6987 203.392 54.2377L203.379 62.4217H201.077C199.811 62.4217 198.76 62.4063 198.741 62.3874ZM0 62.2855C0 62.2672 5.14444 53.3008 11.4321 42.3602L22.8641 22.4683L36.1869 11.2427C43.5144 5.06856 49.5294 0.00948015 49.5535 0.00025361C49.5776 -0.0089711 49.4812 0.234615 49.3393 0.541558C49.1974 0.848502 42.6874 14.8681 34.8727 31.6962L20.6641 62.2929L10.332 62.3059C4.64942 62.313 0 62.3039 0 62.2855Z"
            fill="#0089D6" />
    </g>
    <defs>
        <clipPath id="clip0_2655_2321">
            <rect width="242" height="70" fill="white" />
        </clipPath>
    </defs>
</svg>