<svg width="469" height="70" viewBox="0 0 469 70" fill="none" xmlns="http://www.w3.org/2000/svg">
    <g clip-path="url(#clip0_2643_2472)">
        <path
            d="M56.6142 19.2048H59.2053L66.5901 11.8159L66.9529 8.67884C62.7224 4.9428 57.6099 2.3475 52.0982 1.13811C46.5865 -0.0712824 40.8577 0.145158 35.4528 1.76698C30.048 3.38881 25.1456 6.36248 21.2088 10.4071C17.2719 14.4517 14.4306 19.4337 12.9531 24.8825C13.7758 24.5451 14.6872 24.4904 15.5443 24.727L30.3139 22.29C30.3139 22.29 31.0653 21.0455 31.454 21.1233C34.6187 17.6458 38.9921 15.5101 43.6791 15.1534C48.3661 14.7967 53.0121 16.2461 56.666 19.2048H56.6142Z"
            fill="#EA4335" />
        <path
            d="M77.1214 24.8887C75.424 18.6344 71.9389 13.0119 67.0936 8.71094L56.729 19.0813C58.8891 20.8473 60.6202 23.081 61.7917 25.614C62.9632 28.1469 63.5446 30.913 63.4919 33.7035V35.5443C64.7033 35.5443 65.9028 35.783 67.022 36.2468C68.1412 36.7107 69.1581 37.3905 70.0146 38.2476C70.8712 39.1046 71.5507 40.1221 72.0143 41.2419C72.4778 42.3617 72.7164 43.5618 72.7164 44.7739C72.7164 45.986 72.4778 47.1861 72.0143 48.3059C71.5507 49.4257 70.8712 50.4432 70.0146 51.3002C69.1581 52.1573 68.1412 52.8371 67.022 53.301C65.9028 53.7648 64.7033 54.0035 63.4919 54.0035H45.0428L43.2031 55.8702V66.9406L45.0428 68.7813H63.4919C68.6437 68.8214 73.6717 67.2014 77.8319 64.1607C81.9922 61.1201 85.0638 56.8204 86.5924 51.8976C88.121 46.9749 88.0254 41.6906 86.3197 36.8265C84.6141 31.9624 81.3889 27.7767 77.1214 24.8887Z"
            fill="#4285F4" />
        <path
            d="M26.5471 68.6777H44.9961V53.8999H26.5471C25.2327 53.8997 23.9337 53.6167 22.7381 53.0703L20.1469 53.874L12.7103 61.2629L12.0625 63.8555C16.2328 67.0063 21.3214 68.7004 26.5471 68.6777Z"
            fill="#34A853" />
        <path
            d="M26.5618 20.7423C21.5629 20.7722 16.6983 22.3635 12.6472 25.2939C8.59614 28.2243 5.56097 32.3475 3.96563 37.0876C2.37029 41.8278 2.29445 46.9481 3.7487 51.7334C5.20295 56.5187 8.11467 60.7301 12.0772 63.7794L22.7787 53.072C21.4187 52.4572 20.2282 51.5215 19.3091 50.3452C18.39 49.1688 17.7699 47.7869 17.502 46.3181C17.2341 44.8492 17.3263 43.3373 17.7708 41.9119C18.2152 40.4866 18.9987 39.1904 20.0539 38.1346C21.1091 37.0788 22.4046 36.2949 23.8291 35.8502C25.2537 35.4055 26.7648 35.3132 28.2329 35.5813C29.7009 35.8494 31.082 36.4698 32.2577 37.3894C33.4334 38.3089 34.3686 39.5002 34.983 40.8609L45.6845 30.1535C43.4384 27.2154 40.5434 24.8371 37.226 23.2045C33.9086 21.5718 30.2587 20.7292 26.5618 20.7423Z"
            fill="#FBBC05" />
        <path
            d="M136.797 58.3581C133.62 58.3986 130.468 57.7972 127.53 56.5899C124.591 55.3827 121.926 53.5944 119.695 51.3322C117.393 49.166 115.567 46.5448 114.331 43.6349C113.096 40.725 112.478 37.5899 112.517 34.4285C112.479 31.2673 113.098 28.1327 114.333 25.223C115.569 22.3133 117.395 19.692 119.695 17.5248C121.915 15.2391 124.575 13.4269 127.514 12.1971C130.453 10.9674 133.611 10.3456 136.797 10.3692C139.832 10.3287 142.845 10.8924 145.661 12.0273C148.477 13.1622 151.039 14.8459 153.199 16.9803L148.586 21.6729C145.428 18.6187 141.189 16.9408 136.797 17.0063C134.518 16.9783 132.259 17.4248 130.162 18.3174C128.066 19.2101 126.178 20.5294 124.618 22.1914C122.997 23.8003 121.719 25.7208 120.859 27.8372C120 29.9536 119.577 32.2222 119.617 34.5063C119.598 36.7643 120.031 39.0033 120.89 41.0915C121.749 43.1797 123.016 45.0749 124.618 46.6655C127.827 49.865 132.157 51.6851 136.687 51.7384C141.217 51.7917 145.588 50.0739 148.871 46.9507C150.904 44.7237 152.151 41.8914 152.421 38.8877H136.874V32.2507H158.873C159.089 33.5874 159.176 34.9418 159.132 36.2951C159.269 39.0962 158.837 41.8959 157.862 44.5251C156.886 47.1542 155.388 49.5581 153.458 51.5914C151.312 53.8272 148.719 55.5853 145.848 56.7512C142.977 57.9171 139.893 58.4647 136.797 58.3581ZM187.946 53.9507C184.994 56.7823 181.062 58.3632 176.973 58.3632C172.883 58.3632 168.951 56.7823 165.999 53.9507C164.529 52.5251 163.372 50.8095 162.601 48.9127C161.829 47.0159 161.46 44.9793 161.516 42.9322C161.461 40.8852 161.831 38.8491 162.603 36.9526C163.374 35.056 164.531 33.3402 165.999 31.9137C168.954 29.088 172.885 27.5112 176.973 27.5112C181.06 27.5112 184.991 29.088 187.946 31.9137C189.414 33.3402 190.571 35.056 191.342 36.9526C192.114 38.8491 192.484 40.8852 192.429 42.9322C192.482 44.9812 192.109 47.019 191.333 48.9159C190.556 50.8128 189.394 52.5274 187.92 53.9507H187.946ZM170.844 49.6211C171.63 50.4602 172.579 51.1291 173.633 51.5863C174.687 52.0436 175.824 52.2796 176.973 52.2796C178.121 52.2796 179.258 52.0436 180.312 51.5863C181.366 51.1291 182.315 50.4602 183.101 49.6211C183.957 48.7356 184.627 47.6876 185.072 46.5388C185.517 45.39 185.728 44.1637 185.692 42.9322C185.73 41.6965 185.52 40.4657 185.075 39.3124C184.63 38.1591 183.959 37.1068 183.101 36.2174C182.305 35.3869 181.35 34.726 180.292 34.2746C179.234 33.8231 178.096 33.5904 176.947 33.5904C175.797 33.5904 174.659 33.8231 173.601 34.2746C172.544 34.726 171.588 35.3869 170.793 36.2174C169.934 37.1068 169.263 38.1591 168.818 39.3124C168.373 40.4657 168.163 41.6965 168.201 42.9322C168.169 44.1655 168.383 45.3929 168.833 46.5418C169.282 47.6907 169.958 48.7378 170.819 49.6211H170.844ZM221.683 53.9507C218.731 56.7823 214.799 58.3632 210.709 58.3632C206.62 58.3632 202.688 56.7823 199.736 53.9507C198.266 52.5251 197.109 50.8095 196.337 48.9127C195.566 47.0159 195.197 44.9793 195.253 42.9322C195.198 40.8852 195.568 38.8491 196.34 36.9526C197.111 35.056 198.268 33.3402 199.736 31.9137C202.688 29.0821 206.62 27.5012 210.709 27.5012C214.799 27.5012 218.731 29.0821 221.683 31.9137C223.151 33.3402 224.308 35.056 225.079 36.9526C225.851 38.8491 226.221 40.8852 226.166 42.9322C226.222 44.9793 225.853 47.0159 225.081 48.9127C224.31 50.8095 223.152 52.5251 221.683 53.9507ZM204.581 49.6211C205.367 50.4602 206.316 51.1291 207.37 51.5863C208.424 52.0436 209.561 52.2796 210.709 52.2796C211.858 52.2796 212.995 52.0436 214.049 51.5863C215.103 51.1291 216.052 50.4602 216.838 49.6211C217.694 48.7356 218.364 47.6876 218.809 46.5388C219.254 45.39 219.465 44.1637 219.429 42.9322C219.467 41.6965 219.257 40.4657 218.812 39.3124C218.367 38.1591 217.696 37.1068 216.838 36.2174C216.042 35.3869 215.086 34.726 214.029 34.2746C212.971 33.8231 211.833 33.5904 210.684 33.5904C209.534 33.5904 208.396 33.8231 207.338 34.2746C206.281 34.726 205.325 35.3869 204.53 36.2174C203.671 37.1068 203 38.1591 202.555 39.3124C202.11 40.4657 201.9 41.6965 201.938 42.9322C201.906 44.1655 202.12 45.3929 202.57 46.5418C203.019 47.6907 203.695 48.7378 204.555 49.6211H204.581ZM243.863 72.2026C240.758 72.3014 237.712 71.3314 235.235 69.4544C233.035 67.8 231.303 65.6023 230.208 63.0766L236.116 60.6137C236.759 62.1231 237.765 63.4501 239.044 64.4766C240.413 65.581 242.131 66.1602 243.889 66.11C245.004 66.1778 246.12 66.0045 247.162 65.6019C248.204 65.1992 249.147 64.5767 249.927 63.7766C251.488 61.8925 252.259 59.4765 252.077 57.0359V54.8063H251.844C250.857 55.9797 249.61 56.9069 248.202 57.5144C246.794 58.1219 245.264 58.393 243.734 58.3063C241.788 58.3121 239.863 57.9143 238.079 57.1378C236.295 56.3614 234.691 55.2232 233.369 53.7952C231.935 52.3785 230.802 50.6853 230.041 48.8182C229.279 46.951 228.904 44.9486 228.938 42.9322C228.902 40.904 229.276 38.8895 230.038 37.0094C230.799 35.1294 231.932 33.4226 233.369 31.9914C234.688 30.5575 236.29 29.4136 238.075 28.6325C239.859 27.8514 241.786 27.4502 243.734 27.4544C245.382 27.4515 247.01 27.8146 248.501 28.5174C249.791 29.081 250.941 29.9219 251.87 30.9803H252.103V28.5174H258.529V56.1285C258.698 58.3127 258.42 60.5085 257.712 62.5814C257.003 64.6543 255.88 66.5608 254.409 68.184C253.009 69.5246 251.354 70.5709 249.543 71.2611C247.731 71.9513 245.8 72.2714 243.863 72.2026ZM244.33 52.2915C245.436 52.3158 246.534 52.0961 247.546 51.6481C248.559 51.2 249.46 50.5345 250.186 49.6989C251.784 47.8657 252.627 45.4933 252.544 43.0618C252.64 40.5893 251.797 38.172 250.186 36.2951C249.461 35.4581 248.56 34.7917 247.548 34.3435C246.535 33.8953 245.436 33.6764 244.33 33.7026C243.193 33.6792 242.064 33.8983 241.019 34.3454C239.973 34.7924 239.035 35.4571 238.266 36.2951C236.552 38.1045 235.621 40.5176 235.675 43.01C235.649 44.2325 235.864 45.4482 236.309 46.5872C236.754 47.7262 237.419 48.766 238.266 49.647C239.032 50.4932 239.968 51.1667 241.013 51.6226C242.059 52.0786 243.189 52.3066 244.33 52.2915ZM269.956 12.1063V57.4248H263.193V12.1063H269.956ZM288.509 58.3581C286.484 58.4102 284.469 58.0433 282.592 57.2805C280.715 56.5176 279.016 55.3752 277.6 53.9248C276.164 52.485 275.035 50.7681 274.282 48.8785C273.53 46.9888 273.169 44.9657 273.221 42.9322C273.145 40.8936 273.479 38.8605 274.205 36.9541C274.93 35.0477 276.032 33.307 277.445 31.8359C278.776 30.4319 280.385 29.3216 282.17 28.576C283.955 27.8304 285.876 27.4661 287.809 27.5063C289.588 27.4875 291.351 27.8315 292.992 28.5174C294.47 29.1143 295.817 29.995 296.956 31.11C297.935 32.0551 298.804 33.1074 299.547 34.247C300.149 35.2092 300.66 36.2245 301.076 37.2803L301.776 39.0433L281.046 47.5729C281.673 49.0142 282.722 50.2315 284.054 51.0646C285.386 51.8976 286.939 52.3073 288.509 52.2396C290.036 52.2438 291.538 51.8519 292.869 51.1022C294.199 50.3524 295.313 49.2705 296.101 47.9618L301.283 51.4618C299.961 53.355 298.268 54.9601 296.308 56.1803C293.977 57.6539 291.266 58.411 288.509 58.3581ZM279.855 42.4655L293.639 36.7359C293.215 35.7256 292.455 34.8925 291.489 34.3766C290.407 33.7652 289.182 33.452 287.939 33.4692C285.83 33.5239 283.828 34.409 282.368 35.9322C281.494 36.7689 280.816 37.7883 280.381 38.9177C279.947 40.0471 279.767 41.2585 279.855 42.4655Z"
            fill="#5F6368" />
        <path
            d="M337.196 58.3612C334.32 58.4109 331.464 57.8785 328.798 56.7961C326.133 55.7137 323.713 54.1035 321.685 52.0623C319.657 50.0211 318.062 47.5909 316.997 44.9176C315.931 42.2443 315.416 39.383 315.482 36.5056C315.416 33.6282 315.931 30.767 316.997 28.0937C318.062 25.4204 319.657 22.9902 321.685 20.949C323.713 18.9077 326.133 17.2976 328.798 16.2152C331.464 15.1327 334.32 14.6004 337.196 14.6501C340.107 14.559 343.001 15.1273 345.662 16.3125C348.323 17.4977 350.681 19.2691 352.562 21.4945L348.831 25.1241C347.45 23.3868 345.679 22 343.662 21.0765C341.645 20.153 339.439 19.7188 337.222 19.8093C335.089 19.7612 332.967 20.1453 330.986 20.9383C329.004 21.7313 327.203 22.917 325.691 24.4241C324.12 26.0057 322.892 27.8953 322.084 29.9744C321.277 32.0535 320.909 34.2771 321.001 36.5056C320.909 38.7341 321.277 40.9577 322.084 43.0368C322.892 45.1159 324.12 47.0056 325.691 48.5871C327.203 50.0942 329.004 51.2799 330.986 52.073C332.967 52.866 335.089 53.25 337.222 53.2019C339.698 53.2297 342.149 52.6987 344.392 51.6484C346.635 50.5981 348.613 49.0555 350.178 47.1353L353.909 50.8686C351.956 53.206 349.503 55.0754 346.732 56.339C343.745 57.7188 340.486 58.4099 337.196 58.3612Z"
            fill="#5F6368" />
        <path d="M363.934 57.4251H358.57V15.5547H363.934V57.4251Z" fill="#5F6368" />
        <path
            d="M372.684 32.2273C375.495 29.4345 379.295 27.8672 383.256 27.8672C387.217 27.8672 391.017 29.4345 393.828 32.2273C395.202 33.6792 396.276 35.3887 396.988 37.2575C397.699 39.1262 398.034 41.1173 397.974 43.1162C398.034 45.115 397.699 47.1061 396.988 48.9749C396.276 50.8436 395.202 52.5532 393.828 54.0051C391.017 56.7978 387.217 58.3652 383.256 58.3652C379.295 58.3652 375.495 56.7978 372.684 54.0051C371.31 52.5532 370.236 50.8436 369.524 48.9749C368.813 47.1061 368.478 45.115 368.538 43.1162C368.478 41.1173 368.813 39.1262 369.524 37.2575C370.236 35.3887 371.31 33.6792 372.684 32.2273ZM376.674 50.6347C377.52 51.5283 378.538 52.2401 379.667 52.7266C380.797 53.213 382.013 53.4639 383.243 53.4639C384.473 53.4639 385.689 53.213 386.819 52.7266C387.948 52.2401 388.967 51.5283 389.812 50.6347C390.749 49.6282 391.477 48.445 391.953 47.1542C392.429 45.8634 392.644 44.4907 392.584 43.1162C392.644 41.7416 392.429 40.3689 391.953 39.0781C391.477 37.7873 390.749 36.6042 389.812 35.5977C388.967 34.704 387.948 33.9922 386.819 33.5058C385.689 33.0193 384.473 32.7684 383.243 32.7684C382.013 32.7684 380.797 33.0193 379.667 33.5058C378.538 33.9922 377.52 34.704 376.674 35.5977C375.737 36.6042 375.009 37.7873 374.533 39.0781C374.057 40.3689 373.842 41.7416 373.902 43.1162C373.849 44.4882 374.07 45.8571 374.55 47.1433C375.031 48.4295 375.761 49.6074 376.7 50.6088L376.674 50.6347Z"
            fill="#5F6368" />
        <path
            d="M427.698 57.4269H422.515V53.4602H422.36C421.438 54.9668 420.132 56.2014 418.577 57.038C416.963 57.9739 415.13 58.4658 413.265 58.4639C411.75 58.5676 410.232 58.3277 408.823 57.762C407.414 57.1964 406.151 56.3197 405.129 55.1973C403.166 52.7132 402.18 49.5961 402.356 46.4343V28.8047H407.72V45.4491C407.72 50.7899 410.078 53.4602 414.794 53.4602C415.842 53.4929 416.882 53.2747 417.828 52.8238C418.775 52.3728 419.6 51.7022 420.235 50.8677C421.625 49.1048 422.367 46.9167 422.334 44.6714V28.8047H427.698V57.4269Z"
            fill="#5F6368" />
        <path
            d="M445.906 58.3584C444.087 58.3644 442.287 57.9759 440.632 57.2195C438.977 56.4631 437.506 55.3569 436.319 53.9769C433.633 51.0082 432.194 47.1172 432.303 43.1139C432.194 39.1107 433.633 35.2197 436.319 32.251C437.506 30.871 438.977 29.7648 440.632 29.0084C442.287 28.252 444.087 27.8635 445.906 27.8695C447.945 27.8373 449.959 28.3187 451.762 29.2695C453.347 30.0675 454.689 31.2762 455.649 32.7695H455.882L455.649 28.8028V15.5547H461.013V57.4251H455.83V53.4584H455.597C454.638 54.9517 453.295 56.1604 451.71 56.9584C449.922 57.9007 447.927 58.3819 445.906 58.3584ZM446.787 53.4584C448 53.4761 449.202 53.2355 450.314 52.7528C451.427 52.2701 452.424 51.5561 453.239 50.6584C455.061 48.5826 455.992 45.8719 455.83 43.1139C455.992 40.356 455.061 37.6453 453.239 35.5695C452.418 34.6669 451.418 33.9458 450.303 33.4523C449.187 32.9589 447.981 32.704 446.761 32.704C445.542 32.704 444.335 32.9589 443.22 33.4523C442.104 33.9458 441.104 34.6669 440.283 35.5695C439.378 36.5905 438.683 37.7802 438.239 39.0704C437.794 40.3605 437.608 41.7259 437.692 43.088C437.608 44.4502 437.794 45.8155 438.239 47.1057C438.683 48.3959 439.378 49.5856 440.283 50.6065C441.1 51.5203 442.103 52.2479 443.225 52.7399C444.348 53.2319 445.562 53.477 446.787 53.4584Z"
            fill="#5F6368" />
    </g>
    <defs>
        <clipPath id="clip0_2643_2472">
            <rect width="469" height="70" fill="white" />
        </clipPath>
    </defs>
</svg>