<svg width="49" height="70" viewBox="0 0 49 70" fill="none" xmlns="http://www.w3.org/2000/svg">
    <g clip-path="url(#clip0_2643_2319)">
        <path d="M49 13.7578L44.536 64.371L24.47 70.0012L4.4593 64.3789L0 13.7578H49Z" fill="#264DE4" />
        <path d="M40.7143 61.1497L44.5291 17.8984H24.5V65.6993L40.7143 61.1497Z" fill="#2965F1" />
        <path d="M10.2266 36.6719L10.7764 42.8803H24.5037V36.6719H10.2266Z" fill="#EBEBEB" />
        <path d="M24.4991 24.1016H24.4779H9.11719L9.67482 30.3101H24.4991V24.1016Z" fill="#EBEBEB" />
        <path
            d="M24.5001 59.2551V52.7957L24.4733 52.8029L17.6415 50.9359L17.2047 45.9844H13.885H11.0469L11.9063 55.7326L24.4719 59.263L24.5001 59.2551Z"
            fill="#EBEBEB" />
        <path d="M11.5312 0H18.9609V3.14453H14.6382V6.28906H18.9609V9.43359H11.5312V0Z" fill="black" />
        <path d="M20.4453 0H27.875V2.73438H23.5523V3.28125H27.875V9.57031H20.4453V6.69922H24.768V6.15234H20.4453V0Z"
            fill="black" />
        <path d="M29.3594 0H36.7891V2.73438H32.4663V3.28125H36.7891V9.57031H29.3594V6.69922H33.6821V6.15234H29.3594V0Z"
            fill="black" />
        <path
            d="M32.0303 42.8761L31.3182 50.928L24.4766 52.7969V59.2561L37.0522 55.7286L37.1444 54.6797L38.5859 38.3348L38.7356 36.6677L39.843 24.1016H24.4766V30.3101H33.1204L32.5622 36.6677H24.4766V42.8761H32.0303Z"
            fill="white" />
    </g>
    <defs>
        <clipPath id="clip0_2643_2319">
            <rect width="49" height="70" fill="white" />
        </clipPath>
    </defs>
</svg>