<svg width="254" height="70" viewBox="0 0 254 70" fill="none" xmlns="http://www.w3.org/2000/svg">
    <path
        d="M36.3255 0.0238637L58.0927 0L21.5732 36.3125L12.0555 45.728L1.22656 34.9417L36.3255 0.0238637ZM36.1229 32.4466C36.4054 32.0754 36.9252 32.2583 37.3196 32.2106L58.0741 32.2159L39.1587 51.0152L28.2737 40.2527L36.1229 32.4466Z"
        fill="#44D1FD" />
    <path opacity="0.54"
        d="M88.6833 15.1719L112.412 15.1798L112.409 19.8279C106.202 19.8279 99.992 19.8094 93.7819 19.8359C93.3075 19.9923 93.5314 20.5836 93.4781 20.9469L93.4967 33.4488C93.654 33.9181 94.251 33.6927 94.6188 33.751L110.546 33.7431V38.3859C105.594 38.3832 100.645 38.3832 95.6929 38.3859C94.9573 38.3832 94.2137 38.3382 93.4861 38.4628L93.4301 56.1113C91.8336 56.0476 90.2398 56.106 88.6433 56.0715L88.6406 15.9223L88.6833 15.1719ZM118.166 15.1798H123.039L123.041 42.9571L122.988 56.037C121.402 56.0079 119.816 55.9999 118.233 56.0423C118.11 55.3954 118.161 54.7378 118.161 54.0855L118.166 15.1798ZM165.853 18.6241L170.742 18.6268L170.75 26.8465C173.14 26.9048 175.544 26.7404 177.93 26.9287C177.863 28.4029 177.919 29.8772 177.892 31.3514C175.515 31.3567 173.14 31.3753 170.766 31.3408L170.747 47.7113C170.798 49.2279 171.123 51.0601 172.605 51.8423C174.297 52.7995 176.376 52.3488 177.978 51.426V56.1882C176.213 56.9836 174.201 57.0791 172.306 56.8219C169.635 56.4162 167.077 54.6052 166.269 51.9723C165.733 50.5298 165.856 48.9734 165.845 47.4673L165.835 31.5238L165.715 31.3885C164.028 31.2984 162.335 31.4018 160.645 31.3435C160.656 29.8427 160.587 28.342 160.683 26.8438C162.399 26.8147 164.124 26.9207 165.837 26.7908L165.853 18.6241ZM186.504 18.6082C188.13 18.6639 189.756 18.5897 191.379 18.6454L191.491 18.7673C191.552 21.4666 191.408 24.1738 191.555 26.8677C193.871 26.8253 196.187 26.8598 198.5 26.8465L198.516 31.3169C196.187 31.4044 193.849 31.3514 191.52 31.3382L191.493 47.9923C191.491 49.4427 191.912 51.1582 193.322 51.8715C195.051 52.8101 197.149 52.3276 198.756 51.3677L198.751 56.1563C197.037 56.9253 195.105 57.0738 193.255 56.8616C190.854 56.5435 188.503 55.1938 187.375 53.0063C186.832 51.8609 186.528 50.5935 186.477 49.3287V31.3567C184.79 31.3541 183.106 31.362 181.421 31.3567L181.432 26.8306C183.092 26.8757 184.753 26.8173 186.413 26.873C186.589 24.126 186.4 21.3605 186.504 18.6082ZM210.23 27.0003C213.604 25.6082 217.498 25.5817 220.945 26.7484C224.892 28.1033 227.946 31.5291 229.066 35.5037C229.799 37.7071 229.769 40.0484 229.665 42.3393L206.464 42.3632C206.656 44.8211 207.394 47.3268 209.111 49.1723C211.549 52.0014 215.747 53.0514 219.292 51.9404C221.779 51.2113 223.719 49.3075 224.996 47.12C226.408 47.7484 227.781 48.4643 229.188 49.1086C227.264 52.7571 223.764 55.6552 219.652 56.4401C216.275 57.0685 212.581 57.0844 209.484 55.4245C205.465 53.4385 202.698 49.395 201.909 45.0465C201.336 41.7056 201.515 38.1711 202.778 34.9999C204.103 31.5185 206.781 28.5037 210.23 27.0003ZM212.066 31.1923C209.228 32.4969 207.4 35.395 206.829 38.3859L224.623 38.3302C224.34 36.376 223.642 34.3901 222.203 32.9768C219.681 30.2882 215.371 29.7632 212.066 31.1923ZM240.228 31.5768C242.085 27.0878 247.792 24.7306 252.304 26.6105V31.8499C250.409 31.1075 248.285 30.6488 246.283 31.2348C243.549 32.0435 241.526 34.4696 240.75 37.1397C240.217 38.9427 240.417 40.8253 240.438 42.6734C240.23 45.0651 240.542 47.4594 240.385 49.851C240.513 51.9166 240.273 53.9821 240.449 56.0503C238.791 56.1298 237.133 56.045 235.478 56.1007C235.382 49.867 235.465 43.6306 235.438 37.3942L235.476 26.8969C237.029 26.9393 238.586 26.8916 240.142 26.9287C240.284 28.4772 239.969 30.0336 240.228 31.5768ZM130.027 26.8385C131.679 26.9075 133.345 26.7404 134.99 26.926L134.966 44.3041C134.95 46.4279 135.253 48.748 136.73 50.3973C138.636 52.4973 141.863 52.8817 144.47 52.0518C147.953 50.8109 150.384 47.1412 150.243 43.4715L150.296 26.8385L155.272 26.8491L155.243 56.0291C153.665 56.0026 152.09 56.0291 150.515 56.0105L150.496 51.8582C149.475 53.1336 148.404 54.4249 146.941 55.2283C143.945 57.1082 140.144 57.3575 136.789 56.395C134.624 55.7454 132.74 54.2366 131.655 52.2639C130.368 50.095 130.043 47.531 129.968 45.0597L130.027 26.8385Z"
        fill="black" />
    <path d="M17.4219 51.0311L28.2722 40.25L39.1571 51.0125L39.2024 51.0602L28.2748 61.8307L17.4219 51.0311Z"
        fill="#1FBCFD" />
    <path
        d="M28.2734 61.833L39.201 51.0625L58.0791 69.8617C50.9682 69.8777 43.8599 69.8564 36.7517 69.8723C36.3465 69.9625 36.096 69.5939 35.8375 69.3659L28.2734 61.833Z"
        fill="#08589C" />
</svg>