<svg width="308" height="70" viewBox="0 0 308 70" fill="none" xmlns="http://www.w3.org/2000/svg">
    <g clip-path="url(#clip0_2643_2426)">
        <path fill-rule="evenodd" clip-rule="evenodd"
            d="M253.288 70.2266C259.121 70.2266 264.953 70.2266 270.786 70.2266C271.508 66.9634 272.231 63.7007 272.953 60.4378C277.947 60.4378 283.102 60.4698 288.096 60.4698C290.535 60.4698 292.694 59.7179 294.612 58.4312C296.926 56.8782 298.655 54.4986 299.304 51.5627C300.402 46.5965 301.507 41.6312 302.611 36.6664C303.241 33.8319 304.06 30.6311 302.013 28.071C300.13 25.7154 297.631 25.5323 294.887 25.5323C275.131 25.5538 255.375 25.5318 235.618 25.5318C233.624 25.5318 231.954 26.1721 230.21 27.0645C228.575 25.9166 227.099 25.5318 225.094 25.5318C216.056 25.5318 207.016 25.5318 197.977 25.5318C198.718 22.2239 199.458 18.9162 200.198 15.6085C194.357 15.6085 188.515 15.6085 182.673 15.6085C181.951 18.8356 181.229 22.0626 180.506 25.2896C175.369 25.2896 170.231 25.2896 165.094 25.2896C162.965 25.2896 160.92 25.9528 159.135 27.0914C157.404 26.0226 156.07 25.5585 154.02 25.5585C137.062 25.5585 120.105 25.5585 103.147 25.5585C103.923 22.2062 104.7 18.8535 105.476 15.5008C99.6438 15.492 93.8112 15.4831 87.9784 15.4741C84.6158 30.4061 81.2532 45.3381 77.8906 60.2699C83.7178 60.2715 89.5449 60.2731 95.3718 60.2748C97.1248 52.633 98.8775 44.991 100.63 37.349C102.602 37.349 104.573 37.349 106.546 37.349C107.25 37.349 107.111 37.7471 106.993 38.2732C105.335 45.607 103.677 52.9411 102.019 60.2748C140.65 60.2748 179.281 60.2749 217.913 60.2749C219.88 60.2749 221.418 59.8712 223.189 58.975C224.933 60.1322 226.474 60.5166 228.606 60.4983L255.448 60.2748C254.728 63.592 254.008 66.9093 253.288 70.2266ZM177.595 37.381C175.876 37.381 174.156 37.381 172.437 37.381C171.532 37.381 171.288 37.7907 171.108 38.5962C170.462 41.4722 169.816 44.3487 169.17 47.2244C168.986 48.0511 169.407 48.1862 170.136 48.1862C171.81 48.1862 173.483 48.1862 175.157 48.1862C175.97 44.5845 176.783 40.9829 177.595 37.381ZM207.188 37.5895C209.024 37.5895 210.861 37.5895 212.698 37.5895C213.758 37.5895 213.7 38.1416 213.509 38.9944C212.878 41.8115 212.247 44.6291 211.616 47.4463C211.396 48.4301 210.779 48.4133 209.927 48.4133C208.058 48.4133 206.189 48.4133 204.32 48.4133C203.496 48.4133 203.489 47.9298 203.636 47.2686C204.264 44.452 204.893 41.6351 205.521 38.8184C205.753 37.7747 206.167 37.5895 207.188 37.5895ZM243.461 37.5895C245.297 37.5895 247.134 37.5895 248.971 37.5895C250.031 37.5895 249.973 38.1416 249.782 38.9944C249.151 41.8115 248.52 44.6291 247.889 47.4463C247.669 48.4301 247.052 48.4133 246.2 48.4133C244.331 48.4133 242.462 48.4133 240.593 48.4133C239.769 48.4133 239.762 47.9298 239.908 47.2686C240.537 44.452 241.166 41.6351 241.794 38.8184C242.026 37.7747 242.44 37.5895 243.461 37.5895ZM275.808 48.4944C277.527 48.4944 279.247 48.4944 280.967 48.4944C281.872 48.4944 282.116 48.0847 282.296 47.2792C282.941 44.4032 283.587 41.5267 284.233 38.651C284.417 37.8243 283.996 37.6892 283.267 37.6892C281.594 37.6892 279.92 37.6892 278.246 37.6892C277.434 41.2909 276.621 44.8926 275.808 48.4944Z"
            fill="black" />
        <path fill-rule="evenodd" clip-rule="evenodd"
            d="M203.152 28.0453H225.131C228.561 28.0453 230.745 30.8318 229.985 34.2364L226.069 51.7856C225.31 55.1904 221.882 57.9766 218.452 57.9766H196.474C193.045 57.9766 190.86 55.1908 191.62 51.7856L195.535 34.2364C196.295 30.831 199.723 28.0453 203.152 28.0453ZM207.136 35.0909H218.003C219.819 35.0909 220.974 36.5654 220.572 38.3667L218.5 47.6555C218.098 49.4567 216.284 50.9311 214.469 50.9311H203.602C201.787 50.9311 200.631 49.457 201.033 47.6555L203.105 38.3667C203.507 36.5647 205.321 35.0909 207.136 35.0909Z"
            fill="#1F1917" />
        <path fill-rule="evenodd" clip-rule="evenodd"
            d="M239.379 28.0453H261.358C264.788 28.0453 266.972 30.8318 266.212 34.2364L262.297 51.7856C261.537 55.1904 258.109 57.9766 254.679 57.9766H232.701C229.271 57.9766 227.086 55.1908 227.846 51.7856L231.762 34.2364C232.522 30.831 235.949 28.0453 239.379 28.0453ZM243.363 35.0909H254.23C256.046 35.0909 257.201 36.5654 256.799 38.3667L254.727 47.6555C254.325 49.4567 252.51 50.9311 250.695 50.9311H239.828C238.013 50.9311 236.857 49.457 237.259 47.6555L239.332 38.3667C239.734 36.5647 241.547 35.0909 243.363 35.0909Z"
            fill="#1F1917" />
        <path fill-rule="evenodd" clip-rule="evenodd"
            d="M269.389 28.0453H295.768C299.198 28.0453 301.382 30.8325 300.622 34.2364L296.706 51.7856C295.947 55.1893 292.517 57.9783 289.089 57.9766L262.711 57.964L269.389 28.0453ZM276.285 35.0909H288.64C290.455 35.0909 291.611 36.5657 291.209 38.3667L289.137 47.6555C288.735 49.4558 286.92 50.9311 285.105 50.9311H272.739"
            fill="#1F1917" />
        <path fill-rule="evenodd" clip-rule="evenodd"
            d="M188.43 57.7422H162.052C158.622 57.7422 156.438 54.9549 157.198 51.5509L161.113 34.0019C161.873 30.5977 165.302 27.809 168.731 27.811L195.109 27.8232L188.43 57.7422ZM181.535 50.6964H169.18C167.364 50.6964 166.209 49.2213 166.611 47.4209L168.683 38.1318C169.085 36.3313 170.9 34.856 172.714 34.856H185.08"
            fill="#1F1917" />
        <path fill-rule="evenodd" clip-rule="evenodd"
            d="M98.0944 28.0499H118.256C121.686 28.0499 123.871 30.8358 123.111 34.2409L120.248 47.0703H111.757L113.698 38.3713C114.1 36.5693 112.943 35.0955 111.129 35.0955H98.6368C96.8226 35.0955 98.449 36.5703 98.0475 38.3713L96.132 46.9541H87.6406L90.4776 34.2409C91.2372 30.8356 94.6644 28.0499 98.0944 28.0499Z"
            fill="#1F1917" />
        <path fill-rule="evenodd" clip-rule="evenodd" d="M85.25 57.7422L91.0459 31.8418H99.5142L93.709 57.7422"
            fill="#1F1917" />
        <path fill-rule="evenodd" clip-rule="evenodd"
            d="M154.013 57.7422H125.818C122.389 57.7422 120.204 54.9554 120.963 51.5509L122.099 46.4588H122.105L122.323 45.4796C123.082 42.0754 126.512 39.2872 129.94 39.2886L149.668 39.2974L149.959 37.9972C150.269 36.3002 149.191 34.9249 147.497 34.856H124.66L126.232 27.8137L154.573 27.8217C157.932 27.8875 160.056 30.6464 159.305 34.0108L158.772 36.4009H158.776L158.129 39.301H158.135L154.81 54.1992H154.803L154.013 57.7422ZM132.097 50.6964H147.117L148.093 46.3339H133.33C133.259 46.3267 133.186 46.3226 133.112 46.3226C131.902 46.3226 130.695 47.3046 130.428 48.5051C130.164 49.6917 130.914 50.6645 132.099 50.6876C132.098 50.6905 132.098 50.6937 132.097 50.6964Z"
            fill="#1F1917" />
        <path fill-rule="evenodd" clip-rule="evenodd"
            d="M203.152 28.0453H225.131C228.561 28.0453 230.745 30.8318 229.985 34.2364L226.069 51.7856C225.31 55.1904 221.882 57.9766 218.452 57.9766H196.474C193.045 57.9766 190.86 55.1908 191.62 51.7856L195.535 34.2364C196.295 30.831 199.723 28.0453 203.152 28.0453ZM207.136 35.0909H218.003C219.819 35.0909 220.974 36.5654 220.572 38.3667L218.5 47.6555C218.098 49.4567 216.284 50.9311 214.469 50.9311H203.602C201.787 50.9311 200.631 49.457 201.033 47.6555L203.105 38.3667C203.507 36.5647 205.321 35.0909 207.136 35.0909Z"
            fill="#66CCFF" />
        <path fill-rule="evenodd" clip-rule="evenodd"
            d="M239.379 28.0453H261.358C264.788 28.0453 266.972 30.8318 266.212 34.2364L262.297 51.7856C261.537 55.1904 258.109 57.9766 254.679 57.9766H232.701C229.271 57.9766 227.086 55.1908 227.846 51.7856L231.762 34.2364C232.522 30.831 235.949 28.0453 239.379 28.0453ZM243.363 35.0909H254.23C256.046 35.0909 257.201 36.5654 256.799 38.3667L254.727 47.6555C254.325 49.4567 252.51 50.9311 250.695 50.9311H239.828C238.013 50.9311 236.857 49.457 237.259 47.6555L239.332 38.3667C239.734 36.5647 241.547 35.0909 243.363 35.0909Z"
            fill="#66CCFF" />
        <path fill-rule="evenodd" clip-rule="evenodd"
            d="M269.399 28.0469L263.891 52.6851L262.717 57.9667L260.484 67.9976H268.935L271.182 57.9667L289.098 57.9811C292.526 57.9829 295.949 55.1965 296.709 51.7928L300.622 34.2496C301.382 30.8457 299.196 28.0469 295.766 28.0469L269.399 28.0469ZM276.284 35.0987H288.649C290.465 35.0987 291.616 36.579 291.215 38.38L289.142 47.6624C288.74 49.4628 286.927 50.9437 285.112 50.9437H272.748L276.284 35.0987Z"
            fill="#66CCFF" />
        <path fill-rule="evenodd" clip-rule="evenodd"
            d="M188.892 17.7969L186.645 27.8277L168.728 27.8133C165.3 27.8115 161.878 30.5975 161.118 34.0017L157.19 51.5592C156.43 54.9633 158.616 57.7476 162.046 57.7476H188.428L195.11 27.8277L197.342 17.7969L188.892 17.7969ZM172.715 34.8651H185.079L181.528 50.6957H169.178C167.362 50.6957 166.21 49.2292 166.612 47.4289L168.685 38.132C169.087 36.3315 170.9 34.8651 172.715 34.8651Z"
            fill="#66CCFF" />
        <path fill-rule="evenodd" clip-rule="evenodd"
            d="M94.1502 17.7969L90.7293 33.1094H90.7728L90.6278 33.7138C90.5736 33.8889 90.5228 34.0674 90.4829 34.2463L87.6418 46.9539H87.6707L85.25 57.7475H93.7009L96.1216 46.9539H96.1361L98.0495 38.3766C98.0527 38.363 98.0467 38.3471 98.0495 38.3335L98.7888 35.0954H111.124C112.939 35.0954 114.106 36.5747 113.705 38.3767L111.762 47.0691L109.385 57.7476H117.85L120.242 47.0691H120.257L123.112 34.2463C123.872 30.8413 121.686 28.0436 118.256 28.0436H100.325L102.616 17.7969L94.1502 17.7969Z"
            fill="#66CCFF" />
        <path fill-rule="evenodd" clip-rule="evenodd"
            d="M154.013 57.7422H125.818C122.389 57.7422 120.204 54.9554 120.963 51.5509L122.099 46.4588H122.105L122.323 45.4796C123.082 42.0754 126.512 39.2872 129.94 39.2886L149.668 39.2974L149.959 37.9972C150.269 36.3002 149.191 34.9249 147.497 34.856H124.66L126.232 27.8137L154.573 27.8217C157.932 27.8875 160.056 30.6464 159.305 34.0108L158.772 36.4009H158.776L158.129 39.301H158.135L154.81 54.1992H154.803L154.013 57.7422ZM132.097 50.6964H147.117L148.093 46.3339H133.33C133.259 46.3267 133.186 46.3226 133.112 46.3226C131.902 46.3226 130.695 47.3046 130.428 48.5051C130.164 49.6917 130.914 50.6645 132.099 50.6876C132.098 50.6905 132.098 50.6937 132.097 50.6964Z"
            fill="#66CCFF" />
        <path fill-rule="evenodd" clip-rule="evenodd"
            d="M14.0284 39.3706C13.6816 40.3077 13.3344 41.2452 12.9876 42.1828C12.1287 43.0266 11.27 43.8719 10.4109 44.7162C9.47189 45.6398 9.26993 45.6334 9.4905 46.9398C9.7495 48.4748 10.4929 50.0567 11.8614 51.4189C13.3001 52.8508 16.3211 54.8773 18.4949 53.922C18.2929 54.6473 18.0246 55.4076 17.6832 56.1511C16.2256 59.3242 19.778 59.9458 22.2641 60.6134C24.3302 61.168 29.4009 62.6461 30.1326 59.95C30.4616 58.737 30.5127 58.0851 30.3955 56.9269C31.0385 55.5021 31.2438 55.275 31.776 54.4909C32.5063 53.4156 32.4538 53.0063 32.294 51.6719C32.2631 51.4146 32.2255 51.1342 32.182 50.8394C34.6424 51.207 37.008 51.2025 39.4191 50.9055C38.6871 51.329 37.9529 51.6999 36.9847 52.1941C34.6866 53.3669 36.8522 56.827 37.8426 58.3422C39.9213 61.5225 41.785 63.7105 45.2964 61.824C46.476 61.1901 46.567 60.5148 47.3032 59.4235C47.7099 59.202 49.8056 57.4325 51.0519 56.4329C51.5243 56.9955 52.4284 57.0992 53.7997 57.1975C54.4896 57.2473 57.1955 57.2303 57.9127 57.2349C60.0645 57.2483 61.3559 57.0266 61.5242 54.6983C61.6039 53.5943 61.5562 53.3594 61.0091 52.3944C60.976 51.1764 60.9433 49.9583 60.9106 48.7407C60.8732 47.3688 60.6093 46.5273 60.0672 45.2457C59.5741 44.0817 59.2979 43.0883 58.7222 41.9596C58.8012 41.5171 58.8638 41.0605 58.9064 40.5834C59.638 41.2829 60.3694 41.983 61.101 42.6827C62.4955 44.0163 63.6478 45.1055 65.7741 45.0058C67.9885 44.9022 70.5236 43.1702 71.1728 41.0517C71.3893 40.3445 71.6051 39.6374 71.8215 38.9305C75.161 39.5571 79.0637 39.4137 81.9713 37.8734C86.2477 35.6075 88.2486 31.052 88.7404 26.233C89.1383 22.3346 88.3724 15.7791 86.5004 12.2221C85.9499 11.1761 83.4642 9.85261 82.3745 10.9489C81.5535 11.7751 80.9896 13.0337 80.1032 13.7857C79.4167 14.3681 78.5663 14.6564 77.8211 14.9612C77.2442 13.4149 76.415 12.2131 75.3998 11.0122C74.5924 10.0577 73.8318 9.58205 72.7671 8.92016C70.6633 7.61215 69.0308 5.96093 67.1165 4.3941C61.3238 -0.347881 56.3493 -0.202469 49.1319 2.81352C45.6886 4.25261 44.0277 6.20553 41.9157 9.01043C40.6395 9.07651 39.7626 9.32191 38.4136 10.504C37.4177 11.3765 36.4906 12.2742 35.5932 13.2043C28.8466 14.2718 24.6567 15.5482 20.2239 19.4497C18.4201 21.0375 17.1088 22.7969 16.086 24.7748C15.1365 25.8165 14.1924 26.8844 12.9387 27.3636C12.0561 27.7006 12.0725 27.6997 11.7616 26.8756C12.811 26.0926 12.7944 24.6188 12.8915 23.2848C13.5536 23.3161 13.8017 24.0533 14.2519 24.6175C14.5175 23.4378 14.6715 21.6059 13.4211 20.9629C13.6244 20.4233 13.8545 19.8794 14.0652 19.2843C12.2208 19.6022 5.89747 23.8337 9.27138 27.0611C9.49345 27.9572 9.66833 28.5746 9.96172 29.1804C10.7337 30.7744 12.4695 31.0475 13.9821 30.4618C13.5676 32.3487 13.4835 34.4017 13.733 37.2836C13.7929 37.9745 13.8933 38.6715 14.0284 39.3706Z"
            fill="black" />
        <path
            d="M14.4265 39.517C14.2873 39.8936 14.1475 40.2708 14.0081 40.6476L13.2067 40.3559C13.346 39.9791 13.486 39.6018 13.6251 39.2252L14.4265 39.517ZM14.0081 40.6476C13.8007 41.2078 13.5929 41.7688 13.3856 42.3292L12.5843 42.0374C12.7915 41.4771 12.9993 40.916 13.2067 40.3559L14.0081 40.6476ZM13.3856 42.3292L13.2854 42.4832L12.985 42.1833L13.3856 42.3292ZM13.2854 42.4832C12.8305 42.9303 12.375 43.3782 11.9199 43.8257L11.3191 43.2259C11.7742 42.7784 12.2295 42.3305 12.6845 41.8834L13.2854 42.4832ZM11.9199 43.8257C11.5164 44.2226 11.1124 44.6199 10.7087 45.0166L10.1079 44.4167C10.5115 44.02 10.9155 43.6227 11.3191 43.2259L11.9199 43.8257ZM10.7087 45.0166C10.5242 45.1978 10.4616 45.2578 10.406 45.311L9.815 44.6977C9.93827 44.5799 10.0744 44.4497 10.1079 44.4167L10.7087 45.0166ZM10.406 45.311C9.85936 45.8334 9.75122 45.937 9.90864 46.8706L9.06715 47.01C8.83511 45.6345 8.99699 45.4795 9.815 44.6977L10.406 45.311ZM9.90864 46.8706C10.0356 47.6222 10.2873 48.3892 10.6825 49.1357L9.92447 49.5302C9.48839 48.7065 9.20932 47.8528 9.06715 47.01L9.90864 46.8706ZM10.6825 49.1357C11.0493 49.8291 11.5376 50.5005 12.1609 51.1211L11.5567 51.7177C10.8651 51.029 10.3263 50.2895 9.92447 49.5302L10.6825 49.1357ZM12.1609 51.1211C12.9583 51.9148 14.2601 52.8982 15.6149 53.4093L15.3144 54.2018C13.8338 53.6432 12.4199 52.5766 11.5567 51.7177L12.1609 51.1211ZM15.6149 53.4093C16.5573 53.7649 17.5178 53.8873 18.3204 53.5346L18.6642 54.3104C17.6289 54.7653 16.4481 54.6296 15.3144 54.2018L15.6149 53.4093ZM18.3204 53.5346L19.1449 53.1723L18.9047 54.0353L18.4923 53.9225L18.3204 53.5346ZM18.9047 54.0353C18.7975 54.4202 18.6721 54.815 18.5279 55.2108L17.7233 54.9223C17.86 54.5465 17.9788 54.1732 18.0799 53.8098L18.9047 54.0353ZM18.5279 55.2108C18.3933 55.5801 18.241 55.9544 18.0697 56.3273L17.2917 55.9758C17.4506 55.6297 17.5944 55.2759 17.7233 54.9223L18.5279 55.2108ZM18.0697 56.3273C17.3477 57.899 18.1044 58.7267 19.2772 59.2578L18.9232 60.0303C17.3184 59.3037 16.2874 58.1622 17.2917 55.9758L18.0697 56.3273ZM19.2772 59.2578C20.0267 59.5971 20.9337 59.8316 21.7765 60.0496L21.5628 60.8684C20.6773 60.6395 19.7245 60.3929 18.9232 60.0303L19.2772 59.2578ZM21.7765 60.0496C21.9992 60.1069 22.215 60.1628 22.37 60.2044L22.153 61.0232C21.9248 60.9619 21.7436 60.9149 21.5628 60.8684L21.7765 60.0496ZM22.37 60.2044C23.3864 60.4772 25.1435 60.9775 26.723 61.077L26.6694 61.9255C25.0143 61.8213 23.2023 61.3049 22.153 61.0232L22.37 60.2044ZM26.723 61.077C28.1505 61.1667 29.4231 60.928 29.7176 59.8428L30.5424 60.0582C30.1053 61.6686 28.4761 62.0392 26.6694 61.9255L26.723 61.077ZM29.7176 59.8428C29.8734 59.268 29.9638 58.8239 30.0015 58.3837L30.8561 58.4532C30.8154 58.9315 30.7153 59.4203 30.5424 60.0582L29.7176 59.8428ZM30.0015 58.3837C30.0393 57.9413 30.0238 57.5118 29.9689 56.9671L30.817 56.8875C30.8788 57.5007 30.8967 57.9769 30.8561 58.4532L30.0015 58.3837ZM29.9689 56.9671L30.0023 56.755L30.393 56.9273L29.9689 56.9671ZM30.0023 56.755C30.5772 55.4807 30.8142 55.1366 31.2327 54.5281L31.9371 55.0056C31.5502 55.568 31.3311 55.8865 30.7836 57.0996L30.0023 56.755ZM31.2327 54.5281C31.2754 54.4659 31.3119 54.413 31.4195 54.2544L32.1273 54.7283C32.1001 54.7684 32.0111 54.8978 31.9371 55.0056L31.2327 54.5281ZM31.4195 54.2544C31.7458 53.7739 31.8959 53.4529 31.9439 53.121L32.7887 53.2372C32.72 53.7123 32.5308 54.1338 32.1273 54.7283L31.4195 54.2544ZM31.9439 53.121C31.994 52.7725 31.9435 52.3564 31.8674 51.7204L32.7155 51.6241C32.799 52.3224 32.8547 52.779 32.7887 53.2372L31.9439 53.121ZM31.8674 51.7204C31.8466 51.5467 31.8293 51.4092 31.8173 51.3195L32.6621 51.2135C32.6877 51.4042 32.7053 51.5388 32.7155 51.6241L31.8674 51.7204ZM31.8173 51.3195C31.8078 51.2475 31.7866 51.1028 31.757 50.9013L32.6018 50.7786C32.6149 50.8688 32.6348 51.0096 32.6621 51.2135L31.8173 51.3195ZM31.757 50.9013L31.6737 50.3354L32.2428 50.4206L32.1794 50.8399L31.757 50.9013ZM32.2428 50.4206C33.4517 50.601 34.638 50.6903 35.8181 50.698L35.8148 51.5465C34.5948 51.5387 33.3674 51.4461 32.116 51.2593L32.2428 50.4206ZM35.8181 50.698C37.0018 50.7054 38.1791 50.6312 39.3664 50.485L39.4667 51.327C38.2432 51.4776 37.0314 51.5541 35.8148 51.5465L35.8181 50.698ZM39.3664 50.485L39.6302 51.274L39.4166 50.906L39.3664 50.485ZM39.6302 51.274C38.9404 51.673 38.2519 52.0245 37.3734 52.4725L36.9829 51.7167C37.8499 51.2745 38.5293 50.9275 39.2029 50.538L39.6302 51.274ZM37.3734 52.4725C37.3093 52.5052 37.2436 52.5388 37.1774 52.5725L36.7868 51.8167C36.8531 51.783 36.9188 51.7493 36.9829 51.7167L37.3734 52.4725ZM37.1774 52.5725C36.2745 53.0333 36.2663 54.0009 36.5851 55.0142L35.7706 55.2662C35.3337 53.8778 35.3919 52.5287 36.7868 51.8167L37.1774 52.5725ZM36.5851 55.0142C36.9469 56.1643 37.7151 57.3746 38.1973 58.1123L37.4827 58.5731C36.9747 57.7959 36.1644 56.518 35.7706 55.2662L36.5851 55.0142ZM38.1973 58.1123C39.2067 59.6568 40.1586 60.9572 41.2518 61.6223L40.8077 62.3448C39.5716 61.5927 38.5515 60.2086 37.4827 58.5731L38.1973 58.1123ZM41.2518 61.6223C42.2846 62.2508 43.4923 62.3091 45.0918 61.4498L45.4959 62.1991C43.5844 63.2262 42.104 63.1338 40.8077 62.3448L41.2518 61.6223ZM45.0918 61.4498C45.8478 61.0436 46.1015 60.6026 46.4432 60.0081L47.1877 60.4258C46.7749 61.1439 46.4683 61.6764 45.4959 62.1991L45.0918 61.4498ZM46.4432 60.0081C46.5791 59.7717 46.7284 59.5126 46.9468 59.1886L47.6545 59.6592C47.4797 59.9185 47.3269 60.1839 47.1877 60.4258L46.4432 60.0081ZM46.9468 59.1886L47.0954 59.0511L47.3007 59.424L46.9468 59.1886ZM47.0954 59.0511C47.3449 58.9151 48.4107 58.041 49.4473 57.1905L49.9917 57.8435C48.9198 58.7231 47.8171 59.6274 47.5059 59.7968L47.0954 59.0511ZM49.4473 57.1905C49.981 56.7528 50.5075 56.3209 50.7806 56.102L51.3181 56.7648C50.8181 57.1659 50.4067 57.5032 49.9917 57.8435L49.4473 57.1905ZM50.7806 56.102L51.108 55.8394L51.3782 56.1615L51.0493 56.4334L50.7806 56.102ZM51.3782 56.1615C51.5487 56.3645 51.8182 56.49 52.1845 56.5771L51.9876 57.4025C51.4413 57.2728 51.0221 57.0644 50.7204 56.7052L51.3782 56.1615ZM52.1845 56.5771C52.6051 56.677 53.1577 56.726 53.8272 56.7737L53.767 57.6223C53.0653 57.572 52.4796 57.5193 51.9876 57.4025L52.1845 56.5771ZM53.8272 56.7737C54.3521 56.8114 56.0292 56.8106 57.1122 56.8103V57.6588C56.0057 57.6593 54.2925 57.6601 53.767 57.6223L53.8272 56.7737ZM57.1122 56.8103C57.4557 56.8101 57.741 56.8101 57.9118 56.8111L57.9083 57.6596C57.7378 57.6586 57.4541 57.6588 57.1122 57.6588V56.8103ZM57.9118 56.8111C58.9209 56.8173 59.721 56.7728 60.2493 56.4756L60.67 57.2148C59.9729 57.6069 59.0505 57.6666 57.9083 57.6596L57.9118 56.8111ZM60.2493 56.4756C60.732 56.2041 61.0221 55.6692 61.0943 54.6689L61.9489 54.7287C61.8531 56.0562 61.4129 56.7969 60.67 57.2148L60.2493 56.4756ZM61.0943 54.6689C61.1312 54.1551 61.14 53.8486 61.0818 53.5859L61.9164 53.4034C61.9987 53.7752 61.9913 54.1387 61.9489 54.7287L61.0943 54.6689ZM61.0818 53.5859C61.0236 53.3229 60.8865 53.0502 60.6326 52.6021L61.3804 52.1876C61.6733 52.7042 61.8342 53.0321 61.9164 53.4034L61.0818 53.5859ZM60.6326 52.6021L60.5792 52.4048L61.0065 52.3948L60.6326 52.6021ZM60.5792 52.4048C60.5627 51.796 60.5459 51.1867 60.5298 50.5779L61.3845 50.558C61.4006 51.1668 61.4174 51.7761 61.4338 52.3849L60.5792 52.4048ZM60.5298 50.5779C60.5136 49.9691 60.4968 49.3597 60.4807 48.7511L61.3354 48.7312C61.3515 49.3398 61.3682 49.9491 61.3845 50.558L60.5298 50.5779ZM60.4807 48.7511C60.463 48.0974 60.3918 47.5728 60.2616 47.0627L61.0896 46.8571C61.2361 47.4306 61.3158 48.0133 61.3354 48.7312L60.4807 48.7511ZM60.2616 47.0627C60.1303 46.5488 59.9347 46.0348 59.6706 45.4103L60.4585 45.082C60.7363 45.7388 60.944 46.2869 61.0896 46.8571L60.2616 47.0627ZM59.6706 45.4103C59.4835 44.9688 59.3233 44.5397 59.1663 44.1192L59.9677 43.8275C60.1173 44.2283 60.27 44.6372 60.4585 45.082L59.6706 45.4103ZM59.9677 43.8259V43.8275L59.567 43.9734L59.9677 43.8259ZM59.1663 44.1209C58.9221 43.4669 58.6851 42.8324 58.3373 42.1507L59.1019 41.7695C59.467 42.485 59.7137 43.1452 59.9677 43.8259L59.1663 44.1209ZM58.3373 42.1507L58.2989 41.8871L58.7196 41.9601L58.3373 42.1507ZM58.2989 41.8871C58.3409 41.6505 58.3763 41.4309 58.403 41.232L59.2478 41.3381C59.213 41.597 59.177 41.8274 59.1404 42.033L58.2989 41.8871ZM58.403 41.232C58.4272 41.0513 58.4519 40.8251 58.4765 40.5491L59.3312 40.6186C59.3132 40.8193 59.285 41.0608 59.2478 41.3381L58.403 41.232ZM58.4765 40.5491L58.5561 39.6619L59.1994 40.2772L58.9038 40.5838L58.4765 40.5491ZM59.1994 40.2772C59.6178 40.6773 60.0366 41.0781 60.4551 41.4784L59.864 42.0916C59.4456 41.6913 59.0268 41.2906 58.6084 40.8904L59.1994 40.2772ZM60.4551 41.4784L61.3939 42.3765L60.8029 42.9897L59.864 42.0916L60.4551 41.4784ZM61.3939 42.3765C62.0715 43.0247 62.6905 43.6136 63.3776 44.016L62.9436 44.7487C62.1744 44.2981 61.5195 43.6752 60.8029 42.9897L61.3939 42.3765ZM63.3776 44.016C64.0383 44.403 64.7834 44.6274 65.7515 44.582L65.7916 45.4306C64.6336 45.4849 63.7389 45.2145 62.9436 44.7487L63.3776 44.016ZM65.7515 44.582C66.7962 44.5332 67.9245 44.0881 68.8625 43.4011L69.37 44.0838C68.3017 44.8663 67.0044 45.3738 65.7916 45.4306L65.7515 44.582ZM68.8625 43.4011C69.7576 42.7456 70.4712 41.8759 70.7611 40.9294L71.5793 41.1749C71.233 42.305 70.4035 43.3268 69.37 44.0838L68.8625 43.4011ZM70.7611 40.9294C70.8611 40.6028 70.9612 40.2757 71.061 39.9492L71.8791 40.1946C71.7794 40.5211 71.6792 40.8482 71.5793 41.1749L70.7611 40.9294ZM71.061 39.9492C71.177 39.569 71.2936 39.1883 71.4099 38.8083L72.228 39.0537C72.1118 39.4337 71.9952 39.8145 71.8791 40.1946L71.061 39.9492ZM71.4099 38.8083L71.5213 38.4444L71.8974 38.515L71.819 38.931L71.4099 38.8083ZM71.8974 38.515C73.6279 38.8398 75.5124 38.9532 77.3235 38.7647L77.407 39.6067C75.5134 39.8038 73.5457 39.6855 71.7406 39.3469L71.8974 38.515ZM77.3235 38.7647C78.9146 38.5991 80.4492 38.198 81.7684 37.4993L82.1691 38.2486C80.7518 38.9994 79.1084 39.4295 77.407 39.6067L77.3235 38.7647ZM81.7684 37.4993C83.7006 36.4755 85.1517 34.9633 86.1965 33.1664L86.9377 33.5874C85.815 35.5181 84.2528 37.1445 82.1691 38.2486L81.7684 37.4993ZM86.1965 33.1664V33.1646L86.5671 33.3768L86.1965 33.1664ZM86.1965 33.1646C87.3904 31.1115 88.0592 28.6889 88.3138 26.1935L89.1619 26.2731C88.8949 28.8892 88.1925 31.4312 86.9377 33.5889L86.1965 33.1646ZM88.3138 26.1935C88.5212 24.1598 88.4063 21.3862 87.9775 18.7038L88.819 18.5712C89.2588 21.3223 89.3759 24.1748 89.1619 26.2731L88.3138 26.1935ZM87.9775 18.7038C87.5993 16.3376 86.9772 14.0494 86.1188 12.4181L86.8768 12.0268C87.7777 13.7387 88.4272 16.1192 88.819 18.5712L87.9775 18.7038ZM86.1188 12.4181C86.0516 12.2902 85.9398 12.1506 85.7963 12.01L86.3939 11.4033C86.6 11.6055 86.767 11.8177 86.8768 12.0268L86.1188 12.4181ZM85.7963 12.01C85.4299 11.6511 84.8856 11.3113 84.3218 11.1187L84.5989 10.3165C85.2837 10.5504 85.9464 10.9648 86.3939 11.4033L85.7963 12.01ZM84.3218 11.1187C83.7988 10.94 83.2718 10.8908 82.8954 11.0861L82.5013 10.3335C83.1086 10.0184 83.8735 10.0688 84.5989 10.3165L84.3218 11.1187ZM82.8954 11.0861C82.8165 11.1269 82.7429 11.1801 82.6775 11.246L82.0663 10.6527C82.1972 10.521 82.3436 10.4151 82.5013 10.3335L82.8954 11.0861ZM82.6775 11.246C82.328 11.5977 82.0213 12.0423 81.714 12.4881L81.0096 12.0106C81.3416 11.5289 81.673 11.0485 82.0663 10.6527L82.6775 11.246ZM81.714 12.4881C81.3097 13.0744 80.9035 13.6633 80.3777 14.1093L79.8235 13.4628C80.2682 13.0857 80.6398 12.5469 81.0096 12.0106L81.714 12.4881ZM80.3777 14.1093C79.7341 14.6553 78.988 14.9524 78.295 15.2283L77.9778 14.4396C78.6079 14.1888 79.2864 13.9184 79.8235 13.4628L80.3777 14.1093ZM78.295 15.2283C78.1742 15.2764 78.0557 15.3237 77.9804 15.3544L77.6566 14.5688C77.7894 14.5146 77.8839 14.4769 77.9778 14.4396L78.295 15.2283ZM77.9804 15.3544L77.5723 15.5213L77.4178 15.1075L77.8185 14.9616L77.9804 15.3544ZM77.4178 15.1075C77.1415 14.3666 76.8025 13.7049 76.41 13.0829L77.1345 12.6322C77.5544 13.2976 77.919 14.0105 78.2192 14.8157L77.4178 15.1075ZM76.41 13.0829C76.0134 12.4542 75.5637 11.8685 75.0699 11.2843L75.7244 10.7406C76.2455 11.3571 76.7188 11.9735 77.1345 12.6322L76.41 13.0829ZM75.0699 11.2843C74.6885 10.8333 74.3183 10.4955 73.9187 10.1933L74.436 9.5204C74.8844 9.85946 75.2987 10.2374 75.7244 10.7406L75.0699 11.2843ZM73.9187 10.1933C73.5197 9.89159 73.0664 9.60882 72.5375 9.28018L72.9915 8.5609C73.527 8.89374 73.9867 9.18047 74.436 9.5204L73.9187 10.1933ZM72.5375 9.28018C71.0475 8.35383 69.7985 7.26607 68.5244 6.15626L69.0852 5.51665C70.3325 6.60308 71.5551 7.66782 72.9915 8.5609L72.5375 9.28018ZM68.5244 6.15626C67.9879 5.68929 67.4467 5.21783 66.8417 4.72259L67.3861 4.06628C67.946 4.52467 68.5183 5.02302 69.0852 5.51665L68.5244 6.15626ZM66.8417 4.72259C64.0193 2.41218 61.4055 1.29276 58.6291 1.11914L58.6826 0.270618C61.6457 0.455807 64.4161 1.6351 67.3861 4.06628L66.8417 4.72259ZM58.6291 1.11914C55.832 0.94437 52.8432 1.72208 49.2947 3.20504L48.9639 2.42278C52.6325 0.889683 55.7401 0.0868683 58.6826 0.270618L58.6291 1.11914ZM49.2947 3.20504C47.6223 3.90377 46.3847 4.72587 45.3108 5.7118L44.7332 5.08847C45.8783 4.03709 47.1933 3.16261 48.9639 2.42278L49.2947 3.20504ZM45.3108 5.7118C44.2288 6.70521 43.2985 7.8788 42.2554 9.26435L41.571 8.7572C42.6394 7.33803 43.5964 6.13231 44.7332 5.08847L45.3108 5.7118ZM42.2554 9.26435L42.1347 9.42473L41.9348 9.43503L41.9132 9.01077L42.2554 9.26435ZM41.9348 9.43503C41.3405 9.46571 40.8429 9.53704 40.348 9.73351L40.0308 8.94469C40.63 8.70677 41.2094 8.62157 41.8915 8.58651L41.9348 9.43503ZM40.348 9.73351C39.8455 9.93287 39.3276 10.2666 38.6932 10.8225L38.1288 10.1862C38.843 9.56036 39.4389 9.17967 40.0308 8.94469L40.348 9.73351ZM38.6932 10.8225C38.2046 11.2505 37.7284 11.689 37.261 12.1379L36.6667 11.528C37.1357 11.0774 37.6216 10.6303 38.1288 10.1862L38.6932 10.8225ZM37.261 12.1379L37.2594 12.1396L36.9638 11.8331L37.261 12.1379ZM37.2594 12.1396C36.7964 12.5842 36.3442 13.0372 35.8994 13.4981L35.2818 12.9113C35.734 12.4427 36.1948 11.9811 36.6683 11.5265L37.2594 12.1396ZM35.8994 13.4981L35.6574 13.6225L35.5906 13.2047L35.8994 13.4981ZM35.6574 13.6225C32.3168 14.151 29.6096 14.7311 27.1918 15.6609L26.8847 14.8685C29.3567 13.918 32.1182 13.3258 35.5239 12.787L35.6574 13.6225ZM27.1918 15.6609C24.7948 16.5827 22.6793 17.8534 20.5035 19.7684L19.9391 19.132C22.1958 17.1457 24.3926 15.8269 26.8847 14.8685L27.1918 15.6609ZM20.5035 19.7684C19.6219 20.5444 18.8616 21.3611 18.1984 22.2233L17.5206 21.7096C18.2193 20.8011 19.0171 19.9435 19.9391 19.132L20.5035 19.7684ZM18.1984 22.2233C17.5349 23.0858 16.9648 23.9992 16.4641 24.9675L15.7028 24.583C16.2246 23.5738 16.8221 22.6179 17.5206 21.7096L18.1984 22.2233ZM16.4641 24.9675L16.4007 25.0587L16.0834 24.7752L16.4641 24.9675ZM16.4007 25.0587C15.9146 25.5918 15.4296 26.1322 14.9094 26.5971L14.3385 25.964C14.8407 25.5149 15.3029 25.0001 15.7662 24.4918L16.4007 25.0587ZM14.9094 26.5971C14.3641 27.0845 13.7729 27.499 13.0896 27.7603L12.7826 26.9678C13.3528 26.7498 13.8612 26.3906 14.3385 25.964L14.9094 26.5971ZM13.0896 27.7603H13.088L12.9362 27.3641L13.0896 27.7603ZM13.088 27.7603C12.5397 27.9695 12.2716 28.0744 11.9679 27.9466L12.2986 27.1643C12.3124 27.1701 12.4502 27.0953 12.7843 26.9678L13.088 27.7603ZM11.9679 27.9466L11.9662 27.9449L12.1332 27.5554L11.9679 27.9466ZM11.9662 27.9449C11.646 27.81 11.5565 27.5487 11.3583 27.0235L12.1597 26.7284C12.2723 27.027 12.27 27.1532 12.3002 27.1659L11.9662 27.9449ZM11.3583 27.0235L11.2469 26.728L11.5036 26.5362L11.759 26.876L11.3583 27.0235ZM11.5036 26.5362C12.2889 25.9504 12.3634 24.7837 12.4349 23.66L13.2895 23.7132C13.206 25.0271 13.1188 26.3918 12.0144 27.2157L11.5036 26.5362ZM12.4349 23.66C12.4441 23.513 12.4536 23.3668 12.4616 23.2553L13.3163 23.3151C13.3051 23.4686 13.2972 23.5913 13.2895 23.7132L12.4349 23.66ZM12.4616 23.2553L12.492 22.8414L12.909 22.8609L12.889 23.2852L12.4616 23.2553ZM12.909 22.8609C13.614 22.8942 13.9351 23.388 14.2816 23.9206L13.5637 24.3782C13.3423 24.0378 13.1368 23.7221 12.8689 23.7094L12.909 22.8609ZM14.2816 23.9206C14.3782 24.0693 14.4779 24.2224 14.5832 24.3544L13.9155 24.8814C13.7828 24.715 13.6717 24.5443 13.5637 24.3782L14.2816 23.9206ZM14.6667 24.7091L14.4712 25.5773L13.9155 24.8814L14.2493 24.6179L14.6667 24.7091ZM13.8321 24.5267C13.9764 23.8859 14.087 23.0457 13.9307 22.3579L14.762 22.1722C14.953 23.0122 14.8306 23.9813 14.6667 24.7091L13.8321 24.5267ZM13.9307 22.3579C13.8314 21.9205 13.6187 21.5446 13.2233 21.3412L13.6138 20.5854C14.2676 20.9217 14.6105 21.5046 14.762 22.1722L13.9307 22.3579ZM13.2233 21.3412L12.8854 21.1675L13.0178 20.8158L13.4185 20.9633L13.2233 21.3412ZM13.0178 20.8158C13.081 20.6482 13.1729 20.4155 13.2673 20.1765L14.0618 20.4849C13.9879 20.672 13.9137 20.8602 13.8192 21.1109L13.0178 20.8158ZM13.2673 20.1765C13.3932 19.8573 13.5226 19.53 13.6587 19.1455L14.4667 19.4239C14.345 19.7674 14.2014 20.131 14.0618 20.4849L13.2673 20.1765ZM13.9909 18.867L14.7078 18.7435L14.4667 19.4239L14.0626 19.2847L13.9909 18.867ZM14.1345 19.7025C13.307 19.8451 11.4845 20.8603 10.1616 22.2236L9.54394 21.6368C10.9872 20.1496 13.0371 19.0313 13.9909 18.867L14.1345 19.7025ZM10.1616 22.2236C9.68217 22.7176 9.27571 23.2513 9.01903 23.7951L8.24456 23.4404C8.54711 22.7994 9.00801 22.1891 9.54394 21.6368L10.1616 22.2236ZM9.01903 23.7951C8.77411 24.3137 8.66232 24.8445 8.75243 25.3599L7.91088 25.5025C7.78877 24.8041 7.92978 24.1069 8.24456 23.4404L9.01903 23.7951ZM8.75243 25.3599C8.83412 25.828 9.08739 26.2986 9.56435 26.7549L8.97328 27.3681C8.35502 26.7766 8.02313 26.1456 7.91088 25.5025L8.75243 25.3599ZM9.56435 26.7549L9.68286 26.9603L9.26881 27.0615L9.56435 26.7549ZM9.68286 26.9603C9.79135 27.3986 9.88864 27.7692 9.99446 28.104L9.17993 28.356C9.06964 28.0071 8.96806 27.6202 8.85482 27.1627L9.68286 26.9603ZM9.99446 28.104C10.0957 28.4244 10.2062 28.7124 10.3447 28.9986L9.57357 29.3631C9.41887 29.0436 9.29479 28.7192 9.17993 28.356L9.99446 28.104ZM10.3447 28.9986C10.6521 29.6333 11.1384 30.0198 11.6988 30.1984L11.4385 31.0071C10.6637 30.7601 9.99365 30.2306 9.57357 29.3631L10.3447 28.9986ZM11.6988 30.1984C12.3527 30.4068 13.1135 30.343 13.8242 30.0679L14.1348 30.8567C13.2463 31.2007 12.2823 31.2761 11.4385 31.0071L11.6988 30.1984ZM13.8242 30.0679L14.5663 29.7805L14.3968 30.5517L13.9795 30.4623L13.8242 30.0679ZM14.3968 30.5517C14.1955 31.4686 14.074 32.4296 14.0332 33.5149L13.1786 33.4852C13.2212 32.3519 13.3494 31.3423 13.5622 30.3729L14.3968 30.5517ZM14.0332 33.5149C13.9927 34.6005 14.0341 35.8185 14.1578 37.2492L13.3031 37.3188C13.1776 35.8678 13.1361 34.6178 13.1786 33.4852L14.0332 33.5149ZM14.1578 37.2492C14.1894 37.6134 14.2272 37.9489 14.2706 38.2557L13.4258 38.3683C13.372 37.9876 13.3306 37.6367 13.3031 37.3188L14.1578 37.2492ZM14.2706 38.2557C14.3184 38.5938 14.3769 38.9397 14.4448 39.2914L13.6069 39.4506C13.5382 39.0951 13.4774 38.7341 13.4258 38.3683L14.2706 38.2557ZM14.4448 39.2914L14.4265 39.517L14.0258 39.371"
            fill="black" />
        <path fill-rule="evenodd" clip-rule="evenodd"
            d="M35.8303 13.8808L30.2038 14.7886L25.0696 17.0229L20.709 19.7463L16.5595 24.7738L14.2152 27.2388L11.9486 28.0682L11.349 26.6135L12.3973 25.1112L12.6328 22.9927L13.335 23.0208L14.1022 23.7155L13.8952 21.5575L13.0448 20.9911L13.0706 20.1687L11.0561 21.3002L9.23187 23.437L8.85156 25.3469L9.63159 26.8762L10.3592 29.4743L11.839 30.1699L13.3956 30.0941L14.8715 29.2426L13.887 34.2003L14.8715 39.7165L13.7877 42.2636L10.2379 46.0609L10.869 48.3296L12.5506 50.9586L15.7215 53.174L17.4034 53.4025L19.2733 53.4655L18.1068 58.2205L22.397 59.9662L27.7422 60.6644L29.5707 59.4775L29.7114 56.2655L31.7511 52.9138L31.8918 50.2603L36.815 50.6095L41.3864 50.1905L36.815 52.9138L37.5886 56.1956L40.4721 60.6644L43.2855 61.8516L45.536 60.9438L46.4503 59.1283L51.1625 55.5672L52.0768 56.3353L59.4615 56.6145L60.9385 55.4276L61.0792 53.3327L60.5869 52.425L60.2352 46.7692L57.7736 41.8813L58.1955 39.7165L59.6726 40.4846L63.8221 44.3252L65.8616 44.4647L68.1122 43.557L70.363 41.8813L71.4882 38.2502L78.0993 38.6691L82.1082 37.1329L85.3434 34.1305L87.6643 29.8012L88.2271 24.704L87.7346 18.7686L86.4688 13.4619L85.2027 11.7861L83.4445 11.2273L80.3499 14.579L77.5367 15.5566L75.0751 11.5067L72.6135 9.27229L71.2771 8.43436L65.932 4.03524L61.6418 1.731L57.3515 1.38181L52.3582 2.21973L47.9976 3.82576L44.9734 6.26966L42.5821 9.13263L40.1206 9.83085L35.8303 13.8808Z"
            fill="#FFFF00" stroke="#1F1917" stroke-width="0.27" stroke-miterlimit="10" />
        <path fill-rule="evenodd" clip-rule="evenodd"
            d="M19.5039 26.4876C14.6843 32.0685 15.7549 38.8373 17.0906 45.4688C16.3778 43.6806 15.6648 41.8927 14.952 40.1046C14.6894 38.4655 14.4267 36.8263 14.1641 35.1872C14.239 33.5108 14.3141 31.8345 14.3893 30.1582C15.0646 28.5564 15.74 26.9547 16.4153 25.3527C17.4284 23.8628 18.4415 22.3726 19.4546 20.8825C21.0305 19.5787 22.6063 18.2748 24.1822 16.9711C25.9081 16.2634 27.6342 15.5555 29.3601 14.8478C31.3862 14.587 33.4124 14.3263 35.4386 14.0655C33.5624 16.1888 31.6865 18.3123 29.8103 20.4355C25.2913 21.8907 22.6262 22.8708 19.5039 26.4876Z"
            fill="#FFFFCC" />
        <path fill-rule="evenodd" clip-rule="evenodd"
            d="M42.1933 9.47807C38.8427 12.7235 37.0126 15.1712 34.8803 18.9713C33.3551 21.6897 31.6443 24.3078 30.0408 26.9881C29.2297 28.3448 29.1531 29.4825 28.9107 31.0469C28.1228 30.1156 27.3348 29.1843 26.5469 28.2531C26.9221 27.1355 27.2973 26.0179 27.6726 24.9004C28.9483 22.628 30.2241 20.3555 31.4997 18.0833C34.2012 15.4383 36.9028 12.7935 39.6044 10.1486C40.4672 9.925 41.3302 9.70159 42.1933 9.47807Z"
            fill="#FFFFCC" />
        <path fill-rule="evenodd" clip-rule="evenodd"
            d="M58.7436 1.4366C56.0602 2.43554 51.6035 2.76452 51.2944 5.82247C51.0742 7.99409 51.4593 9.08525 52.7777 11.3828C49.5213 8.03732 48.7159 8.55507 42.4219 9.5947C43.3224 8.32808 44.2229 7.06152 45.1234 5.7949C46.6993 4.82647 48.2753 3.85782 49.8512 2.88933C51.8772 2.44227 53.9035 1.99527 55.9296 1.54821C56.8676 1.51097 57.8056 1.47378 58.7436 1.4366Z"
            fill="#FFFFCC" />
        <path fill-rule="evenodd" clip-rule="evenodd"
            d="M66.1512 42.7977C67.0446 43.3452 67.0254 43.7419 66.876 44.1172C67.5808 43.8371 68.2854 43.5573 68.9901 43.2776C69.4468 42.6689 69.9032 42.0605 70.3597 41.4517C70.6986 40.5845 71.0375 39.7174 71.3765 38.8501C70.9434 38.5269 70.5105 38.2036 70.0774 37.8802C68.1848 38.12 66.2921 38.3599 64.3995 38.5998C64.2586 38.9797 64.1176 39.3595 63.9766 39.7393C64.017 40.279 64.0573 40.8187 64.0975 41.3585C64.2787 41.6783 64.46 41.9983 64.6411 42.318C64.9231 42.458 65.205 42.598 65.4867 42.7378C65.7084 42.7579 65.9298 42.778 66.1512 42.7977Z"
            fill="#CCCC00" />
        <path fill-rule="evenodd" clip-rule="evenodd"
            d="M65.6175 33.1563C62.7714 33.972 62.7936 34.1967 61.9531 37C63.0627 35.2326 63.8842 34.3407 65.6175 33.1563Z"
            fill="#CCCC00" />
        <path fill-rule="evenodd" clip-rule="evenodd"
            d="M84.5425 12.1791C84.0366 12.4112 83.544 12.5229 83.2278 12.9825C82.5469 13.9715 81.9634 14.8035 80.8374 15.4979C80.2703 15.8477 79.6837 16.0742 79.0823 16.2602C78.5835 16.4142 78.284 16.2767 77.8594 16.5796C78.1113 16.6233 78.3631 16.667 78.6151 16.7109C79.1705 16.7109 79.7258 16.7109 80.2812 16.7109C80.9659 16.2911 81.6505 15.8712 82.335 15.4515C82.7379 15.0316 83.1404 14.612 83.543 14.1921C83.8762 13.5211 84.2093 12.8499 84.5425 12.1791Z"
            fill="#CCCC00" />
        <path fill-rule="evenodd" clip-rule="evenodd"
            d="M39.2085 18.448C38.0887 21.4898 37.1104 24.0974 35.4141 26.8516C37.5877 24.5266 38.9052 22.5505 40.1501 19.9218C40.6336 18.9009 40.725 17.7026 42.0719 18.1483C42.1324 19.1678 42.3495 20.1872 42.41 21.2067C43.1378 16.0272 45.1899 13.8614 49.9605 11.8514C48.6114 12.0114 47.2623 12.1712 45.9134 12.3311C44.6449 12.6111 43.3764 12.8908 42.1079 13.1706C41.4837 14.0703 40.8594 14.9699 40.2354 15.8693C39.893 16.7289 39.5508 17.5885 39.2085 18.448Z"
            fill="#CCCC00" />
        <path fill-rule="evenodd" clip-rule="evenodd"
            d="M48.4522 18.3288C49.4809 23.1362 50.9621 27.7497 51.6056 32.6334C52.0235 35.8067 52.0692 37.3313 50.4609 40.0689C48.7034 39.9561 47.6123 40.153 45.9123 40.7059C39.1445 42.9086 35.2632 46.147 30.7031 39.6218C32.1588 40.3027 33.6147 40.9839 35.0703 41.6652C36.108 41.4626 37.1458 41.2601 38.1835 41.0576C40.0158 39.9981 41.8481 38.9387 43.6804 37.8792C45.1099 37.5992 46.5395 37.3195 47.9689 37.0397C48.4321 35.1207 48.8951 33.2015 49.3582 31.2826C49.0159 28.7437 48.6735 26.2049 48.3314 23.6662C48.2912 22.4669 48.251 21.2675 48.2105 20.068C48.2913 19.4882 48.3718 18.9085 48.4522 18.3288Z"
            fill="#CCCC00" />
        <path fill-rule="evenodd" clip-rule="evenodd"
            d="M60.1102 48.0733C59.5417 51.979 61.4191 54.0786 60.6419 55.1571C60.4217 55.4625 60.1234 55.9953 59.7904 56.1413C58.6008 56.6631 56.9654 56.0438 56.8484 56.3493C55.5396 56.3493 54.2309 56.3493 52.922 56.3493C52.3987 56.1291 51.8752 55.9093 51.3516 55.6895C52.1569 54.7499 52.9624 53.8103 53.7678 52.8709C54.5529 51.1717 55.3382 49.4724 56.1235 47.7734C56.627 46.0543 57.1304 44.3352 57.6335 42.616C57.8953 42.616 58.1571 42.616 58.4188 42.616C58.9827 44.4351 59.5464 46.2542 60.1102 48.0733Z"
            fill="#CCCC00" />
        <path fill-rule="evenodd" clip-rule="evenodd"
            d="M53.5121 36.7167C53.831 38.4901 54.3848 38.9115 55.225 40.6281C54.6657 43.4285 53.7673 46.759 52.6862 49.2299C52.2302 50.2719 51.8622 50.8465 51.0584 51.6517C49.7012 53.0124 48.3292 54.1976 46.79 55.3769C45.6822 56.2248 44.9089 55.7996 43.5419 55.6074C42.9606 56.6537 42.8 57.2349 41.7301 57.7661C40.0845 58.583 38.6119 56.8226 37.3203 55.7872C38.2527 57.2332 39.1851 58.679 40.1174 60.125C40.7618 60.7246 41.4061 61.3243 42.0504 61.9242C42.5939 62.004 43.1376 62.0839 43.6813 62.1641C44.4062 61.7241 45.1309 61.2843 45.8558 60.8446C46.2384 60.125 46.621 59.4053 47.0035 58.6858C47.8088 58.086 48.6144 57.4864 49.4196 56.8865C50.4064 56.047 51.393 55.2074 52.3795 54.3679C53.0037 53.4882 53.6278 52.6087 54.252 51.7291C54.8156 50.6896 55.3795 49.6501 55.9432 48.6106C56.6681 46.4518 57.3929 44.2928 58.1179 42.1339C58.1782 41.3141 58.2387 40.4946 58.299 39.6751C57.3929 39.2752 56.4869 38.8754 55.5809 38.4756C54.9164 37.8558 54.1766 37.3363 53.5121 36.7167Z"
            fill="#CCCC00" />
        <path fill-rule="evenodd" clip-rule="evenodd"
            d="M31.8417 49.2118C34.8904 49.2118 38.11 49.0439 40.9023 47.7726C41.6925 46.5956 42.4724 45.6344 43.4393 44.5942C42.5593 46.2443 42.2834 47.1769 42.05 49.032C41.7479 49.4716 41.446 49.9115 41.1439 50.3513C38.8484 50.4113 36.5532 50.4712 34.2578 50.5312C33.5128 50.4512 32.7677 50.3712 32.0228 50.2914C31.9423 50.2113 31.8618 50.1313 31.7812 50.0515C31.8014 49.7715 31.8217 49.4917 31.8417 49.2118Z"
            fill="#CCCC00" />
        <path fill-rule="evenodd" clip-rule="evenodd"
            d="M31.4165 47.1105C31.3377 46.401 31.2588 45.6912 31.1799 44.9813C30.659 48.094 30.7843 50.1799 29.3414 52.9681C28.2635 54.2081 26.9365 55.3363 25.4165 55.9401C25.5448 56.7045 25.5832 57.1822 25.5087 57.7427C25.241 59.7587 21.1787 58.8681 19.5078 58.7878C22.1888 59.4732 24.8699 60.1584 27.5507 60.8438C28.1547 60.6039 28.7587 60.364 29.3629 60.1241C29.5643 58.9647 29.7656 57.8052 29.9669 56.6458C30.5306 55.6064 31.0946 54.5668 31.6582 53.5275C31.7588 52.8876 31.8595 52.248 31.9602 51.6084C31.779 50.1091 31.5979 48.6098 31.4165 47.1105Z"
            fill="#CCCC00" />
        <path fill-rule="evenodd" clip-rule="evenodd"
            d="M26.8882 29.5443C26.8039 31.0577 26.7054 31.6888 27.3777 33.0255C28.2323 34.7246 29.2819 36.3207 30.2106 38C30.3111 36.8805 30.4117 35.761 30.5125 34.6417C29.3044 32.9424 28.0964 31.2433 26.8882 29.5443Z"
            fill="#CCCC00" />
        <path fill-rule="evenodd" clip-rule="evenodd"
            d="M14.4811 40.9735C14.2196 41.526 13.9581 42.0787 13.6966 42.6312C14.4163 45.038 15.056 46.5625 16.4264 48.6651C16.1878 49.517 16.0091 49.8897 15.46 50.5841C14.2539 50.3998 13.183 50.3466 11.9609 50.3502C13.3102 51.3896 14.6592 52.4291 16.0081 53.4688C16.6724 53.3488 17.337 53.2289 18.0014 53.1089C18.6658 52.4492 19.3303 51.7896 19.9948 51.1299C19.0482 49.6706 18.102 48.2113 17.1558 46.752C16.2642 44.8258 15.3725 42.8995 14.4811 40.9735Z"
            fill="#CCCC00" />
        <path fill-rule="evenodd" clip-rule="evenodd"
            d="M84.5529 11.379C85.3744 15.049 86.4341 18.4353 86.3358 22.194C86.2151 26.8052 85.3099 32.63 81.0064 35.4108C76.1871 38.5249 70.5299 37.052 65.2422 35.7177C67.3967 36.5972 69.5512 37.4766 71.7054 38.3563C73.719 38.4563 75.7325 38.5562 77.7459 38.6562C79.1152 38.2563 80.4842 37.8565 81.8534 37.4569C82.9205 36.5772 83.9877 35.6977 85.0547 34.8181C85.8601 33.139 86.6655 31.4597 87.471 29.7806C87.7729 27.8414 88.075 25.9024 88.3769 23.9635C88.1353 22.0642 87.8937 20.1653 87.6521 18.2663C87.2092 16.3871 86.7661 14.5079 86.3233 12.6291C85.7332 12.2123 85.1431 11.7957 84.5529 11.379Z"
            fill="#CCCC00" />
        <path fill-rule="evenodd" clip-rule="evenodd"
            d="M12.6354 22.3178C10.4475 23.7316 9.5882 24.3523 9.82801 26.9725C10.046 27.7572 10.264 28.5421 10.4822 29.3268C10.791 29.5344 11.1 29.7418 11.4088 29.9494C11.7905 30.0755 12.1721 30.2018 12.5537 30.3281C13.2442 30.1657 13.9347 30.0034 14.6253 29.841C14.9796 28.7495 15.334 27.6581 15.6884 26.5665C14.707 27.0446 13.7258 27.5228 12.7446 28.0009C12.5174 28.0009 12.2903 28.0009 12.0631 28.0009C11.8087 27.613 11.5543 27.2251 11.2998 26.8372C11.6088 26.3862 11.9177 25.9352 12.2267 25.4841C12.3902 24.6272 12.5537 23.7701 12.7173 22.9133C12.9262 22.9765 13.1352 23.0394 13.3442 23.1026C13.5986 23.3012 13.853 23.4996 14.1074 23.698C14.0711 23.247 14.0348 22.7959 13.9983 22.3449C13.8257 22.0563 13.6531 21.7676 13.4804 21.4789C13.3078 21.3345 13.1352 21.1903 12.9625 21.0459C12.8535 21.47 12.7446 21.8939 12.6354 22.3178Z"
            fill="#CCCC00" />
        <path fill-rule="evenodd" clip-rule="evenodd"
            d="M61.7188 1.67546C63.6603 3.46553 66.0437 5.02159 67.5967 7.20938C68.1978 8.0564 68.8657 8.48947 67.5865 9.68557C68.938 9.3023 69.4402 9.34392 70.522 9.47413C72.49 9.71056 74.3346 12.488 74.4523 14.4785C74.4291 14.6647 73.9056 15.0871 72.384 15.5042C72.3537 15.5623 71.5252 15.3916 71.5458 15.4473C71.7039 15.8769 71.9152 15.9427 72.2378 16.1437C72.3079 16.6215 72.3529 17.3582 72.6806 17.8806C73.6382 17.8639 74.5739 17.9674 75.5116 18.1518C75.8271 18.6714 75.7794 19.1909 75.7532 19.7109C76.1156 19.6511 76.478 19.591 76.8404 19.5311C76.7396 18.7113 76.6391 17.8919 76.5385 17.0724C76.8604 16.5326 77.1826 15.9928 77.5049 15.4531C77.0416 14.4137 76.5785 13.3742 76.1156 12.3346C75.2295 11.4951 74.3436 10.6555 73.4577 9.81578C73.3726 9.81175 73.287 9.80732 73.2018 9.80324C72.2055 9.19603 71.2093 8.58917 70.2131 7.98214C68.5881 6.66221 66.9631 5.34212 65.3381 4.02213C64.1316 3.23987 62.9252 2.45761 61.7188 1.67546Z"
            fill="#CCCC00" />
        <path fill-rule="evenodd" clip-rule="evenodd"
            d="M64.9883 16.4532C64.8859 16.6311 64.7312 16.9154 64.533 17.1122C65.3418 17.8718 65.7408 18.3804 66.0291 19.4546C65.1148 19.9053 64.2006 20.356 63.2863 20.8067C62.5127 21.543 61.739 22.2794 60.9654 23.0156C59.9472 22.4715 59.6934 22.0535 59.2007 21.0161C58.6269 21.1668 58.0832 21.3121 57.6094 21.1394C57.91 21.1417 58.0947 21.0671 58.395 20.8828C58.8874 20.3749 59.3797 19.8671 59.8719 19.3593C60.7416 18.7054 61.6112 18.0516 62.4806 17.3979C63.0496 17.2137 63.6188 17.0296 64.1878 16.8455C64.4051 16.7568 64.7708 16.5422 64.9883 16.4532Z"
            fill="#CCCC00" />
        <path fill-rule="evenodd" clip-rule="evenodd"
            d="M67.5181 19.1623C64.6093 20.7173 61.8232 22.2812 60.3359 25.2344C60.3359 21.4859 64.1269 19.8358 67.5181 19.1623Z"
            fill="#CCCC00" />
        <path fill-rule="evenodd" clip-rule="evenodd"
            d="M59.7528 11.7819C57.593 13.244 56.0656 16.1946 56.2576 19.0703C55.554 16.5804 55.8033 14.2275 57.9636 12.5076C58.3282 12.3317 58.6925 12.1557 59.0569 11.9799C59.289 11.9139 59.5209 11.848 59.7528 11.7819Z"
            fill="#CCCC00" />
        <path fill-rule="evenodd" clip-rule="evenodd"
            d="M63.8815 33.9803C64.3279 33.7391 65.1383 33.4074 65.5847 33.1662C65.1255 33.2432 64.3022 33.4108 63.843 33.4877C62.6164 33.6933 62.4721 33.986 62.2818 35.185C62.192 35.7496 62.0685 36.4502 61.9787 37.0149C62.2192 36.3764 62.5084 35.6343 62.7887 35.0253C63.0852 34.3813 63.2522 34.3205 63.8815 33.9803ZM41.1225 3.10023C42.0864 1.66471 42.6414 1.19774 44.1248 0.288315C42.1106 0.770023 41.7267 1.14029 41.1225 3.10023ZM40.8053 6.26278C42.4921 2.8961 43.7693 1.65642 47.3009 0.00290298C43.3063 0.974957 42.1321 1.66621 40.8053 6.26278ZM4.68276 23.7866C5.05292 22.1007 5.39791 21.4648 6.44483 20.0809C4.74654 21.2589 4.52516 21.7427 4.68276 23.7866ZM42.4924 52.0019C42.4413 51.5928 42.39 51.1834 42.3385 50.7743C42.246 50.0332 42.2497 49.4308 42.3091 48.6848C42.3665 47.9627 42.4235 47.2407 42.4807 46.5185C42.2688 47.2524 41.8455 47.9864 41.6338 48.7204C41.5491 49.0141 41.479 49.2517 41.4388 49.4713C38.2781 50.1125 35.1403 50.1526 31.9787 49.5926C31.7771 48.4306 31.5315 47.2196 31.3256 46.3517C31.2631 47.3239 31.3034 50.0116 31.2983 51.5165C31.2943 52.6825 31.2449 53.0817 30.6394 54.0735C30.0723 55.0021 29.8322 55.2128 29.0385 56.7816C29.1045 57.7714 29.1057 58.4261 28.8408 59.3657C28.4002 60.9275 23.9561 59.7173 22.7836 59.3987C21.3398 59.0063 18.3549 58.4231 19.1055 56.5122C19.7662 54.8305 20.1849 53.0574 20.5077 50.704C17.8625 46.9209 15.4024 41.7362 14.9305 37.1427C14.564 33.5758 14.7839 31.3804 15.5613 29.1987C16.7932 25.7419 18.5163 22.7496 21.2817 20.34C25.0116 17.0907 28.4984 15.7854 33.9578 14.9605C32.645 16.4195 31.3461 17.9625 29.9303 19.6168C28.4972 21.2919 27.6454 22.9835 26.7355 24.8154C25.4784 27.3456 25.5053 28.3084 27.1719 30.5296C28.6081 32.4438 29.3833 33.3057 30.0104 35.1785C29.4925 36.2384 29.3043 37.1339 29.1301 38.5811C30.8886 40.4893 32.1952 41.797 33.9025 42.1999C35.5772 42.5951 36.9758 42.5185 38.474 41.7582C41.8017 40.069 44.8807 37.8881 48.6345 37.7979C50.3711 33.559 50.1956 30.0174 49.3617 25.9162C48.7924 23.1154 48.5641 20.4634 48.3869 17.608C47.6828 20.5486 47.5508 23.1346 48.073 26.0637C48.7028 29.5937 49.1923 33.4937 47.4405 36.596C44.0464 36.854 41.1374 38.9042 38.0781 40.4772C36.8485 41.1098 35.5683 41.1712 34.2071 40.8004C32.9437 40.4559 32.0912 39.6261 30.7301 38.0676C30.7089 36.5029 31.0644 35.7807 31.7881 34.3638C32.9509 32.0881 34.2345 29.9699 35.6429 27.7306C33.9182 29.7976 32.2842 31.5241 30.9268 33.602C30.4079 32.1343 29.6662 31.3892 28.4371 29.7367C27.2367 28.1227 27.1109 27.4158 28.0085 25.5481C28.911 23.671 29.6764 22.0211 31.2125 20.3745C33.8667 17.5288 36.298 14.3616 39.2006 11.5592C40.7765 10.0376 41.4163 10.0902 43.5068 9.77556C45.3961 9.4913 47.241 9.13226 49.1679 8.68779C47.3043 8.86026 45.503 8.92376 43.6888 8.96843C43.6699 8.96895 43.6513 8.96958 43.6325 8.96958C45.4175 6.70632 46.4534 5.44523 49.3524 4.19468C56.49 1.11692 61.0251 0.784065 66.6319 5.46336C68.085 6.6761 69.3541 7.85344 70.8276 8.89976C70.2934 8.94512 69.833 9.04021 69.2241 9.27767C69.9652 9.1375 70.821 9.27652 71.59 9.41606C71.806 9.55508 72.0277 9.69065 72.2552 9.8238C73.2951 10.4322 73.8855 10.7682 74.5889 11.7413C75.3325 12.7697 75.9521 13.7972 76.4984 14.9298C76.1404 14.8029 75.8403 14.6955 75.5728 14.6166C75.3759 14.527 75.1617 14.4677 74.9346 14.446C74.4847 14.4031 74.0542 14.5129 73.6956 14.7321C73.6812 14.7388 73.6669 14.7453 73.6523 14.7523C73.077 15.0303 72.1857 15.3474 71.5892 15.4435C71.8933 15.5478 72.5661 15.5868 72.8835 15.4621C72.9261 15.4453 72.9693 15.4326 73.0137 15.422C72.8705 15.6638 72.777 15.9386 72.7483 16.2353C72.7102 16.6287 72.7907 17.0063 72.9611 17.3341C72.9617 17.3353 72.9623 17.3364 72.9629 17.3376C73.0168 17.4634 73.0916 17.5795 73.1739 17.6631C72.9011 17.7626 72.623 17.8767 72.3362 18.0004C73.6662 17.7992 74.8655 17.7646 76.1637 17.9345C76.2494 18.3408 76.3357 18.7713 76.4156 19.2092C76.2547 19.2219 76.0942 19.234 75.9335 19.2466C75.9205 19.2477 75.9073 19.2489 75.8944 19.25C75.2802 18.7626 74.5958 18.8445 73.6609 19.0564C70.8178 19.7001 71.4859 21.2841 70.1778 23.6706C71.5359 22.0223 71.4353 20.2978 73.6484 19.7774C74.1642 19.6562 74.5153 19.5046 74.8643 19.5567C74.236 19.8705 73.6924 20.3905 73.477 20.9944C72.8695 22.6975 73.2467 24.1325 72.5794 25.7232C73.4061 24.3013 73.4559 22.9134 74.1951 21.4174C74.4605 20.8799 75.4458 20.0196 76.0507 20.0064C76.2167 20.0029 76.3823 19.9994 76.5485 19.9958C76.6943 20.9425 76.7829 21.8823 76.7263 22.6619C76.6233 24.0845 76.251 26.1961 76.0282 27.004C76.777 26.0484 77.118 24.0243 77.4469 22.5996C77.7895 21.1158 77.703 19.3356 77.4032 17.7418C76.9918 15.5549 79.2603 15.9106 80.5773 14.88C81.5453 14.1222 82.2117 12.9124 83.0993 12.0553C83.9798 11.2055 85.3656 12.4543 85.7118 13.2852C87.2135 16.8918 87.8976 22.566 87.501 26.2016C87.0559 30.2812 85.071 34.7349 81.4467 36.7435C76.8266 39.3036 71.379 37.7395 66.7888 36.2041C65.809 35.8765 65.1278 35.3988 64.2665 34.8602C64.501 35.9085 64.6075 37.0179 64.2956 38.0649C63.8004 39.7259 63.0006 42.4436 65.2722 42.9449C66.1368 43.1356 66.5288 43.1081 67.7494 42.4828C66.7615 42.7045 66.2635 42.6502 65.5845 42.5257C64.9692 42.4131 64.6429 42.0249 64.471 41.5674C64.6859 41.7215 65.0366 41.8054 65.6356 41.9487C67.3196 42.3516 68.9244 41.5469 69.2382 40.3874C69.4213 39.7101 69.3901 39.3543 69.7778 38.4313C70.126 38.5379 70.4865 38.6355 70.856 38.7241C70.6476 39.3992 70.4389 40.0751 70.2303 40.7502C69.689 42.503 67.5805 43.9164 65.7185 43.884C63.9973 43.8536 62.9061 42.7832 61.718 41.7338C60.8993 41.0106 60.1116 40.3187 59.3307 39.6335C57.1886 38.9625 55.4716 38.1783 53.4835 36.717C54.8982 38.3679 55.8581 39.2817 57.8313 40.1031C57.5441 43.0092 56.5269 45.128 55.6596 47.9093C55.2672 49.1671 52.1683 54.206 51.3095 54.6974C50.6971 55.0475 46.8617 58.2551 46.14 58.6781C45.6026 59.3868 45.131 60.3657 44.3231 60.7896C41.8614 62.082 40.2794 59.6074 38.9545 57.5172C38.3512 56.5651 36.6764 53.8227 38.1365 53.0544C39.5171 52.3283 40.2903 51.8098 41.6988 50.8917C41.9058 51.2662 42.261 51.6277 42.4924 52.0019ZM51.0507 56.4329C49.8044 57.4325 47.7085 59.202 47.3019 59.4236C46.5655 60.5148 46.4746 61.19 45.295 61.824C41.7835 63.7104 39.9199 61.5226 37.8412 58.3422C36.8508 56.8268 34.6852 53.3669 36.9833 52.194C37.9515 51.6999 38.6854 51.3295 39.4174 50.9062C37.0066 51.2032 34.6405 51.2068 32.1802 50.8393C32.2238 51.134 32.2617 51.4145 32.2925 51.6717C32.4524 53.0063 32.5049 53.4156 31.7746 54.4909C31.2423 55.2751 31.0371 55.5021 30.3941 56.9268C30.5112 58.0851 30.4604 58.7369 30.1312 59.95C29.3995 62.6459 24.3288 61.1682 22.2627 60.6133C19.7766 59.9459 16.2242 59.3244 17.6818 56.1511C18.0234 55.4076 18.2916 54.6472 18.4935 53.922C16.3197 54.8773 13.2988 52.8509 11.86 51.4189C10.4915 50.0566 9.74812 48.4748 9.48911 46.9398C9.26855 45.6334 9.4705 45.6397 10.4095 44.7162C11.2686 43.8719 12.1273 43.0266 12.9862 42.1828C13.333 41.2455 13.6804 40.309 14.027 39.3724C13.8919 38.6727 13.7915 37.9747 13.7317 37.2835C13.4822 34.4016 13.566 32.3493 13.9807 30.4627C12.4681 31.0487 10.7325 30.7742 9.96051 29.1804C9.66694 28.5745 9.49207 27.9574 9.27035 27.0614C5.8962 23.8337 12.2192 19.6023 14.0638 19.2841C13.8529 19.879 13.6219 20.4233 13.4185 20.9629C14.6695 21.6059 14.5161 23.4378 14.2505 24.6173C13.8005 24.0535 13.5518 23.3162 12.89 23.2846C12.793 24.6184 12.8098 26.0924 11.7606 26.8755C12.0712 27.6999 12.0549 27.7006 12.9376 27.3636C14.1914 26.8843 15.1355 25.8168 16.0851 24.7749C17.1079 22.7969 18.419 21.0373 20.2227 19.4497C24.6549 15.5483 28.8444 14.2719 35.5903 13.2046C36.4882 12.2743 37.4162 11.3766 38.4122 10.5038C39.7616 9.3216 40.6378 9.07613 41.914 9.01005C44.0259 6.2055 45.6875 4.25241 49.1307 2.81349C56.3478 -0.202492 61.3224 -0.347908 67.1151 4.39408C69.0294 5.9609 70.6619 7.61213 72.7657 8.92014C73.8304 9.58203 74.5912 10.0578 75.3984 11.0121C76.4135 12.2131 77.2425 13.4141 77.8195 14.9599C78.5651 14.6552 79.4153 14.3682 80.1018 13.7856C80.9882 13.0337 81.5521 11.7751 82.3731 10.9489C83.4628 9.85258 85.9485 11.1761 86.499 12.222C88.371 15.779 89.1369 22.3346 88.739 26.2329C88.2472 31.0519 86.2463 35.6075 81.9699 37.8734C79.0623 39.4137 75.1597 39.5571 71.82 38.9303C71.6035 39.6374 71.3879 40.3444 71.1714 41.0515C70.522 43.1702 67.9871 44.902 65.7727 45.0059C63.6466 45.1055 62.4941 44.0161 61.0997 42.6826C60.3681 41.9829 59.6361 41.2837 58.9046 40.584C58.862 41.0606 58.7992 41.5177 58.7201 41.9601C59.2961 43.0891 59.5727 44.0817 60.0656 45.2456C60.6079 46.5275 60.8719 47.3688 60.9092 48.7406C60.9419 49.9584 60.9748 51.1766 61.0077 52.3943C61.5548 53.3594 61.6026 53.5942 61.523 54.6986C61.3545 57.0262 60.0633 57.2483 57.9113 57.2349C57.1944 57.2303 54.4883 57.247 53.7984 57.1975C52.4272 57.0991 51.5232 56.9952 51.0507 56.4329ZM58.3068 43.7356C57.8739 45.2705 57.292 46.7193 56.7609 48.38C56.2582 49.952 53.6801 54.517 52.1626 55.6233C52.458 55.8417 53.0001 55.9272 53.9659 56.0099C54.6491 56.0685 57.3428 56.0809 58.0192 56.0925C59.5082 56.1183 60.0733 56.0072 60.2239 54.3238C60.2975 53.4997 60.2326 53.3457 59.8174 52.6233C59.7805 51.3348 59.7438 50.0461 59.7073 48.7576C59.6726 47.5361 59.4364 46.8324 58.9527 45.6941C58.6631 45.0128 58.506 44.3769 58.3068 43.7356ZM12.9512 22.6503C13.2854 22.6126 13.4922 22.7868 13.7507 23.0433C13.7029 22.4304 13.5888 21.9759 13.1554 21.7254C13.125 21.8251 13.0965 21.9246 13.0695 22.0258C13.017 22.2231 12.9796 22.4327 12.9512 22.6503ZM15.0515 27.0787C14.8109 27.6968 14.5876 28.3338 14.3775 28.9921C14.3426 29.1009 14.3092 29.2105 14.2767 29.3194C13.0052 29.8549 11.3333 30.1951 10.6933 28.8684C10.3826 28.2245 10.2072 27.5927 9.98051 26.7788C7.88661 24.6251 11.0166 21.7819 12.7215 20.762C12.4748 21.2886 12.2996 21.6872 12.18 22.0976C11.6616 23.8763 12.4146 25.4637 10.7887 26.7532C11.5528 28.2841 11.5176 28.8945 13.2955 28.1871C13.9813 27.9143 14.5469 27.5313 15.0515 27.0787ZM14.5615 41.572C15.5253 44.8813 17.1666 48.133 18.9862 50.8665C18.986 50.8824 18.9859 50.898 18.9857 50.9141C18.8718 51.3841 18.7398 51.8422 18.4634 52.2098C17.1628 53.9372 13.8545 51.4014 12.8969 50.4308C11.8501 49.3697 11.1494 48.1129 10.9826 46.9344C10.8613 46.0746 10.979 46.0537 11.5832 45.4456C12.3974 44.6272 13.2125 43.8082 14.0264 42.99C14.2046 42.5171 14.3834 42.0448 14.5615 41.572ZM76.147 15.0107C76.3326 15.1927 76.4823 15.4096 76.5856 15.6495C76.6418 15.5982 76.7019 15.5498 76.7649 15.5038C76.6886 15.3332 76.611 15.1652 76.5318 14.9995C76.4 15.0024 76.2719 15.006 76.147 15.0107ZM60.2161 20.9632C60.0465 20.6101 59.9653 20.2376 59.9624 19.8696C59.3382 20.3647 58.6595 20.834 57.9552 21.1052C58.9276 20.2431 60.2483 18.2099 61.2054 17.5681C62.2915 16.8395 63.7654 16.9814 65.0317 16.3998C64.5994 16.7898 64.0453 17.104 63.4812 17.4031C64.1027 17.629 64.6397 18.0859 64.946 18.7236C65.0752 18.9925 65.1525 19.2733 65.1837 19.5543C66.0344 19.2769 66.8698 19.1456 67.5754 19.1557C65.0514 19.8591 62.3666 21.5043 60.5154 23.6829C60.7233 23.1148 61.0139 22.602 61.364 22.1441C60.8788 21.8924 60.4693 21.4898 60.2161 20.9632ZM48.5115 11.8978C47.1178 12.4378 45.8464 12.8429 44.4877 13.1819C43.2479 14.7996 42.4927 15.6377 42.2074 17.806C41.8718 15.6729 41.8019 15.2769 42.7582 13.6848C42.4811 13.8246 42.2233 14.0169 41.854 14.3303C40.5181 15.4644 38.7768 19.9212 38.0805 21.5146C38.5225 19.5967 39.9049 14.8029 41.3287 13.4056C42.2651 12.4866 42.4774 12.5076 43.7977 12.3836C45.3703 12.2356 46.9398 12.0742 48.5115 11.8978ZM77.6036 16.5481C78.7342 16.6543 79.3806 16.8276 80.3931 16.3304C82.2802 15.4032 83.6688 13.8896 84.5691 12.0793C84.0183 14.2391 82.9099 16.0744 80.6107 16.8885C79.4815 17.288 78.7534 16.8754 77.6036 16.5481ZM55.9039 16.7591C56.3299 14.8861 57.0862 13.0815 60.0161 11.6854C56.1328 12.6507 55.4047 14.2699 55.9039 16.7591ZM5.54976 26.846C5.88293 23.1004 6.61663 21.4835 9.29713 18.6647C5.93499 21.0167 5.096 22.0855 5.54976 26.846Z"
            fill="black" />
        <path fill-rule="evenodd" clip-rule="evenodd"
            d="M60.7235 21.5692C60.464 21.0303 60.696 20.3811 61.2401 20.124C61.7842 19.8667 62.4396 20.0966 62.6991 20.6358C62.7237 20.6868 62.7433 20.7394 62.7593 20.7921C62.2397 21.1747 61.7633 21.6259 61.364 22.1484C61.0948 22.0411 60.8568 21.8459 60.7235 21.5692Z"
            fill="#FFFFCC" />
        <path fill-rule="evenodd" clip-rule="evenodd"
            d="M72.8779 16.8976C72.9213 16.4512 73.3047 16.122 73.7543 16.1651C74.2037 16.2083 74.5356 16.6073 74.4924 17.0538C74.4832 17.1487 74.4572 17.2378 74.4184 17.3199C74.0069 17.3894 73.5955 17.5093 73.1714 17.6641C72.9941 17.4839 72.8529 17.155 72.8779 16.8976Z"
            fill="#FFFFCC" />
    </g>
    <defs>
        <clipPath id="clip0_2643_2426">
            <rect width="308" height="70" fill="white" />
        </clipPath>
    </defs>
</svg>