<svg width="70" height="70" viewBox="0 0 70 70" fill="none" xmlns="http://www.w3.org/2000/svg">
    <path
        d="M14.8203 0H17.9648V3.11719H20.8633V0H24.0078V9.43359H20.8633V6.28906H17.9922V9.43359H14.8203M28.1641 3.14453H25.3887V0H34.0977V3.14453H31.3086V9.43359H28.1641M35.4785 0H38.7734L40.7969 3.32227L42.8203 0H46.1152V9.43359H42.9707V4.75781L40.7695 8.14844L38.5684 4.75781V9.43359H35.4785M47.6738 0H50.8184V6.31641H55.2754V9.43359H47.6738"
        fill="black" />
    <path d="M14.7148 64.3906L10.2031 13.75H59.8047L55.293 64.3633L34.9629 69.9961" fill="#E44D26" />
    <path d="M35 65.6895V17.9062H55.2754L51.4062 61.1094" fill="#F16529" />
    <path
        d="M19.4141 24.1016H35V30.3086H26.2227L26.7969 36.666H35V42.8594H21.1094M21.3828 45.9766H27.6172L28.0547 50.9395L35 52.7988V59.2793L22.2578 55.7246"
        fill="#EBEBEB" />
    <path
        d="M50.5273 24.1016H34.9688V30.3086H49.9531M49.3926 36.666H34.9688V42.873H42.625L41.9004 50.9395L34.9688 52.7988V59.2519L47.6836 55.7246"
        fill="white" />
</svg>