<svg width="70" height="70" viewBox="0 0 70 70" fill="none" xmlns="http://www.w3.org/2000/svg">
    <g clip-path="url(#clip0_2643_2417)">
        <path d="M70 0H0V70H70V0Z" fill="#F7DF1E" />
        <path
            d="M47.0208 54.6878C48.4308 56.9901 50.2652 58.6823 53.5097 58.6823C56.2352 58.6823 57.9763 57.3201 57.9763 55.4378C57.9763 53.1823 56.1875 52.3834 53.1875 51.0712L51.543 50.3656C46.7964 48.3434 43.643 45.8101 43.643 40.4545C43.643 35.5212 47.4019 31.7656 53.2764 31.7656C57.4586 31.7656 60.4652 33.2212 62.6319 37.0323L57.5097 40.3212C56.3819 38.299 55.1652 37.5023 53.2764 37.5023C51.3497 37.5023 50.1286 38.7245 50.1286 40.3212C50.1286 42.2945 51.3508 43.0934 54.173 44.3156L55.8175 45.0201C61.4063 47.4167 64.5619 49.8601 64.5619 55.3534C64.5619 61.2756 59.9097 64.5201 53.6619 64.5201C47.553 64.5201 43.6064 61.609 41.6752 57.7934L47.0208 54.6878ZM23.7841 55.2578C24.8175 57.0912 25.7575 58.6412 28.0175 58.6412C30.1786 58.6412 31.5419 57.7956 31.5419 54.5078V32.1412H38.1197V54.5967C38.1197 61.4078 34.1264 64.5079 28.2975 64.5079C23.0308 64.5079 19.9808 61.7823 18.4297 58.4995L23.7841 55.2578Z"
            fill="black" />
    </g>
    <defs>
        <clipPath id="clip0_2643_2417">
            <rect width="70" height="70" fill="white" />
        </clipPath>
    </defs>
</svg>