<svg width="242" height="70" viewBox="0 0 242 70" fill="none" xmlns="http://www.w3.org/2000/svg">
    <g clip-path="url(#clip0_2643_2501)">
        <path fill-rule="evenodd" clip-rule="evenodd"
            d="M92.2034 16.0899V47.5858H103.701V53.0183H86.0819V16.0899H92.2034ZM125.311 31.7576V28.436H131.112V53.0183H125.309V49.694C124.53 50.9252 123.42 51.8929 121.982 52.5956C120.546 53.2983 119.1 53.6497 117.645 53.6497C115.764 53.6497 114.043 53.3066 112.482 52.6217C110.963 51.9659 109.595 51.0054 108.463 49.7997C107.344 48.6027 106.46 47.2069 105.856 45.6848C105.228 44.1071 104.912 42.4233 104.924 40.7258C104.924 39.0033 105.234 37.3589 105.856 35.7929C106.456 34.2614 107.34 32.8568 108.463 31.6533C109.595 30.4473 110.963 29.4863 112.482 28.8299C114.043 28.1436 115.764 27.8005 117.645 27.8005C119.1 27.8005 120.546 28.1533 121.983 28.8574C123.42 29.5601 124.53 30.5278 125.311 31.7576ZM124.777 43.7331C125.134 42.7712 125.315 41.753 125.311 40.7272C125.311 39.6703 125.132 38.6684 124.777 37.7185C124.444 36.805 123.938 35.9635 123.288 35.2397C122.637 34.5279 121.85 33.9539 120.973 33.5515C120.066 33.1301 119.064 32.9187 117.964 32.9187C116.864 32.9187 115.87 33.1301 114.983 33.5515C114.096 33.9742 113.333 34.537 112.695 35.2397C112.046 35.96 111.549 36.8029 111.232 37.7185C110.891 38.6845 110.72 39.7018 110.726 40.7258C110.726 41.7813 110.894 42.7846 111.232 43.7317C111.548 44.6479 112.046 45.4913 112.695 46.2119C113.339 46.9195 114.116 47.4932 114.983 47.9001C115.87 48.3229 116.864 48.5329 117.964 48.5329C119.064 48.5329 120.068 48.3229 120.973 47.9015C121.85 47.4995 122.637 46.9253 123.288 46.2132C123.939 45.4891 124.444 44.6472 124.777 43.7331ZM135.689 53.017V28.4346H151.445V34.0923H141.49V53.017H135.689ZM172.47 31.7576V28.436H178.271V53.0183H172.469V49.694C171.688 50.9252 170.58 51.8929 169.141 52.5956C167.706 53.2983 166.26 53.6497 164.805 53.6497C162.922 53.6497 161.202 53.3066 159.642 52.6217C158.122 51.9659 156.754 51.0054 155.622 49.7997C154.504 48.6027 153.619 47.2069 153.016 45.6848C152.388 44.1071 152.072 42.4233 152.083 40.7258C152.083 39.0033 152.393 37.3589 153.016 35.7929C153.615 34.2614 154.5 32.8568 155.622 31.6533C156.754 30.4473 158.122 29.4863 159.642 28.8299C161.202 28.1436 162.922 27.8005 164.805 27.8005C166.26 27.8005 167.706 28.1533 169.143 28.8574C170.58 29.5601 171.688 30.5278 172.47 31.7576ZM171.937 43.7331C172.294 42.7711 172.474 41.7529 172.469 40.7272C172.469 39.6703 172.29 38.6684 171.937 37.7185C171.603 36.8048 171.097 35.9634 170.446 35.2397C169.796 34.5279 169.008 33.9539 168.131 33.5515C167.226 33.1301 166.224 32.9187 165.124 32.9187C164.024 32.9187 163.03 33.1301 162.143 33.5515C161.256 33.9742 160.493 34.537 159.855 35.2397C159.205 35.9599 158.707 36.8028 158.39 37.7185C158.05 38.6845 157.879 39.7018 157.884 40.7258C157.884 41.7813 158.052 42.7846 158.39 43.7317C158.707 44.648 159.205 45.4914 159.855 46.2119C160.499 46.9195 161.276 47.4932 162.143 47.9001C163.03 48.3229 164.024 48.5329 165.124 48.5329C166.224 48.5329 167.227 48.3229 168.131 47.9015C169.008 47.4995 169.796 46.9253 170.446 46.2132C171.098 45.4893 171.603 44.6473 171.937 43.7331ZM201.531 28.4346H207.408L197.885 53.017H190.594L181.071 28.4346H186.948L194.239 47.2591L201.531 28.4346ZM220.061 27.8033C227.961 27.8033 233.348 34.7415 232.337 42.8629H213.089C213.089 44.9834 215.249 49.0833 220.38 49.0833C224.793 49.0833 227.749 45.236 227.752 45.2333L231.671 48.2391C228.168 51.9478 225.298 53.6511 220.804 53.6511C212.774 53.6511 207.333 48.6166 207.333 40.7272C207.333 33.5899 212.957 27.8033 220.061 27.8033ZM213.104 38.5901H227.008C226.966 38.1166 226.212 32.3697 220.015 32.3697C213.818 32.3697 213.15 38.1166 213.104 38.5901ZM236.115 53.017V16.0899H241.918V53.017H236.115ZM68.4255 15.8017C68.4508 15.8947 68.4638 15.9907 68.464 16.0872V31.0809C68.4637 31.2737 68.4123 31.4631 68.315 31.6296C68.2176 31.7962 68.0779 31.9341 67.9099 32.0293L55.2131 39.275V53.636C55.2126 53.8286 55.161 54.0176 55.0637 54.184C54.9664 54.3503 54.8268 54.488 54.659 54.5831L28.1573 69.7072C28.0968 69.7429 28.0294 69.7635 27.9647 69.7868C27.9386 69.795 27.9153 69.8101 27.8905 69.817C27.7048 69.8656 27.5097 69.8656 27.324 69.817C27.2937 69.8087 27.2663 69.7923 27.2374 69.7813C27.1755 69.7607 27.1136 69.7401 27.0559 69.7072L0.55275 54.5858C0.384806 54.4903 0.245192 54.3521 0.148103 54.1853C0.051015 54.0185 -8.48206e-05 53.8289 1.05686e-07 53.636V8.65482C0.000218375 8.55838 0.0131631 8.46239 0.0385001 8.36933C0.0467501 8.33639 0.0660001 8.30757 0.0770001 8.27737C0.0990001 8.21972 0.11825 8.1607 0.1485 8.10717C0.169125 8.07149 0.199375 8.04266 0.22275 8.0111C0.25575 7.96717 0.28325 7.92051 0.32175 7.88208C0.353375 7.85051 0.394625 7.82717 0.430375 7.79972C0.47025 7.76953 0.506 7.73384 0.551375 7.70776L0.55275 7.70639L13.805 0.145018C13.9727 0.0499694 14.1622 0 14.355 0C14.5478 0 14.7373 0.0499694 14.905 0.145018L28.1573 7.70639H28.16C28.204 7.73384 28.2398 7.76953 28.281 7.79972C28.3168 7.82717 28.3566 7.85051 28.3883 7.88208C28.4268 7.92051 28.4543 7.96717 28.4873 8.00972C28.512 8.04266 28.5423 8.07149 28.5629 8.10717C28.5931 8.1607 28.6124 8.21972 28.6344 8.27737C28.6454 8.30757 28.6632 8.33639 28.6729 8.36933C28.6977 8.46246 28.7102 8.55844 28.71 8.65482V36.7495L39.754 30.4482V16.0872C39.7538 15.9908 39.7663 15.8948 39.7911 15.8017C39.8008 15.7687 39.8186 15.7413 39.831 15.7097C39.8516 15.6521 39.8709 15.5931 39.9011 15.5395C39.9217 15.5038 39.952 15.475 39.9767 15.4434C40.0098 15.3995 40.0373 15.3529 40.0757 15.3158C40.1074 15.2842 40.1473 15.2609 40.183 15.2334C40.2243 15.2019 40.26 15.1648 40.3054 15.1401V15.1387L53.5576 7.57737C53.7254 7.48181 53.9152 7.43155 54.1083 7.43155C54.3015 7.43155 54.4913 7.48181 54.659 7.57737L67.9099 15.1387C67.9566 15.1662 67.9938 15.2019 68.035 15.2321C68.0694 15.2595 68.1106 15.2842 68.1423 15.3144C68.1807 15.3529 68.2083 15.3995 68.2399 15.4421C68.2646 15.475 68.2949 15.5038 68.3155 15.5395C68.3471 15.5931 68.365 15.6521 68.387 15.7097C68.3994 15.7413 68.4173 15.7687 68.4255 15.8017ZM66.2558 30.4482V17.9799L61.6179 20.6262L55.2131 24.2813V36.7495L66.2558 30.4482ZM53.0049 53.0033V40.5268L46.7019 44.0927L28.71 54.2701V66.8633L53.0049 53.0005V53.0033ZM2.20825 10.5476V53.0033L26.5018 66.866V54.2742L13.8105 47.1562L13.8077 47.1521L13.8022 47.1507C13.7583 47.126 13.7239 47.0903 13.684 47.0601C13.6482 47.0327 13.6097 47.0107 13.5781 46.9805L13.5754 46.9764C13.5396 46.9421 13.5149 46.8995 13.4846 46.8611C13.4571 46.8254 13.4241 46.7938 13.4021 46.7554L13.4008 46.7513C13.376 46.7101 13.3609 46.6607 13.343 46.614C13.3251 46.5742 13.3018 46.5358 13.2908 46.4919C13.2756 46.4397 13.2743 46.3834 13.2674 46.3299C13.2633 46.2887 13.2509 46.2489 13.2509 46.2064V16.8476L6.8475 13.1938L2.20825 10.5476ZM14.355 2.35619L3.31788 8.65619L14.355 14.9535L25.3935 8.65482L14.355 2.35619ZM20.097 41.6632L26.5018 38.0095V10.5476L21.8652 13.1938L15.4591 16.8489V44.3095L20.097 41.6632ZM54.109 9.78992L43.0705 16.0872L54.109 22.3858L65.1461 16.0872L54.109 9.78992ZM53.0049 24.2813L46.5987 20.6262L41.9622 17.9799V30.4482L48.367 34.1033L53.0049 36.7495V24.2813ZM27.6045 52.3774L43.7951 43.217L51.8884 38.6382L40.8581 32.3436L28.1573 39.5907L16.5825 46.1954L27.6045 52.3774Z"
            fill="#FF2D20" />
    </g>
    <defs>
        <clipPath id="clip0_2643_2501">
            <rect width="242" height="70" fill="white" />
        </clipPath>
    </defs>
</svg>