<svg width="145" height="70" viewBox="0 0 145 70" fill="none" xmlns="http://www.w3.org/2000/svg">
    <g clip-path="url(#clip0_2643_2409)">
        <path
            d="M44.3888 63.6967H40.4632C40.3244 56.9977 39.9421 50.6997 39.317 44.7983H39.2821L33.3054 63.6967H30.3167L24.3756 44.7983H24.3415C23.9008 50.4643 23.6231 56.7637 23.5078 63.6967H19.9297C20.1603 55.266 20.7398 47.3621 21.666 39.9844H26.5315L32.1941 57.408H32.229L37.9266 39.9844H42.5819C43.6014 48.626 44.2037 56.5306 44.3888 63.6967ZM61.4132 46.2018C59.8149 54.9707 57.7061 61.3422 55.0891 65.3195C53.05 68.381 50.8161 69.9133 48.3834 69.9133C47.7348 69.9133 46.9345 69.7154 45.9863 69.3228V67.2084C46.4498 67.2759 46.9937 67.3142 47.6187 67.3142C48.7551 67.3142 49.6684 66.9982 50.3647 66.3648C51.1976 65.5932 51.6141 64.7259 51.6141 63.7665C51.6141 63.1084 51.2894 61.7633 50.6416 59.7263L46.3337 46.201H50.1903L53.2822 56.3166C53.977 58.6135 54.2668 60.2172 54.1507 61.1306C55.8416 56.5651 57.0226 51.5871 57.6955 46.2002H61.4132V46.2018Z"
            fill="#5D87A1" />
        <path
            d="M113.661 63.6901H102.51V39.9778H106.261V60.7712H113.661V63.6901ZM99.5912 64.263L95.2795 62.1118C95.6618 61.7943 96.0274 61.4507 96.3567 61.0526C98.1893 58.8761 99.1034 55.6574 99.1034 51.3941C99.1034 43.5493 96.0585 39.625 89.9665 39.625C86.9793 39.625 84.649 40.6205 82.9824 42.6121C81.1513 44.7902 80.2372 47.9974 80.2372 52.2377C80.2372 56.4059 81.0473 59.4636 82.6684 61.4031C84.1514 63.1601 86.3869 64.0398 89.3764 64.0398C90.4914 64.0398 91.5147 63.9017 92.447 63.6234L98.0604 66.9272L99.5912 64.263ZM85.6237 58.9452C84.674 57.4006 84.1992 54.9204 84.1992 51.5007C84.1992 45.5303 85.9932 42.5416 89.585 42.5416C91.4624 42.5416 92.8384 43.2564 93.7184 44.6828C94.6666 46.2297 95.1437 48.6876 95.1437 52.0598C95.1437 58.0793 93.3482 61.0895 89.7587 61.0895C87.8805 61.0902 86.5044 60.3778 85.6237 58.9452ZM78.6025 57.1176C78.6025 59.1285 77.8728 60.7781 76.4148 62.0703C74.9553 63.3572 72.9982 64.0022 70.5458 64.0022C68.2519 64.0022 66.0278 63.2614 63.875 61.7873L64.8831 59.7512C66.7355 60.6891 68.4127 61.1554 69.9185 61.1554C71.3317 61.1554 72.4361 60.8387 73.2372 60.2106C74.0375 59.5802 74.5146 58.6959 74.5146 57.5777C74.5146 56.1689 73.5429 54.9649 71.7603 53.9564C70.1165 53.0437 66.8288 51.1356 66.8288 51.1356C65.047 49.8227 64.1549 48.4131 64.1549 46.0909C64.1549 44.169 64.8202 42.6175 66.1514 41.4372C67.4842 40.2523 69.2039 39.6618 71.3119 39.6618C73.489 39.6618 75.4681 40.2516 77.2507 41.4188L76.3465 43.4557C74.8218 42.8008 73.3168 42.4733 71.8323 42.4733C70.63 42.4733 69.7015 42.7655 69.056 43.3522C68.4051 43.9366 68.0039 44.6843 68.0039 45.6016C68.0039 47.0035 68.9961 48.2229 70.8272 49.2513C72.493 50.1655 75.8626 52.1066 75.8626 52.1066C77.6899 53.4172 78.6025 54.8138 78.6025 57.1176Z"
            fill="#F8981D" />
        <path
            d="M118.369 32.0367C116.101 31.9784 114.345 32.2092 112.871 32.8396C112.445 33.0114 111.768 33.0114 111.709 33.5552C111.939 33.7852 111.966 34.1564 112.165 34.4739C112.505 35.0468 113.097 35.8176 113.638 36.2194C114.232 36.6796 114.829 37.1351 115.454 37.5362C116.556 38.2257 117.805 38.6268 118.879 39.3139C119.505 39.7135 120.127 40.2304 120.754 40.6606C121.062 40.8899 121.259 41.2619 121.659 41.4053V41.3179C121.458 41.0602 121.401 40.6875 121.205 40.4006L120.354 39.5709C119.532 38.4542 118.51 37.4795 117.408 36.6788C116.5 36.0469 114.516 35.1879 114.148 34.1311L114.09 34.0728C114.714 34.0138 115.454 33.7852 116.046 33.6096C117.01 33.3527 117.889 33.411 118.878 33.1541C119.334 33.039 119.785 32.8948 120.242 32.753V32.4945C119.729 31.9784 119.363 31.2928 118.824 30.805C117.381 29.545 115.791 28.3125 114.148 27.281C113.268 26.7066 112.136 26.3369 111.2 25.8484C110.862 25.6759 110.293 25.5907 110.094 25.3039C109.586 24.6735 109.3 23.8437 108.931 23.0975C108.112 21.523 107.316 19.776 106.609 18.111C106.098 16.9944 105.787 15.8793 105.164 14.8462C102.243 9.97631 99.0717 7.02675 94.1971 4.13164C93.1496 3.52884 91.9032 3.27192 90.572 2.95595L88.4457 2.84245C87.9921 2.64152 87.5377 2.09624 87.1417 1.83855C85.5245 0.807819 81.3607 -1.42621 80.1713 1.52335C79.4052 3.38773 81.3046 5.22066 81.957 6.16627C82.4387 6.82275 83.063 7.56972 83.3998 8.31516C83.5993 8.80216 83.6554 9.31906 83.8549 9.83366C84.3085 11.0945 84.7325 12.4972 85.3288 13.6736C85.6398 14.2733 85.9789 14.9037 86.3764 15.4467C86.6039 15.7642 86.9999 15.9046 87.0864 16.4222C86.6912 16.9928 86.6601 17.8541 86.4332 18.5704C85.4137 21.8075 85.812 25.8177 87.257 28.1967C87.7091 28.913 88.7878 30.4898 90.2306 29.8855C91.508 29.3701 91.2251 27.7373 91.5922 26.3055C91.6764 25.9596 91.6211 25.7326 91.791 25.5056V25.5616C92.1862 26.363 92.5852 27.1353 92.9516 27.939C93.8307 29.3417 95.3615 30.8035 96.6367 31.7751C97.3156 32.2936 97.8534 33.1801 98.7038 33.4969V33.411H98.6476C98.4754 33.1541 98.2236 33.039 97.9975 32.8396C97.4863 32.3235 96.9204 31.6931 96.5236 31.121C95.3357 29.5158 94.2844 27.7389 93.3513 25.9052C92.8947 25.0155 92.501 24.0431 92.1331 23.155C91.9616 22.8122 91.9616 22.2953 91.6772 22.1227C91.2509 22.7524 90.6296 23.2976 90.3186 24.0692C89.7793 25.3031 89.7231 26.8209 89.5229 28.3992L89.4114 28.4544C88.5087 28.2251 88.1946 27.281 87.8518 26.4796C87.0029 24.4442 86.8603 21.1771 87.5969 18.8288C87.7941 18.2283 88.6475 16.3371 88.3069 15.765C88.1362 15.2166 87.5688 14.9045 87.2578 14.4727C86.8922 13.9298 86.4917 13.2426 86.2368 12.6398C85.5571 11.0362 85.215 9.25924 84.483 7.65638C84.1409 6.90941 83.5469 6.13635 83.066 5.44843C82.5259 4.67538 81.9319 4.13087 81.5049 3.2144C81.3638 2.8992 81.1658 2.38383 81.3926 2.04102C81.448 1.81095 81.5633 1.72505 81.7893 1.66753C82.1565 1.35386 83.2056 1.75266 83.5735 1.92522C84.6241 2.35469 85.5025 2.75579 86.3794 3.35705C86.7761 3.64464 87.2017 4.18915 87.7107 4.33257H88.3069C89.2119 4.53196 90.2321 4.38779 91.084 4.647C92.5852 5.13476 93.9453 5.85029 95.1651 6.62258C98.8767 9.00232 101.938 12.3837 104.004 16.4222C104.343 17.0803 104.487 17.683 104.797 18.3694C105.394 19.7744 106.132 21.207 106.724 22.5821C107.32 23.928 107.887 25.3024 108.737 26.4205C109.161 27.0218 110.865 27.337 111.629 27.6522C112.194 27.9091 113.074 28.1377 113.584 28.4529C114.548 29.0534 115.508 29.7428 116.415 30.4031C116.866 30.7467 118.285 31.463 118.369 32.0367ZM89.4629 7.13948C89.0717 7.13537 88.6817 7.18386 88.3031 7.28366V7.34118H88.3577C88.586 7.79903 88.9828 8.11653 89.2657 8.5161C89.494 8.97548 89.692 9.43103 89.9158 9.88964L89.9704 9.83289C90.3702 9.54683 90.5689 9.08822 90.5689 8.40029C90.3967 8.19783 90.3702 7.99996 90.2268 7.79903C90.0599 7.5122 89.692 7.36956 89.4629 7.13948Z"
            fill="#5D87A1" />
        <path
            d="M121.069 63.6871H121.656V60.782H120.776L120.057 62.7645L119.277 60.782H118.429V63.6871H118.983V61.4768H119.014L119.832 63.6871H120.254L121.069 61.4768V63.6871ZM116.339 63.6871H116.961V61.2744H117.774V60.7812H115.492V61.2744H116.338L116.339 63.6871Z"
            fill="#F8981D" />
    </g>
    <defs>
        <clipPath id="clip0_2643_2409">
            <rect width="145" height="70" fill="white" />
        </clipPath>
    </defs>
</svg>