<svg width="117" height="70" viewBox="0 0 117 70" fill="none" xmlns="http://www.w3.org/2000/svg">
    <g clip-path="url(#clip0_2643_2380)">
        <path
            d="M57.8424 69.9824C57.4462 69.9824 57.0765 69.879 56.7331 69.6981L53.2205 67.6559C52.6923 67.3715 52.9564 67.2681 53.1148 67.2164C53.8279 66.9837 53.96 66.932 54.6995 66.5184C54.7787 66.4667 54.8844 66.4926 54.9636 66.5443L57.6575 68.1212C57.7631 68.1729 57.8952 68.1729 57.9744 68.1212L68.5124 62.1496C68.618 62.0979 68.6708 61.9945 68.6708 61.8653V49.948C68.6708 49.8188 68.618 49.7153 68.5124 49.6636L57.9744 43.7179C57.8688 43.6662 57.7367 43.6662 57.6575 43.7179L47.1196 49.6636C47.0139 49.7153 46.9611 49.8446 46.9611 49.948V61.8653C46.9611 61.9687 47.0139 62.0979 47.1196 62.1496L49.9984 63.7782C51.5566 64.5538 52.5338 63.649 52.5338 62.7442V50.982C52.5338 50.8269 52.6658 50.6718 52.8507 50.6718H54.1977C54.3561 50.6718 54.5146 50.8011 54.5146 50.982V62.7442C54.5146 64.7864 53.3789 65.9756 51.3981 65.9756C50.7907 65.9756 50.3153 65.9756 48.9683 65.3293L46.1952 63.7782C45.5085 63.3905 45.0859 62.6666 45.0859 61.8911V49.9739C45.0859 49.1983 45.5085 48.4745 46.1952 48.0867L56.7331 42.1152C57.3934 41.7533 58.2914 41.7533 58.9516 42.1152L69.4896 48.0867C70.1762 48.4745 70.5988 49.1983 70.5988 49.9739V61.8911C70.5988 62.6666 70.1762 63.3905 69.4896 63.7782L58.9516 69.7498C58.6083 69.9049 58.2121 69.9824 57.8424 69.9824ZM61.0909 61.7877C56.469 61.7877 55.5182 59.7196 55.5182 57.9618C55.5182 57.8067 55.6503 57.6516 55.8351 57.6516H57.2085C57.367 57.6516 57.499 57.755 57.499 57.9101C57.7103 59.2802 58.3178 59.9523 61.1173 59.9523C63.3358 59.9523 64.2866 59.4611 64.2866 58.2978C64.2866 57.6257 64.0225 57.1346 60.5627 56.7985C57.6839 56.5141 55.888 55.8937 55.888 53.6447C55.888 51.5508 57.6839 50.3099 60.6947 50.3099C64.0753 50.3099 65.7392 51.4474 65.9505 53.929C65.9505 54.0066 65.9241 54.0841 65.8713 54.1617C65.8184 54.2134 65.7392 54.2651 65.66 54.2651H64.2866C64.1546 54.2651 64.0225 54.1617 63.9961 54.0324C63.6792 52.6106 62.8604 52.1453 60.6947 52.1453C58.2649 52.1453 57.9744 52.9726 57.9744 53.593C57.9744 54.3427 58.3178 54.5753 61.5927 54.9889C64.8412 55.4025 66.3731 55.9971 66.3731 58.2203C66.3467 60.4952 64.4451 61.7877 61.0909 61.7877Z"
            fill="#539E43" />
        <path
            d="M25.145 23.376C25.145 22.9107 24.8809 22.4712 24.4583 22.2386L13.2601 15.931C13.0752 15.8276 12.8639 15.7759 12.6527 15.75H12.547C12.3357 15.75 12.1244 15.8276 11.9396 15.931L0.741369 22.2386C0.318796 22.4712 0.0546875 22.9107 0.0546875 23.376L0.0810983 40.3342C0.0810983 40.5668 0.213152 40.7995 0.424439 40.9029C0.635726 41.0322 0.899834 41.0322 1.08471 40.9029L7.74024 37.1804C8.16281 36.9477 8.42692 36.5083 8.42692 36.0429V28.1067C8.42692 27.6414 8.69103 27.2019 9.1136 26.9693L11.9396 25.3665C12.1508 25.2373 12.3885 25.1856 12.6262 25.1856C12.8639 25.1856 13.1016 25.2373 13.2865 25.3665L16.1125 26.9693C16.535 27.2019 16.7992 27.6414 16.7992 28.1067V36.0429C16.7992 36.5083 17.0633 36.9477 17.4858 37.1804L24.1414 40.9029C24.3527 41.0322 24.6168 41.0322 24.8281 40.9029C25.0393 40.7995 25.1714 40.5668 25.1714 40.3342L25.145 23.376Z"
            fill="#333333" />
        <path
            d="M78.9668 0.0306777C78.7555 -0.0727259 78.4914 -0.0727259 78.3066 0.0306777C78.0953 0.159932 77.9632 0.366739 77.9632 0.599397V17.4025C77.9632 17.5576 77.884 17.7127 77.7255 17.8161C77.5671 17.8936 77.4086 17.8936 77.2501 17.8161L74.4506 16.2392C74.028 16.0065 73.5262 16.0065 73.1036 16.2392L61.9054 22.5727C61.4829 22.8053 61.2188 23.2448 61.2188 23.7101V36.3512C61.2188 36.8165 61.4829 37.256 61.9054 37.4886L73.1036 43.8221C73.5262 44.0547 74.028 44.0547 74.4506 43.8221L85.6488 37.4886C86.0713 37.256 86.3355 36.8165 86.3355 36.3512V4.83894C86.3355 4.34778 86.0713 3.90831 85.6488 3.67565L78.9668 0.0306777ZM77.9368 32.1892C77.9368 32.3184 77.884 32.4218 77.7783 32.4735L73.9488 34.645C73.8431 34.6967 73.7111 34.6967 73.6054 34.645L69.7759 32.4735C69.6702 32.4218 69.6174 32.2926 69.6174 32.1892V27.8462C69.6174 27.717 69.6702 27.6136 69.7759 27.5619L73.6054 25.3904C73.7111 25.3387 73.8431 25.3387 73.9488 25.3904L77.7783 27.5619C77.884 27.6136 77.9368 27.7428 77.9368 27.8462V32.1892Z"
            fill="#333333" />
        <path
            d="M116.234 27.7395C116.656 27.5068 116.894 27.0674 116.894 26.6021V23.5258C116.894 23.0605 116.63 22.621 116.234 22.3884L105.115 16.0807C104.692 15.8481 104.19 15.8481 103.768 16.0807L92.5695 22.4142C92.1469 22.6469 91.8828 23.0863 91.8828 23.5516V36.1927C91.8828 36.658 92.1469 37.0975 92.5695 37.3302L103.688 43.5344C104.111 43.767 104.613 43.767 105.009 43.5344L111.744 39.8636C111.955 39.7602 112.087 39.5275 112.087 39.2948C112.087 39.0622 111.955 38.8295 111.744 38.7261L100.493 32.3927C100.281 32.2634 100.149 32.0566 100.149 31.8239V27.8687C100.149 27.6361 100.281 27.4034 100.493 27.3L104.005 25.3354C104.217 25.2061 104.481 25.2061 104.692 25.3354L108.205 27.3C108.416 27.4293 108.548 27.6361 108.548 27.8687V30.9709C108.548 31.2035 108.68 31.4362 108.891 31.5396C109.103 31.6688 109.367 31.6688 109.578 31.5396L116.234 27.7395Z"
            fill="#333333" />
        <path
            d="M104.271 27.1482C104.351 27.0964 104.456 27.0964 104.535 27.1482L106.675 28.3631C106.754 28.4148 106.807 28.4924 106.807 28.5958V31.0258C106.807 31.1292 106.754 31.2067 106.675 31.2584L104.535 32.4734C104.456 32.5251 104.351 32.5251 104.271 32.4734L102.132 31.2584C102.053 31.2067 102 31.1292 102 31.0258V28.5958C102 28.4924 102.053 28.4148 102.132 28.3631L104.271 27.1482Z"
            fill="#539E43" />
        <path
            d="M43.8684 16.1354C43.4458 15.9028 42.944 15.9028 42.5214 16.1354L31.4025 22.4172C30.9799 22.6499 30.7422 23.0893 30.7422 23.5546V36.144C30.7422 36.6093 31.0063 37.0488 31.4025 37.2815L42.5214 43.5632C42.944 43.7959 43.4458 43.7959 43.8684 43.5632L54.9873 37.2815C55.4099 37.0488 55.6476 36.6093 55.6476 36.144V23.5546C55.6476 23.0893 55.3835 22.6499 54.9873 22.4172L43.8684 16.1354Z"
            fill="url(#paint0_linear_2643_2380)" />
        <mask id="mask0_2643_2380" style="mask-type:luminance" maskUnits="userSpaceOnUse" x="30" y="15" width="26"
            height="29">
            <path
                d="M43.8684 16.1354C43.4458 15.9028 42.944 15.9028 42.5214 16.1354L31.4025 22.4172C30.9799 22.6499 30.7422 23.0893 30.7422 23.5546V36.144C30.7422 36.6093 31.0063 37.0488 31.4025 37.2815L42.5214 43.5632C42.944 43.7959 43.4458 43.7959 43.8684 43.5632L54.9873 37.2815C55.4099 37.0488 55.6476 36.6093 55.6476 36.144V23.5546C55.6476 23.0893 55.3835 22.6499 54.9873 22.4172L43.8684 16.1354Z"
                fill="white" />
        </mask>
        <g mask="url(#mask0_2643_2380)">
            <path
                d="M55.0182 22.411L43.8465 16.1293C43.7408 16.0776 43.6088 16.0259 43.5031 16L30.9844 36.9909C31.09 37.1202 31.2221 37.2236 31.3541 37.3011L42.5259 43.5829C42.8428 43.7639 43.2126 43.8156 43.5559 43.7122L55.3088 22.6695C55.2295 22.5661 55.1239 22.4886 55.0182 22.411Z"
                fill="url(#paint1_linear_2643_2380)" />
        </g>
        <mask id="mask1_2643_2380" style="mask-type:luminance" maskUnits="userSpaceOnUse" x="30" y="15" width="26"
            height="29">
            <path
                d="M43.8684 16.1354C43.4458 15.9028 42.944 15.9028 42.5214 16.1354L31.4025 22.4172C30.9799 22.6499 30.7422 23.0893 30.7422 23.5546V36.144C30.7422 36.6093 31.0063 37.0488 31.4025 37.2815L42.5214 43.5632C42.944 43.7959 43.4458 43.7959 43.8684 43.5632L54.9873 37.2815C55.4099 37.0488 55.6476 36.6093 55.6476 36.144V23.5546C55.6476 23.0893 55.3835 22.6499 54.9873 22.4172L43.8684 16.1354Z"
                fill="white" />
        </mask>
        <g mask="url(#mask1_2643_2380)">
            <path fill-rule="evenodd" clip-rule="evenodd"
                d="M55.0439 37.2856C55.3609 37.1046 55.5986 36.7944 55.7042 36.4584L43.4496 15.9845C43.1327 15.9328 42.7893 15.9586 42.4988 16.1396L31.4062 22.3955L43.3704 43.7483C43.5288 43.7225 43.7137 43.6708 43.8722 43.5932L55.0439 37.2856Z"
                fill="url(#paint2_linear_2643_2380)" />
            <path fill-rule="evenodd" clip-rule="evenodd"
                d="M55.0456 37.2828L43.9002 43.5645C43.7418 43.6421 43.5833 43.6938 43.3984 43.7196L43.6097 44.1074L55.97 37.1018V36.9467L55.6531 36.4297C55.6002 36.7916 55.3625 37.1018 55.0456 37.2828Z"
                fill="url(#paint3_linear_2643_2380)" />
            <path fill-rule="evenodd" clip-rule="evenodd"
                d="M55.0456 37.2828L43.9002 43.5645C43.7418 43.6421 43.5833 43.6938 43.3984 43.7196L43.6097 44.1074L55.97 37.1018V36.9467L55.6531 36.4297C55.6002 36.7916 55.3625 37.1018 55.0456 37.2828Z"
                fill="url(#paint4_linear_2643_2380)" />
        </g>
    </g>
    <defs>
        <linearGradient id="paint0_linear_2643_2380" x1="47.7248" y1="20.8182" x2="35.9053" y2="39.7917"
            gradientUnits="userSpaceOnUse">
            <stop stop-color="#41873F" />
            <stop offset="0.3288" stop-color="#418B3D" />
            <stop offset="0.6352" stop-color="#419637" />
            <stop offset="0.9319" stop-color="#3FA92D" />
            <stop offset="1" stop-color="#3FAE2A" />
        </linearGradient>
        <linearGradient id="paint1_linear_2643_2380" x1="41.5111" y1="31.3175" x2="71.7322" y2="14.5428"
            gradientUnits="userSpaceOnUse">
            <stop offset="0.1376" stop-color="#41873F" />
            <stop offset="0.4032" stop-color="#54A044" />
            <stop offset="0.7136" stop-color="#66B848" />
            <stop offset="0.9081" stop-color="#6CC04A" />
        </linearGradient>
        <linearGradient id="paint2_linear_2643_2380" x1="30.3399" y1="29.8538" x2="56.0685" y2="29.8538"
            gradientUnits="userSpaceOnUse">
            <stop offset="0.0919165" stop-color="#6CC04A" />
            <stop offset="0.2864" stop-color="#66B848" />
            <stop offset="0.5968" stop-color="#54A044" />
            <stop offset="0.8624" stop-color="#41873F" />
        </linearGradient>
        <linearGradient id="paint3_linear_2643_2380" x1="30.3415" y1="40.2897" x2="56.0702" y2="40.2897"
            gradientUnits="userSpaceOnUse">
            <stop offset="0.0919165" stop-color="#6CC04A" />
            <stop offset="0.2864" stop-color="#66B848" />
            <stop offset="0.5968" stop-color="#54A044" />
            <stop offset="0.8624" stop-color="#41873F" />
        </linearGradient>
        <linearGradient id="paint4_linear_2643_2380" x1="59.8185" y1="20.2244" x2="53.5647" y2="53.7042"
            gradientUnits="userSpaceOnUse">
            <stop stop-color="#41873F" />
            <stop offset="0.3288" stop-color="#418B3D" />
            <stop offset="0.6352" stop-color="#419637" />
            <stop offset="0.9319" stop-color="#3FA92D" />
            <stop offset="1" stop-color="#3FAE2A" />
        </linearGradient>
        <clipPath id="clip0_2643_2380">
            <rect width="117" height="70" fill="white" />
        </clipPath>
    </defs>
</svg>