<svg width="137" height="70" viewBox="0 0 137 70" fill="none" xmlns="http://www.w3.org/2000/svg">
    <g clip-path="url(#clip0_2643_2345)">
        <mask id="mask0_2643_2345" style="mask-type:luminance" maskUnits="userSpaceOnUse" x="1" y="0" width="135"
            height="70">
            <path
                d="M1.92969 34.9606C1.92969 54.269 31.7448 69.9219 68.5221 69.9219C105.299 69.9219 135.115 54.269 135.115 34.9606C135.115 15.6524 105.299 -0.000717163 68.5221 -0.000717163C31.7448 -0.000717163 1.92969 15.6524 1.92969 34.9606Z"
                fill="white" />
        </mask>
        <g mask="url(#mask0_2643_2345)">
            <path
                d="M1.92969 34.9606C1.92969 54.269 31.7448 69.9219 68.5221 69.9219C105.299 69.9219 135.115 54.269 135.115 34.9606C135.115 15.6524 105.299 -0.000717163 68.5221 -0.000717163C31.7448 -0.000717163 1.92969 15.6524 1.92969 34.9606Z"
                fill="url(#paint0_radial_2643_2345)" />
        </g>
        <mask id="mask1_2643_2345" style="mask-type:luminance" maskUnits="userSpaceOnUse" x="-1" y="-4" width="139"
            height="78">
            <path d="M-0.84375 -3.97836H137.89V73.9062H-0.84375V-3.97836Z" fill="white" />
        </mask>
        <g mask="url(#mask1_2643_2345)">
            <path
                d="M68.5224 67.3281C103.863 67.3281 132.514 52.8375 132.514 34.9625C132.514 17.0877 103.863 2.59688 68.5224 2.59688C33.1815 2.59688 4.53125 17.0877 4.53125 34.9625C4.53125 52.8375 33.1815 67.3281 68.5224 67.3281Z"
                fill="#777BB3" />
        </g>
        <mask id="mask2_2643_2345" style="mask-type:luminance" maskUnits="userSpaceOnUse" x="-1" y="-4" width="139"
            height="78">
            <path d="M-0.84375 -3.97836H137.89V73.9062H-0.84375V-3.97836Z" fill="white" />
        </mask>
        <g mask="url(#mask2_2643_2345)">
            <path
                d="M38.1069 38.9796C41.0129 38.9796 43.1823 38.4447 44.5549 37.3904C45.9129 36.3469 46.8508 34.5389 47.3424 32.0171C47.8007 29.6599 47.6261 28.0139 46.8236 27.1257C46.003 26.2185 44.2288 25.7584 41.5505 25.7584H36.9065L34.3319 38.9796H38.1069ZM22.9177 55.2656C22.7021 55.2656 22.4974 55.1695 22.3603 55.0031C22.2231 54.837 22.1674 54.6183 22.2086 54.407L29.0316 19.3707C29.0976 19.032 29.3951 18.7873 29.741 18.7873H44.4463C49.0679 18.7873 52.5078 20.0397 54.67 22.5101C56.8437 24.9935 57.515 28.4649 56.665 32.8276C56.3191 34.605 55.7242 36.2558 54.8969 37.7337C54.0686 39.2132 52.9739 40.5822 51.6426 41.8034C50.0491 43.2918 48.2456 44.3712 46.2869 45.0062C44.3593 45.6329 41.8838 45.9507 38.9292 45.9507H32.9747L31.2743 54.682C31.2083 55.0209 30.911 55.2656 30.5652 55.2656H22.9177Z"
                fill="#080808" />
            <path
                d="M37.506 26.4772H41.5543C44.7869 26.4772 45.9098 27.1851 46.2913 27.607C46.9243 28.3074 47.0437 29.7844 46.6369 31.8779C46.1798 34.2216 45.3324 35.8834 44.118 36.8166C42.8747 37.7719 40.8534 38.256 38.1108 38.256H35.2123L37.506 26.4772ZM44.4502 18.0637H29.7446C29.0528 18.0637 28.4582 18.5531 28.3262 19.2308L21.5031 54.2671C21.4208 54.6899 21.532 55.1272 21.8064 55.4596C22.081 55.7921 22.4899 55.9844 22.9216 55.9844H30.5688C31.2608 55.9844 31.8555 55.495 31.9875 54.8173L33.5742 46.6695H38.9331C41.9635 46.6695 44.5147 46.3397 46.515 45.6894C48.5722 45.0224 50.4649 43.8913 52.14 42.3279C53.5255 41.0558 54.6666 39.6279 55.5313 38.0834C56.3962 36.5385 57.0177 34.8156 57.3782 32.9627C58.273 28.3704 57.5461 24.693 55.218 22.0334C52.9125 19.3993 49.2895 18.0637 44.4502 18.0637ZM33.4591 39.6983H38.1108C41.194 39.6983 43.4906 39.1187 44.9996 37.9594C46.5088 36.7998 47.5266 34.8644 48.0556 32.1524C48.5616 29.5486 48.3311 27.7111 47.3641 26.6406C46.3958 25.5702 44.4596 25.0349 41.5543 25.0349H36.3147L33.4591 39.6983ZM44.4502 19.506C48.874 19.506 52.1013 20.6647 54.1298 22.9822C56.158 25.2998 56.7688 28.5346 55.9596 32.6877C55.6265 34.3986 55.0631 35.9627 54.2699 37.3798C53.4758 38.7978 52.4389 40.0945 51.1576 41.2702C49.6305 42.6964 47.9342 43.7127 46.0675 44.318C44.2009 44.925 41.8234 45.2272 38.9331 45.2272H32.3827L30.5688 54.5421H22.9216L29.7446 19.506H44.4502Z"
                fill="white" />
            <path
                d="M74.2071 45.9453C73.9913 45.9453 73.7868 45.8492 73.6498 45.6828C73.5123 45.5167 73.4566 45.2982 73.4978 45.0867L76.516 29.5845C76.8031 28.1102 76.7323 27.052 76.3168 26.6049C76.0625 26.3316 75.2985 25.8732 73.0395 25.8732H67.5715L63.7768 45.3617C63.7108 45.7006 63.4133 45.9453 63.0675 45.9453H55.4804C55.2646 45.9453 55.0601 45.8492 54.9228 45.6828C54.7856 45.5167 54.7299 45.298 54.7711 45.0867L61.5941 10.0504C61.6601 9.71166 61.9576 9.46695 62.3035 9.46695H69.8905C70.1063 9.46695 70.3108 9.5631 70.4481 9.72921C70.5854 9.89555 70.641 10.1141 70.5998 10.3256L68.9533 18.7819H74.8355C79.3167 18.7819 82.3554 19.5703 84.1252 21.1924C85.9292 22.8472 86.4921 25.4931 85.7984 29.0576L82.6239 45.3617C82.5579 45.7006 82.2607 45.9453 81.9146 45.9453H74.2071Z"
                fill="#080808" />
            <path
                d="M69.8865 8.7512H62.2995C61.6075 8.7512 61.0128 9.24062 60.8809 9.91827L54.0578 44.9546C53.9755 45.3774 54.0867 45.8147 54.3613 46.1471C54.6359 46.4796 55.0449 46.6719 55.4765 46.6719H63.0635C63.7553 46.6719 64.3502 46.1825 64.4822 45.5048L68.1632 26.5998H73.0355C75.2907 26.5998 75.7639 27.0805 75.783 27.1012C75.9198 27.2481 76.0997 27.9284 75.8027 29.4524L72.7845 44.9546C72.7022 45.3774 72.8134 45.8147 73.088 46.1471C73.3626 46.4796 73.7716 46.6719 74.2032 46.6719H81.9106C82.6024 46.6719 83.1973 46.1825 83.3293 45.5048L86.5036 29.2007C87.2485 25.3736 86.6112 22.5026 84.6102 20.6671C82.7007 18.9168 79.5021 18.0661 74.8316 18.0661H69.8256L71.3052 10.4688C71.3873 10.0459 71.2763 9.60841 71.0017 9.2762C70.7271 8.94375 70.3181 8.7512 69.8865 8.7512ZM69.8865 10.1935L68.0726 19.5084H74.8316C79.0844 19.5084 82.0178 20.2493 83.6323 21.7291C85.2468 23.2099 85.7304 25.6091 85.0852 28.9257L81.9106 45.2296H74.2032L77.2214 29.7276C77.5648 27.9642 77.4386 26.7613 76.8423 26.12C76.2457 25.4786 74.9766 25.1575 73.0355 25.1575H66.9717L63.0635 45.2296H55.4765L62.2995 10.1935H69.8865Z"
                fill="white" />
            <path
                d="M97.8022 38.9796C100.708 38.9796 102.878 38.4447 104.25 37.3904C105.608 36.3471 106.546 34.5392 107.038 32.0171C107.496 29.6599 107.322 28.0139 106.519 27.1257C105.698 26.2185 103.924 25.7584 101.246 25.7584H96.6018L94.0272 38.9796H97.8022ZM82.6132 55.2656C82.3976 55.2656 82.1929 55.1695 82.0559 55.0031C81.9186 54.837 81.8627 54.6183 81.9039 54.407L88.7269 19.3707C88.7931 19.032 89.0904 18.7873 89.4365 18.7873H104.142C108.763 18.7873 112.203 20.0397 114.366 22.5101C116.539 24.9933 117.21 28.4647 116.361 32.8276C116.014 34.605 115.42 36.2558 114.592 37.7337C113.764 39.2132 112.669 40.5822 111.338 41.8034C109.744 43.2918 107.941 44.3712 105.982 45.0062C104.055 45.6329 101.579 45.9507 98.6245 45.9507H92.6698L90.97 54.682C90.9038 55.0209 90.6066 55.2656 90.2605 55.2656H82.6132Z"
                fill="#080808" />
            <path
                d="M97.1932 26.4772H101.242C104.474 26.4772 105.597 27.1851 105.979 27.607C106.612 28.3074 106.731 29.7844 106.324 31.8776C105.867 34.2216 105.019 35.8834 103.805 36.8166C102.562 37.7719 100.541 38.256 97.798 38.256H94.8998L97.1932 26.4772ZM104.137 18.0637H89.4321C88.7403 18.0637 88.1457 18.5531 88.0137 19.2308L81.1906 54.2671C81.1083 54.6899 81.2195 55.1272 81.4939 55.4596C81.7685 55.7921 82.1774 55.9844 82.6091 55.9844H90.2563C90.948 55.9844 91.543 55.495 91.6749 54.8173L93.2615 46.6695H98.6203C101.651 46.6695 104.202 46.3397 106.202 45.6894C108.259 45.0224 110.153 43.8911 111.828 42.3274C113.213 41.0555 114.354 39.6279 115.219 38.0834C116.083 36.5385 116.705 34.8156 117.065 32.9627C117.96 28.3702 117.233 24.6928 114.905 22.0332C112.6 19.3993 108.977 18.0637 104.137 18.0637ZM93.1466 39.6983H97.798C100.881 39.6983 103.178 39.1187 104.687 37.9594C106.196 36.7998 107.214 34.8644 107.743 32.1524C108.249 29.5486 108.019 27.7111 107.051 26.6406C106.083 25.5702 104.147 25.0349 101.242 25.0349H96.002L93.1466 39.6983ZM104.137 19.506C108.561 19.506 111.789 20.6647 113.817 22.9822C115.846 25.2998 116.456 28.5346 115.647 32.6877C115.314 34.3986 114.75 35.9627 113.957 37.3798C113.163 38.7978 112.126 40.0945 110.845 41.2702C109.318 42.6964 107.621 43.7127 105.755 44.318C103.888 44.925 101.511 45.2272 98.6203 45.2272H92.07L90.2563 54.5421H82.6091L89.4321 19.506H104.137Z"
                fill="white" />
        </g>
    </g>
    <defs>
        <radialGradient id="paint0_radial_2643_2345" cx="0" cy="0" r="1" gradientUnits="userSpaceOnUse"
            gradientTransform="translate(41.9121 12.2906) scale(87.4454 87.2735)">
            <stop stop-color="#AEB2D5" />
            <stop offset="0.3" stop-color="#AEB2D5" />
            <stop offset="0.75" stop-color="#484C89" />
            <stop offset="1" stop-color="#484C89" />
        </radialGradient>
        <clipPath id="clip0_2643_2345">
            <rect width="137" height="70" fill="white" />
        </clipPath>
    </defs>
</svg>