<svg width="280" height="70" viewBox="0 0 280 70" fill="none" xmlns="http://www.w3.org/2000/svg">
    <g clip-path="url(#clip0_2643_2494)">
        <path
            d="M92.9352 41.5691V54.6184H88.8984V20.0938H98.3463C101.997 20.0938 104.874 21.0012 106.892 22.7728C108.911 24.5876 109.898 27.0937 109.898 30.3777C109.898 33.6616 108.782 36.3407 106.549 38.4147C104.316 40.4888 101.267 41.5259 97.4874 41.5259H92.9352V41.5691ZM92.9352 23.7666V37.9394H97.1438C99.9352 37.9394 102.04 37.2913 103.5 36.0382C104.96 34.7851 105.69 32.9703 105.69 30.637C105.69 26.0999 103.027 23.8098 97.6592 23.8098H92.9352V23.7666ZM124.242 55.2234C120.635 55.2234 117.714 54.0567 115.567 51.7666C113.42 49.4765 112.346 46.4086 112.346 42.6061C112.346 38.4579 113.463 35.2172 115.739 32.8839C117.972 30.5505 121.021 29.3839 124.843 29.3839C128.494 29.3839 131.328 30.5073 133.389 32.7975C135.451 35.0444 136.481 38.1987 136.481 42.2172C136.481 46.1493 135.365 49.3036 133.175 51.6802C130.984 54.0567 127.978 55.2234 124.242 55.2234ZM124.543 32.711C122.009 32.711 120.033 33.5752 118.573 35.3036C117.113 37.032 116.383 39.4086 116.383 42.4333C116.383 45.3715 117.113 47.6617 118.616 49.3468C120.119 51.032 122.095 51.8962 124.586 51.8962C127.119 51.8962 129.052 51.0752 130.426 49.4333C131.8 47.7913 132.487 45.4147 132.487 42.39C132.487 39.3221 131.8 36.9456 130.426 35.2604C129.052 33.5752 127.076 32.711 124.543 32.711ZM173.586 29.9888L166.242 54.6617H162.162L157.095 37.032C156.923 36.3407 156.794 35.6061 156.708 34.7419H156.622C156.579 35.3036 156.408 36.0814 156.107 36.9888L150.61 54.7049H146.702L139.273 30.032H143.395L148.463 48.5691C148.635 49.1308 148.721 49.8654 148.806 50.7728H148.978C149.021 50.0814 149.15 49.3036 149.408 48.5258L155.033 30.032H158.641L163.708 48.6123C163.88 49.2172 164.009 49.9518 164.052 50.816H164.224C164.267 50.211 164.395 49.4333 164.61 48.6123L169.592 30.032H173.586V29.9888ZM197.849 43.2975H180.543C180.586 46.0629 181.359 48.1802 182.733 49.6493C184.107 51.1184 186.082 51.8962 188.53 51.8962C191.279 51.8962 193.813 50.9888 196.132 49.1308V52.8468C193.984 54.4024 191.15 55.2234 187.586 55.2234C184.107 55.2234 181.401 54.0999 179.426 51.853C177.451 49.6061 176.463 46.4518 176.463 42.39C176.463 38.5444 177.536 35.4333 179.684 33.0135C181.831 30.5937 184.536 29.3839 187.714 29.3839C190.935 29.3839 193.383 30.4209 195.144 32.495C196.905 34.5691 197.763 37.4641 197.763 41.1802V43.2975H197.849ZM193.813 39.9271C193.813 37.637 193.254 35.8654 192.181 34.6123C191.107 33.3592 189.604 32.711 187.714 32.711C185.868 32.711 184.279 33.3592 182.99 34.6987C181.702 36.0382 180.886 37.7666 180.586 39.9271H193.813ZM216.53 33.9641C215.843 33.4456 214.855 33.1863 213.567 33.1863C211.892 33.1863 210.475 33.9641 209.359 35.5629C208.242 37.1616 207.684 39.3221 207.684 42.0444V54.6184H203.776V29.9456H207.684V35.0444H207.77C208.328 33.316 209.187 31.9765 210.346 30.9826C211.506 30.032 212.794 29.5135 214.211 29.5135C215.242 29.5135 216.015 29.6431 216.573 29.8592V33.9641H216.53ZM234.782 54.6184V20.0938H244.53C247.494 20.0938 249.855 20.8283 251.573 22.2975C253.291 23.7666 254.193 25.6678 254.193 28.0012C254.193 29.9456 253.678 31.674 252.604 33.0999C251.53 34.5259 250.113 35.5629 248.267 36.1678V36.2542C250.586 36.5135 252.432 37.4209 253.806 38.89C255.181 40.3592 255.868 42.3036 255.868 44.6802C255.868 47.6184 254.794 50.0382 252.69 51.853C250.586 53.6678 247.923 54.6184 244.702 54.6184H234.782ZM238.776 23.7666V34.9147H242.898C245.089 34.9147 246.849 34.3962 248.095 33.316C249.34 32.2357 249.984 30.7234 249.984 28.8222C249.984 25.4518 247.794 23.8098 243.414 23.8098H238.776V23.7666ZM238.776 38.5444V50.9888H244.23C246.592 50.9888 248.438 50.4271 249.727 49.3036C251.015 48.1802 251.659 46.6246 251.659 44.6802C251.659 40.6184 248.911 38.5444 243.371 38.5444H238.776ZM266.862 54.6184H262.825V20.0938H266.862V54.6184Z"
            fill="black" />
        <path
            d="M61.5374 2.81327V67.1528C61.5374 68.7515 60.249 70.0911 58.6171 70.0911H40.4515C38.8625 70.0911 37.5312 68.7948 37.5312 67.1528V2.81327C37.5312 1.21451 38.8196 -0.125 40.4515 -0.125H58.6171C60.2061 -0.0817901 61.5374 1.21451 61.5374 2.81327Z"
            fill="url(#paint0_linear_2643_2494)" />
        <path
            d="M47.3655 20.3914V70.126H23.3594V20.3914C23.3594 18.7926 24.6477 17.4531 26.2796 17.4531H44.4453C46.0342 17.4531 47.3655 18.7494 47.3655 20.3914Z"
            fill="url(#paint1_linear_2643_2494)" />
        <path
            d="M9.1875 37.9383V67.1914C9.1875 68.7901 10.4758 70.1296 12.1077 70.1296H33.1936V37.9383C33.1936 36.3395 31.9053 35 30.2734 35H12.1077C10.5188 35 9.1875 36.2963 9.1875 37.9383Z"
            fill="url(#paint2_linear_2643_2494)" />
    </g>
    <defs>
        <linearGradient id="paint0_linear_2643_2494" x1="33.5722" y1="-0.10992" x2="63.9478" y2="65.8808"
            gradientUnits="userSpaceOnUse">
            <stop stop-color="#E6AD10" />
            <stop offset="1" stop-color="#C87E0E" />
        </linearGradient>
        <linearGradient id="paint1_linear_2643_2494" x1="22.0553" y1="18.1061" x2="47.6356" y2="68.953"
            gradientUnits="userSpaceOnUse">
            <stop stop-color="#F6D751" />
            <stop offset="1" stop-color="#E6AD10" />
        </linearGradient>
        <linearGradient id="paint2_linear_2643_2494" x1="13.3574" y1="33.2871" x2="27.4527" y2="67.5255"
            gradientUnits="userSpaceOnUse">
            <stop stop-color="#F9E589" />
            <stop offset="1" stop-color="#F6D751" />
        </linearGradient>
        <clipPath id="clip0_2643_2494">
            <rect width="280" height="70" fill="white" />
        </clipPath>
    </defs>
</svg>