<svg width="322" height="70" viewBox="0 0 322 70" fill="none" xmlns="http://www.w3.org/2000/svg">
    <g clip-path="url(#clip0_2643_2334)">
        <path
            d="M114.753 34.6479C114.753 25.6284 112.172 20.9948 107.008 20.7408C104.954 20.6442 102.948 20.9703 100.997 21.7252C99.4403 22.2806 98.3922 22.8303 97.8409 23.3853V44.9181C101.143 46.9834 104.076 47.9429 106.631 47.7924C112.041 47.4362 114.749 43.0584 114.749 34.6473L114.753 34.6479ZM121.119 35.0222C121.119 39.6051 120.04 43.4099 117.871 46.4329C115.454 49.8567 112.103 51.6197 107.82 51.7163C104.59 51.819 101.262 50.8107 97.8427 48.697V68.2661L92.3047 66.2974V22.8602C93.2135 21.7495 94.3828 20.7949 95.8007 19.9859C99.0965 18.0717 103.105 17.0874 107.817 17.0391L107.895 17.1176C112.203 17.0632 115.523 18.826 117.854 22.401C120.029 25.6799 121.12 29.8842 121.12 35.0196L121.119 35.0222Z"
            fill="#646464" />
        <path
            d="M154.971 47.8698C154.971 54.0168 154.353 58.2707 153.117 60.6432C151.875 63.0102 149.512 64.9002 146.024 66.3071C143.195 67.4178 140.135 68.0217 136.849 68.1246L135.934 64.6469C139.273 64.194 141.624 63.7412 142.989 63.2884C145.674 62.3827 147.516 60.9939 148.528 59.1342C149.339 57.6184 149.739 54.7267 149.739 50.4431V49.0059C145.952 50.7206 141.981 51.5724 137.835 51.5724C135.109 51.5724 132.703 50.7212 130.63 49.0059C128.304 47.1401 127.141 44.7731 127.141 41.9068V18.9369L132.679 17.0469V40.1655C132.679 42.6353 133.479 44.5371 135.078 45.8714C136.678 47.2057 138.75 47.8456 141.289 47.7973C143.827 47.743 146.548 46.7647 149.438 44.8505V17.8788H154.976V47.8673L154.971 47.8698Z"
            fill="#646464" />
        <path
            d="M176.6 51.4168C175.939 51.4712 175.333 51.4953 174.776 51.4953C171.643 51.4953 169.202 50.7526 167.459 49.2615C165.721 47.7698 164.848 45.7113 164.848 43.0848V21.3476H161.055V17.8755H164.848V8.65779L170.38 6.69531V17.8767H176.602V21.3489H170.38V42.9373C170.38 45.0082 170.937 46.4758 172.052 47.3331C173.009 48.0393 174.53 48.4438 176.602 48.5466V51.421L176.6 51.4168Z"
            fill="#646464" />
        <path
            d="M210.107 50.9657H204.569V29.6622C204.569 27.4947 204.06 25.6288 203.048 24.0709C201.879 22.3079 200.255 21.4264 198.171 21.4264C195.632 21.4264 192.457 22.7607 188.647 25.4294V50.9639H183.109V0.0435369L188.647 -1.69531V21.4976C192.186 18.9311 196.051 17.6451 200.253 17.6451C203.186 17.6451 205.56 18.6295 207.377 20.5919C209.201 22.5544 210.11 24.9995 210.11 27.9203V50.9583L210.107 50.9657Z"
            fill="#646464" />
        <path
            d="M239.568 33.7768C239.568 30.3109 238.907 27.452 237.592 25.1848C236.029 22.4257 233.599 20.9705 230.313 20.8194C224.242 21.1696 221.212 25.505 221.212 33.8158C221.212 37.6256 221.843 40.8097 223.115 43.3619C224.739 46.6166 227.175 48.2222 230.425 48.1683C236.521 48.12 239.57 43.3259 239.57 33.7781L239.568 33.7768ZM245.633 33.813C245.633 38.7459 244.367 42.8511 241.84 46.1281C239.059 49.7991 235.219 51.6407 230.315 51.6407C225.456 51.6407 221.668 49.7991 218.933 46.1281C216.455 42.8492 215.219 38.744 215.219 33.813C215.219 29.1757 216.558 25.2768 219.236 22.0989C222.065 18.7296 225.788 17.0391 230.381 17.0391C234.98 17.0391 238.724 18.7296 241.608 22.0989C244.286 25.2749 245.625 29.1732 245.625 33.813H245.633Z"
            fill="#646464" />
        <path
            d="M277.371 50.9612H271.833V28.4497C271.833 25.9799 271.087 24.0539 269.597 22.6651C268.106 21.2824 266.119 20.6122 263.641 20.6667C261.012 20.715 258.509 21.5723 256.132 23.2331V50.9606H250.594V22.5517C253.781 20.2392 256.714 18.7296 259.39 18.0234C261.917 17.3655 264.146 17.0391 266.066 17.0391C267.381 17.0391 268.617 17.1659 269.78 17.4195C271.955 17.9206 273.724 18.8505 275.088 20.2151C276.609 21.7248 277.366 23.5361 277.366 25.6553V50.9606L277.371 50.9612Z"
            fill="#646464" />
        <path
            d="M37.6145 0.245219C34.765 0.258414 32.0442 0.500565 29.6516 0.922919C22.5962 2.16495 21.3156 4.76363 21.3156 9.55832V15.8893H37.9813V17.9992H21.3156H15.0621C10.2184 17.9992 5.97399 20.9008 4.64993 26.4178C3.1195 32.7426 3.05174 36.6948 4.64993 43.2983C5.83474 48.2157 8.66437 51.7169 13.508 51.7169H19.2388V44.1284C19.2388 38.6461 23.9985 33.808 29.6509 33.808H46.298C50.9321 33.808 54.6339 30.0057 54.6339 25.3709V9.55584C54.6339 5.05478 50.8234 1.67619 46.298 0.920441C43.4348 0.445494 40.464 0.229733 37.6139 0.242742L37.6145 0.245219ZM28.601 5.33663C30.3229 5.33663 31.7284 6.76079 31.7284 8.51141C31.7284 10.2558 30.3223 11.667 28.601 11.667C26.8735 11.667 25.4736 10.2565 25.4736 8.51141C25.4736 6.76079 26.8735 5.33663 28.601 5.33663Z"
            fill="url(#paint0_linear_2643_2334)" />
        <path
            d="M56.7076 17.9922V25.3701C56.7076 31.0884 51.8428 35.901 46.2955 35.901H29.6484C25.0882 35.901 21.3125 39.7901 21.3125 44.3382V60.1532C21.3125 64.6543 25.2405 67.3019 29.6484 68.5904C34.9241 70.1366 39.986 70.416 46.2955 68.5904C50.4914 67.38 54.6314 64.943 54.6314 60.1532V53.8223H37.9844V51.7124H54.6314H62.9674C67.811 51.7124 69.6187 48.3456 71.3033 43.2938C73.0432 38.0909 72.9693 33.0849 71.3033 26.4133C70.1061 21.608 67.8197 17.9947 62.9674 17.9947H56.7138L56.7076 17.9922ZM47.346 58.0471C49.0735 58.0471 50.4734 59.4576 50.4734 61.2026C50.4734 62.9533 49.0735 64.3774 47.346 64.3774C45.6241 64.3774 44.2186 62.9533 44.2186 61.2026C44.2186 59.4582 45.6247 58.0471 47.346 58.0471Z"
            fill="url(#paint1_linear_2643_2334)" />
        <path
            d="M288.183 12.9559H289.154V6.8876H291.454V6.16406H285.883V6.8876H288.183V12.9559ZM292.315 12.9559H293.144V7.41353L294.944 12.9553H295.868L297.744 7.43212V12.9559H298.649V6.16654H297.452L295.402 11.9852L293.653 6.16654H292.315V12.9559Z"
            fill="#646464" />
    </g>
    <defs>
        <linearGradient id="paint0_linear_2643_2334" x1="3.47546" y1="0.243857" x2="41.809" y2="33.0109"
            gradientUnits="userSpaceOnUse">
            <stop stop-color="#5A9FD4" />
            <stop offset="1" stop-color="#306998" />
        </linearGradient>
        <linearGradient id="paint1_linear_2643_2334" x1="46.9528" y1="60.6911" x2="33.202" y2="41.3849"
            gradientUnits="userSpaceOnUse">
            <stop stop-color="#FFD43B" />
            <stop offset="1" stop-color="#FFE873" />
        </linearGradient>
        <clipPath id="clip0_2643_2334">
            <rect width="322" height="70" fill="white" />
        </clipPath>
    </defs>
</svg>