<svg width="294" height="70" viewBox="0 0 294 70" fill="none" xmlns="http://www.w3.org/2000/svg">
    <g clip-path="url(#clip0_2643_2300)">
        <path
            d="M59.5379 53.5451L44.8766 45.112C42.8169 43.9313 40.183 44.6335 38.9908 46.6843C38.529 47.4922 38.348 48.3809 38.4353 49.2447V65.7255C38.4353 68.0808 40.3577 69.9949 42.7295 69.9949C45.095 69.9949 47.0174 68.0808 47.0174 65.7255V56.2484L55.2312 60.9714C57.2909 62.1584 59.9311 61.4499 61.117 59.3992C62.3091 57.3484 61.6038 54.7259 59.5379 53.5451Z"
            fill="#29B5E8" />
        <path
            d="M23.0781 35.479C23.1031 33.9565 22.2979 32.5396 20.9747 31.7752L6.31341 23.3484C5.67677 22.9817 4.94651 22.7891 4.21626 22.7891C2.71205 22.7891 1.31396 23.5907 0.564975 24.8833C-0.595945 26.8844 0.0968626 29.451 2.10663 30.6069L10.5576 35.4604L2.10663 40.3201C1.13295 40.8794 0.433903 41.7805 0.146795 42.8619C-0.146557 43.9432 0.00323961 45.0742 0.564975 46.0437C1.31396 47.3363 2.71205 48.138 4.21002 48.138C4.94651 48.138 5.67677 47.9453 6.31341 47.5787L20.9747 39.1518C22.2854 38.3936 23.0906 36.9892 23.0781 35.479Z"
            fill="#29B5E8" />
        <path
            d="M9.64173 17.3743L24.303 25.8011C26.0132 26.7892 28.1228 26.4661 29.471 25.1548C30.3261 24.3718 30.8566 23.2532 30.8566 22.0103V5.11932C30.8566 2.75781 28.9342 0.84375 26.5687 0.84375C24.1969 0.84375 22.2745 2.75781 22.2745 5.11932V14.7331L13.9484 9.94797C11.8887 8.76101 9.25475 9.46325 8.06263 11.514C6.8705 13.5648 7.58203 16.1873 9.64173 17.3743Z"
            fill="#29B5E8" />
        <path
            d="M42.6064 36.1644C42.6064 36.4876 42.4192 36.935 42.1882 37.1712L36.3774 42.9569C36.1464 43.1868 35.6908 43.3732 35.3663 43.3732H33.887C33.5625 43.3732 33.1068 43.1868 32.8759 42.9569L27.0588 37.1712C26.8279 36.935 26.6406 36.4876 26.6406 36.1644V34.6916C26.6406 34.3622 26.8279 33.9148 27.0588 33.6848L32.8759 27.8929C33.1068 27.663 33.5625 27.4766 33.887 27.4766H35.3663C35.6908 27.4766 36.1464 27.663 36.3774 27.8929L42.1882 33.6848C42.4192 33.9148 42.6064 34.3622 42.6064 34.6916V36.1644ZM37.4197 35.456V35.3938C37.4197 35.1577 37.2824 34.8283 37.1139 34.6543L35.3975 32.9515C35.2289 32.7775 34.8981 32.6408 34.6547 32.6408H34.5923C34.3551 32.6408 34.0243 32.7775 33.8496 32.9515L32.1394 34.6543C31.9709 34.8221 31.8336 35.1515 31.8336 35.3938V35.456C31.8336 35.6983 31.9709 36.0277 32.1394 36.1955L33.8496 37.9045C34.0243 38.0723 34.3551 38.209 34.5923 38.209H34.6547C34.8981 38.209 35.2289 38.0723 35.3975 37.9045L37.1139 36.1955C37.2824 36.0277 37.4197 35.6983 37.4197 35.456Z"
            fill="#29B5E8" />
        <path
            d="M44.8827 25.8011L59.544 17.3743C61.6037 16.1935 62.3152 13.5648 61.1231 11.514C59.931 9.46325 57.297 8.76101 55.2373 9.94798L47.0235 14.671V5.11932C47.0235 2.75781 45.1011 0.84375 42.7356 0.84375C40.3638 0.84375 38.4414 2.75781 38.4414 5.11932V21.6747C38.3603 22.5323 38.5288 23.4272 38.9969 24.2351C40.1891 26.2859 42.823 26.9881 44.8827 25.8011Z"
            fill="#29B5E8" />
        <path
            d="M27.2428 44.6147C26.2691 44.4283 25.2268 44.5836 24.303 45.1119L9.64173 53.5449C7.58203 54.7257 6.8705 57.3482 8.06263 59.399C9.25475 61.456 11.8887 62.1582 13.9484 60.9712L22.2745 56.1861V65.7253C22.2745 68.0806 24.1969 69.9947 26.5687 69.9947C28.9342 69.9947 30.8566 68.0806 30.8566 65.7253V48.8344C30.8566 46.7028 29.29 44.9379 27.2428 44.6147Z"
            fill="#29B5E8" />
        <path
            d="M68.701 24.8291C67.5151 22.7721 64.8749 22.0698 62.8152 23.2568L48.1539 31.6836C46.7496 32.4915 45.9756 33.9706 46.0006 35.4745C45.9881 36.9722 46.762 38.4326 48.1539 39.228L62.8152 47.6611C64.8749 48.8418 67.5088 48.1396 68.701 46.0888C69.8931 44.038 69.1815 41.4155 67.1218 40.2286L58.8206 35.4558L67.1218 30.6831C69.1878 29.5024 69.8931 26.8798 68.701 24.8291Z"
            fill="#29B5E8" />
        <path
            d="M293.996 34.467V34.4732V34.6286C293.996 35.424 293.328 36.0144 292.504 36.0144H271.907C271.944 36.4991 272.007 36.9714 272.107 37.4375C273.062 41.8809 276.881 45.187 281.419 45.2243C281.431 45.2243 281.662 45.2243 282.018 45.2243C282.074 45.2243 282.13 45.2243 282.187 45.2243H282.617C282.711 45.2243 282.805 45.2243 282.904 45.218C282.992 45.218 283.079 45.2118 283.167 45.2056C283.173 45.2056 283.179 45.2056 283.185 45.1994C284.689 45.0813 286.206 44.4785 287.561 43.5091C287.561 43.5091 287.561 43.5091 287.567 43.5091C287.635 43.4593 287.71 43.4034 287.779 43.3475C287.791 43.3413 287.804 43.3288 287.823 43.3164C287.879 43.2729 287.941 43.2232 288.004 43.1735C288.029 43.1548 288.047 43.1362 288.072 43.1175C288.122 43.0803 288.172 43.0368 288.222 42.9933C288.253 42.9684 288.291 42.9373 288.322 42.9125C288.359 42.8752 288.397 42.8379 288.441 42.8068C288.478 42.7695 288.522 42.7322 288.559 42.695C288.59 42.6701 288.622 42.639 288.653 42.608C288.703 42.5645 288.746 42.521 288.796 42.4775C288.821 42.4526 288.846 42.4215 288.871 42.3967C288.921 42.3469 288.971 42.2972 289.021 42.2475C289.046 42.2227 289.065 42.204 289.09 42.1792C289.14 42.1232 289.19 42.0673 289.24 42.0114C289.264 41.9927 289.283 41.9679 289.302 41.943C289.358 41.8871 289.408 41.8311 289.458 41.7752C289.477 41.7504 289.502 41.7255 289.52 41.7006C289.57 41.6385 289.614 41.5826 289.664 41.5266C289.689 41.4956 289.714 41.4645 289.739 41.4334C289.783 41.3775 289.826 41.3278 289.864 41.2781C289.901 41.2283 289.932 41.1848 289.964 41.1413C289.995 41.0978 290.026 41.0605 290.057 41.017C290.107 40.9487 290.157 40.8803 290.201 40.812C290.219 40.7871 290.232 40.7685 290.244 40.7498C290.369 40.5696 290.488 40.3832 290.606 40.1905C290.606 40.1905 290.606 40.1843 290.613 40.1781C290.638 40.1346 290.669 40.0973 290.7 40.0538C290.713 40.0352 290.725 40.0165 290.744 40.0041C290.762 39.973 290.787 39.9544 290.806 39.9295C290.825 39.9109 290.844 39.8922 290.862 39.8736C290.887 39.8549 290.906 39.8363 290.931 39.8176C290.95 39.799 290.968 39.7804 290.993 39.7679C291.025 39.7431 291.062 39.7182 291.099 39.6996C291.124 39.6809 291.156 39.6623 291.181 39.6499C291.212 39.6374 291.237 39.625 291.262 39.6126C291.287 39.6001 291.312 39.5939 291.33 39.5815C291.368 39.5691 291.399 39.5629 291.437 39.5504C291.455 39.5442 291.468 39.538 291.486 39.5318C291.605 39.5069 291.73 39.4883 291.848 39.4883C291.98 39.4883 292.117 39.5069 292.242 39.5442C292.248 39.5442 292.248 39.5442 292.254 39.5442C292.304 39.5629 292.36 39.5753 292.41 39.6001C292.423 39.6064 292.435 39.6064 292.448 39.6126C292.504 39.6374 292.554 39.6623 292.604 39.6934L292.629 39.7058C293.315 40.2029 293.527 41.073 293.109 41.7876L293.103 41.7939C293.053 41.8746 293.003 41.9554 292.953 42.03C292.941 42.0487 292.928 42.0673 292.916 42.0859C291.455 44.2983 289.47 46.0632 287.255 47.1197C287.205 47.1383 287.161 47.1632 287.111 47.188C287.105 47.188 287.092 47.1942 287.086 47.1942C286.063 47.6665 284.964 47.9959 283.791 48.1326C283.766 48.1326 283.741 48.1388 283.716 48.1388C283.616 48.1513 283.516 48.1637 283.416 48.1699C283.36 48.1699 283.304 48.1761 283.241 48.1824C283.173 48.1824 283.098 48.1886 283.029 48.1948C282.892 48.1948 282.755 48.201 282.617 48.201C282.599 48.201 282.081 48.201 281.731 48.201C281.531 48.201 281.419 48.201 281.406 48.201C274.478 48.1513 268.898 42.3967 268.898 35.3494C268.898 28.1841 274.516 22.3984 281.5 22.3984C281.706 22.3984 281.912 22.4047 282.118 22.4109C284.552 22.5352 286.799 23.3617 288.665 24.7164C288.672 24.7227 288.678 24.7289 288.684 24.7289C288.79 24.8034 288.89 24.8842 288.99 24.9588C289.04 25.0023 289.096 25.0458 289.152 25.0893C289.202 25.1266 289.252 25.1701 289.302 25.2074C291.93 27.3887 293.702 30.6637 293.996 34.4545V34.467ZM272.107 33.0874H290.75C289.826 28.6129 285.963 25.3752 281.5 25.3752C276.956 25.3752 273.124 28.5508 272.107 33.0874Z"
            fill="#29B5E8" />
        <path
            d="M241.336 22.8335C241.567 23.0634 241.723 23.3741 241.76 23.7346C241.76 23.7843 241.767 23.834 241.767 23.8837V46.7095C241.767 47.5236 241.08 48.201 240.269 48.201C239.457 48.201 238.777 47.5236 238.777 46.7095V43.6768C238.209 44.3604 237.585 44.9819 236.904 45.5226C236.886 45.5412 236.867 45.5536 236.848 45.5723C236.786 45.622 236.717 45.6717 236.655 45.7152C234.595 47.2937 232.092 48.201 229.477 48.201C225.264 48.201 221.557 45.97 219.347 42.5893C219.328 42.5645 219.303 42.5334 219.285 42.5085C219.222 42.4029 219.16 42.2972 219.091 42.1854C219.047 42.117 219.01 42.0487 218.966 41.9803C218.923 41.9119 218.885 41.8374 218.848 41.7628C218.785 41.6571 218.723 41.5453 218.667 41.4396C218.648 41.4023 218.636 41.3651 218.617 41.3278C217.799 39.712 217.294 37.8912 217.206 35.9585C217.194 35.7409 217.188 35.5234 217.188 35.2997C217.188 35.076 217.194 34.8585 217.206 34.641C217.294 32.7083 217.799 30.8874 218.617 29.2654C218.636 29.2344 218.648 29.1971 218.667 29.1598C218.723 29.0542 218.785 28.9423 218.848 28.8366C218.885 28.7621 218.923 28.6875 218.966 28.6191C219.004 28.5508 219.047 28.4824 219.091 28.4141C219.154 28.3084 219.222 28.1966 219.285 28.0909C219.303 28.0661 219.328 28.035 219.347 28.0101C221.557 24.6294 225.264 22.3984 229.477 22.3984C232.323 22.3984 235.013 23.4363 237.154 25.2447C237.741 25.7356 238.284 26.2763 238.777 26.8729V23.8837C238.777 23.834 238.777 23.7843 238.783 23.7346C238.821 23.3741 238.977 23.0634 239.208 22.8335C239.208 22.8335 239.208 22.8335 239.208 22.8272C239.233 22.8024 239.264 22.7837 239.289 22.7589C239.295 22.7527 239.307 22.7402 239.314 22.734C239.332 22.7154 239.357 22.7029 239.376 22.6905C239.395 22.6781 239.414 22.6594 239.432 22.647C239.445 22.6408 239.457 22.6346 239.47 22.6222C239.501 22.6097 239.526 22.5911 239.557 22.5724C239.563 22.5724 239.57 22.5662 239.576 22.5662C239.613 22.5476 239.651 22.5289 239.688 22.5103C239.688 22.5103 239.688 22.5103 239.694 22.5103C239.782 22.473 239.875 22.4482 239.969 22.4295C239.975 22.4295 239.988 22.4233 239.994 22.4233C240.031 22.4171 240.075 22.4109 240.119 22.4047C240.169 22.4047 240.219 22.3984 240.269 22.3984C240.325 22.3984 240.375 22.4047 240.425 22.4047C240.468 22.4109 240.506 22.4171 240.549 22.4233C240.556 22.4233 240.562 22.4295 240.574 22.4295C240.668 22.4482 240.762 22.473 240.849 22.5103H240.855C240.893 22.5289 240.93 22.5476 240.961 22.5662C240.974 22.5662 240.98 22.5724 240.986 22.5724C241.011 22.5911 241.043 22.6097 241.068 22.6222C241.08 22.6346 241.099 22.6408 241.111 22.647C241.13 22.6594 241.149 22.6781 241.167 22.6905C241.186 22.7029 241.205 22.7154 241.224 22.734C241.236 22.7402 241.242 22.7527 241.255 22.7589C241.28 22.7837 241.311 22.8024 241.33 22.8272C241.336 22.8335 241.336 22.8335 241.336 22.8335ZM229.477 45.2243C234.601 45.2243 238.777 40.7747 238.777 35.2997C238.777 29.7999 234.601 25.3255 229.477 25.3255C224.39 25.3255 220.177 29.7937 220.177 35.2997C220.177 35.4737 220.183 35.6415 220.19 35.8093C220.19 35.8839 220.202 35.9522 220.202 36.0206C220.208 36.12 220.215 36.2195 220.227 36.3127C220.233 36.3935 220.246 36.468 220.252 36.5426C220.265 36.6296 220.271 36.7228 220.283 36.8098C220.296 36.8782 220.308 36.9403 220.314 37.0025C220.333 37.1019 220.346 37.2013 220.364 37.3008C220.377 37.3505 220.389 37.394 220.396 37.4375C220.421 37.5556 220.446 37.6674 220.471 37.7855C220.477 37.8104 220.483 37.8352 220.495 37.8601C221.557 42.1108 225.202 45.2243 229.477 45.2243Z"
            fill="#29B5E8" />
        <path
            d="M203.816 11.6406H203.41C203.36 11.6406 203.304 11.6406 203.254 11.6468C203.198 11.6406 203.148 11.6406 203.092 11.6406C202.948 11.6406 202.805 11.6406 202.661 11.6468C202.636 11.6468 202.605 11.6531 202.58 11.6531C202.468 11.6531 202.356 11.6593 202.243 11.6717C202.224 11.6717 202.2 11.6717 202.181 11.6717C202.062 11.6841 201.95 11.6903 201.838 11.7028C201.825 11.709 201.813 11.709 201.8 11.709C201.675 11.7276 201.557 11.7401 201.444 11.7587C201.438 11.7587 201.432 11.7587 201.432 11.7587C200.677 11.8768 199.996 12.0881 199.391 12.3864C199.391 12.3926 199.385 12.3926 199.378 12.3926C199.291 12.4423 199.197 12.492 199.11 12.5417C199.091 12.5479 199.079 12.5604 199.06 12.5728C198.985 12.6163 198.91 12.6598 198.835 12.7095C198.804 12.7282 198.779 12.753 198.754 12.7717C198.692 12.8089 198.636 12.8525 198.573 12.896C198.53 12.9332 198.486 12.9705 198.442 13.0016C198.405 13.0327 198.367 13.0637 198.33 13.0948C198.261 13.157 198.199 13.2129 198.136 13.275C198.124 13.2875 198.111 13.2999 198.099 13.3123C198.024 13.3931 197.949 13.4677 197.874 13.5485C197.862 13.5671 197.849 13.5858 197.837 13.5982C197.774 13.6665 197.712 13.7349 197.656 13.8033C197.637 13.8343 197.612 13.8654 197.593 13.8965C197.543 13.9586 197.5 14.0146 197.456 14.0767C197.443 14.1016 197.431 14.1202 197.412 14.1389C197.362 14.2134 197.312 14.288 197.269 14.3626C197.262 14.375 197.256 14.3812 197.25 14.3936C196.844 15.0586 196.557 15.8416 196.376 16.7862C196.376 16.7987 196.376 16.8173 196.37 16.8297C196.345 16.9478 196.326 17.0721 196.308 17.1964C196.301 17.2337 196.295 17.271 196.295 17.3082C196.276 17.4139 196.264 17.5195 196.251 17.6314C196.245 17.6935 196.239 17.7557 196.233 17.824C196.22 17.911 196.208 17.9918 196.201 18.0851C196.195 18.1783 196.189 18.2715 196.183 18.3709C196.176 18.4331 196.176 18.4952 196.17 18.5636C196.164 18.6941 196.158 18.8308 196.151 18.9675C196.151 19.0048 196.145 19.0297 196.145 19.0607C196.139 19.2347 196.139 19.415 196.139 19.589V22.0437H193.031C192.837 22.0375 192.644 22.0748 192.469 22.1369C191.907 22.342 191.508 22.8702 191.508 23.4854C191.508 24.0634 191.795 24.5543 192.244 24.8402C192.469 24.9831 192.731 25.0701 193.018 25.0826H193.031V25.0888H196.139V46.7649C196.133 46.796 196.139 46.8208 196.139 46.8519C196.139 46.8706 196.139 46.8892 196.139 46.9078C196.158 47.2559 196.301 47.5728 196.532 47.8152L196.538 47.8214C196.57 47.8525 196.607 47.8835 196.638 47.9146C196.645 47.9208 196.651 47.9208 196.657 47.927C196.682 47.9519 196.713 47.9705 196.738 47.9892C196.751 48.0016 196.769 48.014 196.782 48.0202C196.794 48.0327 196.807 48.0389 196.826 48.0451C197.069 48.2005 197.356 48.2875 197.662 48.2875C197.712 48.2875 197.762 48.2812 197.805 48.275C198.099 48.2502 198.367 48.1259 198.586 47.9457L198.592 47.9395C198.623 47.9146 198.648 47.8897 198.673 47.8587C198.679 47.8525 198.692 47.8462 198.698 47.84C198.723 47.8152 198.742 47.7903 198.76 47.7717C198.998 47.4858 199.129 47.1316 199.11 46.7649V25.0888H202.455V25.0826H202.468C203.354 25.0391 204.003 24.3493 203.978 23.4917C203.978 23.4854 203.978 23.4854 203.978 23.4792C203.985 23.4482 203.978 23.4171 203.978 23.386C203.978 23.3736 203.978 23.3612 203.978 23.3549C203.953 23.0256 203.81 22.7273 203.585 22.4973C203.585 22.4973 203.585 22.4973 203.585 22.4911C203.579 22.4911 203.579 22.4911 203.579 22.4911C203.548 22.4601 203.523 22.4352 203.492 22.4103C203.479 22.3979 203.467 22.3917 203.46 22.3793C203.435 22.3606 203.417 22.3482 203.392 22.3295C203.373 22.3171 203.348 22.2985 203.329 22.286C203.317 22.2798 203.298 22.2674 203.286 22.2612C203.254 22.2425 203.223 22.2239 203.192 22.2115C203.186 22.2053 203.173 22.199 203.167 22.199C203.13 22.1804 203.092 22.1618 203.055 22.1493C203.048 22.1431 203.042 22.1431 203.03 22.1369C202.992 22.1245 202.955 22.112 202.917 22.0996C202.905 22.0996 202.892 22.0934 202.88 22.0934C202.842 22.0872 202.811 22.0748 202.774 22.0685C202.755 22.0685 202.736 22.0685 202.718 22.0623C202.693 22.0561 202.661 22.0561 202.63 22.0499C202.605 22.0499 202.58 22.0499 202.562 22.0499C202.543 22.0499 202.524 22.0437 202.505 22.0437C202.487 22.0437 202.462 22.0437 202.455 22.0437H199.11V19.5952C199.11 19.5765 199.11 19.5579 199.11 19.5455C199.116 19.4212 199.116 19.2969 199.122 19.1788C199.122 19.1477 199.122 19.1104 199.129 19.0794C199.129 18.9737 199.135 18.8681 199.141 18.7686C199.141 18.75 199.147 18.7251 199.147 18.7065C199.154 18.5884 199.166 18.4703 199.179 18.3585C199.297 17.1467 199.559 16.3823 199.834 15.9162C199.84 15.9038 199.84 15.8976 199.846 15.8851C199.865 15.854 199.89 15.823 199.909 15.7919C199.921 15.767 199.94 15.7422 199.959 15.7173C199.965 15.7049 199.978 15.68 199.99 15.6676C200.021 15.6241 200.052 15.5868 200.09 15.5495C200.483 15.1083 201.095 14.8411 201.981 14.7354C201.994 14.7354 202 14.7292 202.019 14.7292C202.068 14.723 202.125 14.7168 202.175 14.7168C202.2 14.7106 202.231 14.7106 202.256 14.7044C202.306 14.7044 202.349 14.6982 202.399 14.6982C202.437 14.6982 202.468 14.6919 202.512 14.6919C202.555 14.6857 202.599 14.6857 202.643 14.6857C202.686 14.6857 202.73 14.6795 202.774 14.6795C202.817 14.6795 202.861 14.6795 202.905 14.6795C202.967 14.6795 203.03 14.6795 203.092 14.6795H203.098C203.148 14.6795 203.192 14.6733 203.242 14.6671C203.298 14.6733 203.354 14.6795 203.41 14.6795H203.816C204.652 14.6795 205.339 13.9959 205.339 13.157C205.339 12.318 204.652 11.6406 203.816 11.6406Z"
            fill="#29B5E8" />
        <path
            d="M211.867 11.679C211.867 11.679 211.861 11.6728 211.855 11.6728C211.824 11.6603 211.799 11.6479 211.761 11.6417C211.749 11.6355 211.73 11.6293 211.711 11.623C211.686 11.6168 211.661 11.6106 211.637 11.6044C211.612 11.5982 211.587 11.5858 211.568 11.5858C211.537 11.5795 211.512 11.5733 211.48 11.5733C211.456 11.5671 211.437 11.5671 211.412 11.5609C211.362 11.5547 211.306 11.5547 211.256 11.5547C210.444 11.5547 209.758 12.2321 209.758 13.04V46.71C209.758 47.5241 210.444 48.2015 211.256 48.2015C211.306 48.2015 211.362 48.2015 211.412 48.1953C211.418 48.1953 211.431 48.1891 211.437 48.1891C211.48 48.1829 211.524 48.1767 211.568 48.1705C211.574 48.1705 211.587 48.1642 211.599 48.1642C211.637 48.1518 211.674 48.1456 211.711 48.1332C211.718 48.1332 211.724 48.1332 211.73 48.127C212.304 47.9467 212.729 47.462 212.791 46.8654C212.797 46.8157 212.804 46.766 212.804 46.71V13.04C212.804 12.9902 212.797 12.9405 212.791 12.8908C212.735 12.3439 212.373 11.8903 211.867 11.679Z"
            fill="#29B5E8" />
        <path
            d="M97.2722 40.2775C97.2597 40.1905 97.2597 40.1097 97.2472 40.0289C97.241 39.9668 97.2347 39.9109 97.2285 39.8549C97.216 39.7866 97.2098 39.7244 97.1973 39.6561C97.1848 39.5939 97.1723 39.5318 97.1598 39.4634C97.1536 39.4137 97.1411 39.3578 97.1286 39.3081C97.1099 39.2335 97.0974 39.1651 97.0787 39.0906C97.0662 39.0533 97.0537 39.0098 97.0412 38.9725C97.0225 38.8917 96.9975 38.8171 96.9663 38.7425C96.9601 38.7115 96.9476 38.6804 96.9414 38.6555C96.9102 38.5685 96.879 38.4877 96.8415 38.4007C96.8353 38.3883 96.829 38.3697 96.8228 38.351C96.7791 38.264 96.7416 38.1708 96.6979 38.0838C96.6917 38.0776 96.6917 38.0714 96.6855 38.0652C96.3297 37.3505 95.8241 36.7539 95.2062 36.2505C95.2062 36.2443 95.2062 36.2443 95.2 36.2443C95.1126 36.176 95.0252 36.1014 94.9316 36.033C94.9316 36.033 94.9254 36.0268 94.9191 36.0206C94.9129 36.0206 94.9066 36.0144 94.9004 36.0082C94.8442 35.9709 94.788 35.9274 94.7381 35.8901C93.9704 35.3494 93.1216 34.9206 91.8857 34.4483C91.867 34.4421 91.8483 34.4359 91.8296 34.4297C91.8108 34.4173 91.7859 34.411 91.7672 34.3986C91.0681 34.1376 90.3441 33.889 89.6014 33.6467C89.6014 33.6467 89.6014 33.6467 89.5951 33.6467C89.5951 33.6467 89.5889 33.6467 89.5889 33.6404C89.5764 33.6404 89.5639 33.6342 89.5452 33.628C89.4765 33.6032 89.4016 33.5783 89.3018 33.5472C89.2518 33.5348 89.2144 33.5224 89.1769 33.5099C88.9273 33.4229 88.6714 33.3422 88.4155 33.2551C88.2345 33.193 88.041 33.1309 87.81 33.0563C87.7476 33.0376 87.5978 32.9879 87.473 32.9506C87.4668 32.9506 87.4668 32.9444 87.4605 32.9444C87.3856 32.9196 87.3107 32.8947 87.2296 32.8699C86.6054 32.671 86.0936 32.497 85.6567 32.3354C84.9452 32.0744 84.2961 31.7947 83.7655 31.4592C83.7531 31.4529 83.7406 31.4467 83.7343 31.4405C83.0103 30.9806 82.511 30.4151 82.3924 29.6756L82.3862 29.6694C82.3799 29.6197 82.3737 29.5637 82.3737 29.514C82.3674 29.5016 82.3674 29.4954 82.3674 29.4892C82.3612 29.427 82.3612 29.3711 82.3612 29.3089C82.3612 29.2219 82.3674 29.1349 82.3737 29.0542C82.3737 29.0293 82.3737 29.0107 82.3799 28.992C82.3862 28.9237 82.3924 28.8615 82.3987 28.7994C82.4049 28.7807 82.4049 28.7621 82.4111 28.7434C82.4236 28.6751 82.4361 28.6129 82.4486 28.5446C82.4548 28.5384 82.4548 28.5259 82.4611 28.5135C82.4798 28.4389 82.4985 28.3706 82.5235 28.3022C82.5235 28.296 82.5235 28.296 82.5235 28.296C82.848 27.3327 83.6157 26.6181 84.5208 26.1147C84.5832 26.0836 84.6456 26.0526 84.7018 26.0215C84.7642 25.9904 84.8204 25.9593 84.8765 25.9345C84.9702 25.891 85.0638 25.8475 85.1574 25.8102C85.2136 25.7853 85.2635 25.7605 85.3197 25.7418C85.4195 25.7045 85.5194 25.6673 85.6193 25.63C85.6692 25.6113 85.7254 25.5927 85.7816 25.574C85.8814 25.543 85.975 25.5119 86.0749 25.487C86.1373 25.4684 86.1935 25.4498 86.2559 25.4373C86.3495 25.4125 86.4432 25.3938 86.5305 25.369C86.5929 25.3565 86.6554 25.3441 86.7178 25.3317C86.8176 25.313 86.9113 25.2944 86.9986 25.282C87.0548 25.2757 87.1047 25.2695 87.1609 25.2571C87.267 25.2447 87.3794 25.2322 87.4917 25.226C87.5167 25.2198 87.5417 25.2198 87.5729 25.2136C87.7102 25.2074 87.8475 25.2012 87.9786 25.2012C88.1346 25.2012 88.2906 25.2074 88.4404 25.2136C88.4654 25.2136 88.4904 25.2136 88.5091 25.2136C89.6138 25.282 90.5064 25.5492 91.2429 25.9034C91.299 25.9283 91.3552 25.9593 91.4114 25.9842C91.4426 26.0028 91.4738 26.0215 91.505 26.0339C91.5737 26.0712 91.6423 26.1085 91.7172 26.152C91.7297 26.1582 91.7422 26.1644 91.7547 26.1706C91.8296 26.2141 91.9045 26.2639 91.9794 26.3074C91.9856 26.3136 91.9918 26.3136 91.9918 26.3136C92.073 26.3633 92.1541 26.4192 92.2353 26.4689C92.2353 26.4751 92.2415 26.4751 92.2415 26.4814C92.3226 26.5311 92.3976 26.5808 92.4725 26.6367C92.5037 26.6616 92.5286 26.6802 92.5598 26.6989C92.7346 26.8294 93.0092 27.0407 93.2589 27.2457C93.2901 27.2644 93.3151 27.283 93.3338 27.3017C93.521 27.457 93.6958 27.5938 93.8643 27.718C93.8955 27.7429 93.9205 27.7615 93.9392 27.774C93.9454 27.7802 93.9517 27.7864 93.9579 27.7864C93.9766 27.7988 93.9954 27.8113 94.0141 27.8237C94.0578 27.8548 94.1077 27.8858 94.1514 27.9169C94.1701 27.9293 94.1889 27.9355 94.2076 27.948C94.2513 27.9728 94.295 27.9977 94.3387 28.0225C94.3574 28.0288 94.3699 28.035 94.3886 28.0412C94.4385 28.0661 94.4822 28.0847 94.5321 28.1033C94.5446 28.1096 94.5509 28.1096 94.5634 28.1158C94.6195 28.1344 94.6757 28.1531 94.7319 28.1593C94.7319 28.1593 94.7319 28.1593 94.7381 28.1655C94.8629 28.1841 94.9815 28.1903 95.1064 28.1593C95.1188 28.1593 95.1313 28.1531 95.1438 28.1531C95.175 28.1468 95.2125 28.1344 95.2437 28.1282C95.2562 28.122 95.2624 28.1158 95.2749 28.1096C95.2874 28.1096 95.2999 28.1033 95.3123 28.0971C95.3623 28.0723 95.4122 28.0474 95.4621 28.0163C95.4746 28.0163 95.4809 28.0101 95.4871 28.0039C95.5433 27.9666 95.5932 27.9293 95.6431 27.8858C95.6494 27.8796 95.6494 27.8796 95.6494 27.8796C95.6931 27.8423 95.7305 27.7988 95.768 27.7553C95.7929 27.7243 95.8179 27.687 95.8366 27.6497C95.8429 27.6435 95.8491 27.6373 95.8491 27.631C96.1112 27.196 95.9614 26.6243 95.4996 26.0028C95.4933 25.9904 95.4871 25.978 95.4746 25.9656C95.4559 25.9407 95.4434 25.9221 95.4247 25.8972C94.3636 24.53 91.9482 23.0323 89.7075 22.5538C89.695 22.5538 89.6825 22.5538 89.67 22.5476C89.5764 22.5289 89.4765 22.5103 89.3829 22.4917C89.3579 22.4917 89.3267 22.4854 89.3018 22.4792C89.2206 22.4668 89.1395 22.4544 89.0583 22.4482C89.0271 22.4419 88.9959 22.4357 88.9647 22.4357C88.8898 22.4295 88.8087 22.4233 88.7338 22.4171C88.7026 22.4109 88.6714 22.4109 88.6464 22.4047C88.5403 22.4047 88.4404 22.3984 88.3406 22.3984C88.1783 22.3984 88.016 22.3984 87.86 22.4047C87.7726 22.4047 87.6852 22.4109 87.5916 22.4171C87.5292 22.4233 87.4543 22.4233 87.3919 22.4233C87.267 22.4357 87.1484 22.4419 87.0299 22.4544C86.9986 22.4544 86.9612 22.4544 86.93 22.4606C86.7927 22.473 86.6554 22.4854 86.5243 22.5041C86.5056 22.5041 86.4931 22.5041 86.4806 22.5041C86.337 22.5227 86.1997 22.5414 86.0624 22.5662C86.0562 22.5662 86.0437 22.5662 86.0374 22.5662C85.9001 22.5849 85.7628 22.6097 85.6318 22.6346C85.6255 22.6346 85.6193 22.6408 85.6068 22.6408C85.3259 22.6905 85.0513 22.7527 84.7891 22.821C84.7829 22.821 84.7829 22.8272 84.7829 22.8272C84.6518 22.8583 84.5208 22.8956 84.3897 22.9329C84.2649 22.9702 84.1463 23.0137 84.0339 23.051C84.0214 23.051 84.0152 23.0572 84.0027 23.0572C83.8904 23.1007 83.778 23.138 83.6657 23.1815C83.6532 23.1877 83.6407 23.1939 83.6345 23.1939C83.5221 23.2374 83.4223 23.2809 83.3162 23.3306C83.3037 23.3368 83.2849 23.3368 83.2725 23.3493C83.1788 23.3865 83.079 23.4363 82.9916 23.4798C82.9666 23.4922 82.9479 23.4984 82.9292 23.5108C82.8356 23.5543 82.7482 23.5978 82.6608 23.6476C82.6358 23.66 82.6171 23.6724 82.5921 23.6848C82.511 23.7283 82.4299 23.7781 82.3487 23.8278C82.3238 23.8402 82.2988 23.8526 82.2738 23.8713C82.1677 23.9334 82.0679 24.0018 81.968 24.0639C81.8494 24.1509 81.7308 24.2317 81.6247 24.3187C81.6122 24.3187 81.606 24.3249 81.606 24.3311C81.0755 24.7227 80.6198 25.139 80.2453 25.6238C80.2328 25.6424 80.2141 25.661 80.2016 25.6797C80.1579 25.748 80.108 25.8102 80.0643 25.8723C80.0331 25.9221 80.0019 25.9718 79.9707 26.0215C79.9457 26.0588 79.9208 26.0961 79.902 26.1333C79.8521 26.2141 79.8084 26.2949 79.7647 26.3819C79.7585 26.3944 79.7523 26.4006 79.746 26.413C79.409 27.0779 79.2155 27.8423 79.1406 28.7683C79.1406 28.7807 79.1406 28.7931 79.1343 28.8056C79.1281 28.9672 79.1156 29.1287 79.1094 29.3027C79.1094 29.4332 79.1094 29.5637 79.1156 29.6942C79.1156 29.7129 79.1156 29.7315 79.1156 29.7502C79.1843 31.5275 79.9957 32.8636 81.4624 33.9015C81.4749 33.9077 81.4874 33.9201 81.4999 33.9263C81.5623 33.9698 81.6247 34.0133 81.6871 34.0568C81.7308 34.0879 81.7807 34.1127 81.8244 34.1438C81.8369 34.1562 81.8556 34.1625 81.8681 34.1687C83.3162 35.0822 85.0887 35.6042 86.568 36.0206C87.292 36.2319 87.9411 36.4121 88.1346 36.468C88.1783 36.4805 88.222 36.4929 88.2594 36.5115C89.1457 36.8036 89.826 37.0398 90.3878 37.2635C90.4315 37.2759 90.4689 37.2946 90.5126 37.307C90.5251 37.3132 90.5438 37.3194 90.5625 37.3319C90.8809 37.4624 91.1929 37.5991 91.4925 37.7482C91.7422 37.8725 91.9731 38.003 92.2041 38.1397C92.797 38.5064 93.2526 38.9041 93.5585 39.3391C93.571 39.3516 93.5772 39.364 93.5834 39.3764C93.6146 39.4137 93.6396 39.451 93.6583 39.4945C93.6771 39.5194 93.6895 39.538 93.702 39.5629C93.7207 39.5939 93.7395 39.625 93.752 39.6561C93.7707 39.6871 93.7832 39.7244 93.8019 39.7555C93.8144 39.7804 93.8269 39.8052 93.8393 39.8301C93.8518 39.8674 93.8705 39.9047 93.883 39.9482C93.8893 39.9668 93.9018 39.9917 93.908 40.0165C93.9205 40.06 93.933 40.1035 93.9454 40.147C93.9517 40.1657 93.9579 40.1843 93.9642 40.2092C93.9767 40.2527 93.9891 40.3024 93.9954 40.3459C94.0016 40.3645 94.0079 40.3894 94.0079 40.408C94.0141 40.4577 94.0203 40.5075 94.0266 40.5572C94.0328 40.5758 94.0328 40.5945 94.0328 40.6131C94.0391 40.6877 94.0453 40.756 94.0453 40.8306C94.0453 40.9425 94.0391 41.0481 94.0328 41.1538C94.0328 41.1848 94.0266 41.2159 94.0266 41.247C94.0203 41.3278 94.0079 41.4086 93.9891 41.4893C93.9891 41.5142 93.9829 41.5391 93.9766 41.5639C93.9392 41.7814 93.8768 41.9865 93.7957 42.1916C93.7894 42.1978 93.7894 42.204 93.7894 42.2102C93.7457 42.3034 93.702 42.4029 93.6521 42.4899C93.6458 42.5023 93.6459 42.5085 93.6396 42.5147C93.5335 42.7136 93.4087 42.9062 93.2526 43.0865C93.1777 43.1797 93.0966 43.2667 93.0155 43.3537C93.0092 43.3537 93.0092 43.3537 93.0092 43.3599C92.8407 43.5277 92.6534 43.6831 92.46 43.826C92.4537 43.8322 92.4475 43.8322 92.4475 43.8384C92.3539 43.9006 92.2602 43.9689 92.1666 44.0249C92.1541 44.0373 92.1416 44.0435 92.1292 44.0497C91.9669 44.1491 91.7921 44.2486 91.6174 44.3356C91.5549 44.3667 91.4925 44.3977 91.4239 44.4288C91.3552 44.4599 91.2803 44.4972 91.2054 44.5282C91.143 44.5531 91.0868 44.5779 91.0244 44.6028C90.8559 44.665 90.6936 44.7271 90.5251 44.783C90.5001 44.7892 90.4752 44.7955 90.4502 44.8079C90.3503 44.839 90.2505 44.8638 90.1506 44.8949C90.1256 44.9011 90.0944 44.9135 90.0695 44.9197C89.7387 45.0067 89.4141 45.0751 89.1083 45.1248C89.102 45.1248 89.0958 45.1248 89.0895 45.1248C88.9335 45.1497 88.7837 45.1683 88.6402 45.187C88.584 45.1932 88.5341 45.1994 88.4779 45.1994C88.428 45.2056 88.378 45.2056 88.3218 45.2118C88.2033 45.218 88.0784 45.2243 87.9661 45.2243C87.7351 45.2243 87.5104 45.218 87.292 45.2056C87.2046 45.2056 87.1172 45.1994 87.0299 45.1932C86.9113 45.1808 86.7864 45.1745 86.6741 45.1621C86.568 45.1559 86.4556 45.1435 86.3558 45.131C86.2621 45.1186 86.1748 45.1062 86.0874 45.0938C85.8939 45.0627 85.7129 45.0378 85.5319 45.0005C85.4508 44.9819 85.3634 44.9695 85.2822 44.9508C85.1886 44.926 85.095 44.9073 85.0014 44.8825C84.8953 44.8576 84.7954 44.8327 84.6955 44.8017C84.6269 44.783 84.552 44.7644 84.4896 44.7457C84.321 44.696 84.1525 44.6401 83.9902 44.5779C83.9528 44.5655 83.9153 44.5531 83.8779 44.5407C83.5159 44.4039 83.1601 44.2548 82.8106 44.0808C82.7981 44.0746 82.7794 44.0621 82.7607 44.0559C82.536 43.9441 82.1552 43.7328 81.7932 43.5277C81.762 43.5091 81.7246 43.4904 81.6934 43.4718C81.4375 43.3226 81.219 43.1983 81.013 43.0989C80.9943 43.0865 80.9818 43.0803 80.9693 43.074C80.9569 43.0678 80.9444 43.0616 80.9381 43.0616C80.882 43.0368 80.8383 43.0119 80.7883 42.9933C80.7696 42.987 80.7571 42.9808 80.7447 42.9746C80.6136 42.9249 80.495 42.8876 80.3764 42.8752C80.339 42.869 80.3015 42.869 80.2641 42.869C80.2516 42.8627 80.2391 42.8627 80.2266 42.8627C79.9894 42.8627 79.7835 42.9435 79.59 43.1238C79.5463 43.161 79.5088 43.1983 79.4714 43.2418C79.4651 43.2543 79.4527 43.2667 79.4402 43.2791C79.4152 43.3102 79.3965 43.3351 79.3778 43.3599C79.3653 43.3786 79.3528 43.3972 79.3466 43.4096C79.3278 43.4345 79.3091 43.4593 79.2966 43.4842C79.2841 43.5028 79.2779 43.5215 79.2717 43.5401C79.2592 43.565 79.2467 43.5898 79.2342 43.6147C79.228 43.6333 79.2217 43.6458 79.2155 43.6644C79.203 43.6955 79.1968 43.7203 79.1905 43.7452C79.1843 43.7639 79.178 43.7763 79.178 43.7949C79.1718 43.826 79.1655 43.8571 79.1593 43.8881C79.1593 43.9006 79.1531 43.913 79.1531 43.9254C79.1468 43.9689 79.1468 44.0062 79.1468 44.0435C79.1468 44.0497 79.1468 44.0559 79.1468 44.0621C79.1468 44.1119 79.1531 44.1554 79.1656 44.2051C79.1656 44.2113 79.1656 44.2237 79.1656 44.2299C79.178 44.2672 79.1843 44.3107 79.1968 44.348C79.203 44.3667 79.2092 44.3853 79.2155 44.4039C79.228 44.435 79.2342 44.4723 79.2529 44.5034C79.2592 44.522 79.2654 44.5344 79.2717 44.5469C79.3528 44.7333 79.4839 44.926 79.6524 45.1124C79.8334 45.3113 80.0643 45.5101 80.3327 45.7152C80.339 45.7152 80.339 45.7152 80.339 45.7214C80.4139 45.7711 80.4887 45.8271 80.5699 45.883C80.5886 45.8954 80.6011 45.9078 80.6198 45.9141C80.8383 46.0632 81.0692 46.2061 81.3314 46.3553C81.3938 46.3926 81.4562 46.4299 81.5186 46.4609C81.581 46.4982 81.6434 46.5293 81.7058 46.5604C81.7807 46.6039 81.8681 46.6474 81.9493 46.6909C82.0054 46.7157 82.0554 46.7468 82.1115 46.7717C82.2364 46.8338 82.3674 46.896 82.4985 46.9581C82.5172 46.9705 82.5297 46.9767 82.5484 46.983C82.692 47.0513 82.8356 47.1135 82.9791 47.1694C83.0415 47.1942 83.0977 47.2191 83.1601 47.244C83.1726 47.2502 83.1851 47.2564 83.1976 47.2564C84.5332 47.7784 86.181 48.1264 87.6353 48.1886C87.7414 48.1948 87.8537 48.201 87.9598 48.201H87.9661C88.016 48.201 88.0597 48.201 88.1096 48.1948C88.222 48.1948 88.3343 48.1948 88.4467 48.1948C88.4592 48.1948 88.4716 48.1948 88.4841 48.1886C90.8497 48.114 92.7908 47.505 94.4448 46.2994C94.4448 46.2931 94.4448 46.2931 94.4448 46.2931C96.2798 44.9135 97.2909 42.9684 97.2909 40.8244C97.2909 40.6877 97.2846 40.551 97.2784 40.4205C97.2784 40.3707 97.2722 40.321 97.2722 40.2775Z"
            fill="#29B5E8" />
        <path
            d="M112.531 22.4531C112.525 22.4531 112.518 22.4531 112.512 22.4531C109.604 22.4531 106.857 23.6339 104.873 25.7219V23.9446C104.873 23.1243 104.236 22.4531 103.431 22.4531C103.375 22.4531 103.325 22.4593 103.275 22.4593C102.919 22.4966 102.607 22.652 102.376 22.8819C102.37 22.8819 102.37 22.8819 102.363 22.8881C102.345 22.913 102.32 22.9379 102.301 22.9627C102.289 22.9689 102.276 22.9814 102.27 22.9938C102.251 23.0124 102.239 23.0311 102.226 23.0497C102.214 23.0684 102.201 23.087 102.182 23.1056C102.176 23.1181 102.17 23.1305 102.164 23.1429C102.145 23.174 102.126 23.2051 102.108 23.2299C102.108 23.2362 102.108 23.2424 102.101 23.2486C102.083 23.2859 102.064 23.3232 102.045 23.3604C102.014 23.4537 101.983 23.5469 101.964 23.6401C101.964 23.6463 101.964 23.6525 101.958 23.6525C101.952 23.7022 101.945 23.7457 101.939 23.7892C101.939 23.839 101.933 23.8887 101.933 23.9446V47.0252L101.914 47.1246L101.989 47.1868C101.989 47.2179 101.995 47.2614 102.014 47.3049C102.014 47.3111 102.02 47.3235 102.02 47.3297C102.033 47.3608 102.051 47.3981 102.083 47.4292C102.276 47.7958 102.632 48.0755 103.05 48.1998L103.081 48.206H103.431C103.487 48.206 103.543 48.206 103.599 48.1998C103.637 48.1935 103.674 48.1811 103.712 48.1749C103.73 48.1749 103.743 48.1749 103.762 48.1687C103.811 48.1562 103.861 48.1438 103.911 48.1252C103.911 48.1252 103.911 48.1252 103.918 48.1252C104.18 48.032 104.404 47.8704 104.554 47.6529C104.56 47.6467 104.567 47.6404 104.573 47.6342C104.673 47.5286 104.729 47.4167 104.785 47.2614C104.791 47.2427 104.798 47.2303 104.798 47.2179C104.804 47.2116 104.804 47.2116 104.804 47.2054C104.829 47.1309 104.848 47.0563 104.866 46.9817L104.873 46.9569V32.9867C104.972 28.823 108.393 25.4361 112.5 25.4299C112.506 25.4299 112.506 25.4299 112.512 25.4299C116.694 25.4299 120.096 28.8168 120.096 32.9805V46.7145C120.096 46.7704 120.102 46.8201 120.108 46.8699C120.139 47.2303 120.295 47.541 120.526 47.771C120.526 47.771 120.532 47.771 120.532 47.7772C120.557 47.802 120.582 47.8207 120.607 47.8455C120.62 47.858 120.626 47.8642 120.639 47.8704C120.657 47.889 120.676 47.9015 120.695 47.9139C120.713 47.9325 120.732 47.945 120.751 47.9574C120.77 47.9636 120.782 47.9698 120.795 47.9822C120.82 48.0009 120.851 48.0133 120.876 48.032C120.882 48.032 120.888 48.0382 120.901 48.0382C120.932 48.0568 120.969 48.0755 121.007 48.0941H121.013C121.1 48.1314 121.194 48.1562 121.288 48.1749C121.3 48.1749 121.306 48.1811 121.313 48.1811C121.356 48.1873 121.394 48.1935 121.438 48.1998C121.487 48.206 121.537 48.206 121.594 48.206C121.643 48.206 121.693 48.206 121.743 48.1998C121.787 48.1935 121.831 48.1873 121.868 48.1811C121.874 48.1811 121.887 48.1749 121.893 48.1749C121.993 48.1562 122.08 48.1314 122.174 48.0941C122.211 48.0755 122.249 48.0568 122.286 48.0382C122.293 48.0382 122.299 48.032 122.305 48.032C122.336 48.0133 122.361 48.0009 122.392 47.9822C122.405 47.9698 122.417 47.9636 122.43 47.9574C122.449 47.945 122.467 47.9325 122.486 47.9139C122.505 47.9015 122.53 47.889 122.548 47.8704C122.555 47.8642 122.567 47.858 122.573 47.8455C122.598 47.8207 122.63 47.802 122.655 47.7772C122.655 47.771 122.655 47.771 122.655 47.771C122.892 47.541 123.048 47.2303 123.079 46.8699C123.085 46.8201 123.085 46.7704 123.085 46.7145V32.9805C123.085 27.1824 118.354 22.4656 112.531 22.4531Z"
            fill="#29B5E8" />
        <path
            d="M139.454 22.3984C146.232 22.3984 151.743 28.1841 151.743 35.2997C151.743 42.4153 146.232 48.201 139.454 48.201C139.241 48.201 139.035 48.1948 138.829 48.1824C138.798 48.1824 138.773 48.1824 138.742 48.1761C138.561 48.1699 138.38 48.1513 138.205 48.1326C138.199 48.1326 138.193 48.1326 138.187 48.1326C135.509 47.8406 133.006 46.6225 131.015 44.6277C130.934 44.5469 130.847 44.4661 130.772 44.3791C130.765 44.3791 130.765 44.3729 130.759 44.3729C130.715 44.3294 130.678 44.2797 130.634 44.2299C130.541 44.1305 130.447 44.0249 130.353 43.9192C130.279 43.8384 130.21 43.7452 130.135 43.6582C130.085 43.5898 130.029 43.5215 129.973 43.4531C129.86 43.3164 129.754 43.1735 129.654 43.0305C129.642 43.0119 129.629 42.9933 129.617 42.9746C128.4 41.2781 127.607 39.3205 127.308 37.2449C127.276 37.0522 127.258 36.8596 127.239 36.6669C127.233 36.6483 127.233 36.6234 127.226 36.5985C127.208 36.4183 127.195 36.2443 127.189 36.0641C127.183 36.0268 127.183 35.9895 127.183 35.946C127.17 35.7347 127.164 35.5172 127.164 35.2997C127.164 35.0822 127.17 34.8647 127.183 34.6534C127.183 34.6099 127.183 34.5726 127.189 34.5353C127.195 34.3551 127.208 34.1749 127.226 34.0009C127.233 33.976 127.233 33.9512 127.239 33.9325C127.258 33.7399 127.276 33.5472 127.308 33.3546C127.607 31.2789 128.4 29.3214 129.617 27.6248C129.623 27.6062 129.636 27.5875 129.648 27.5751C129.754 27.426 129.86 27.283 129.973 27.1401C130.023 27.0779 130.079 27.0158 130.129 26.9474C130.204 26.8542 130.279 26.7672 130.353 26.674C130.441 26.5746 130.528 26.4814 130.622 26.3819C130.666 26.3322 130.715 26.2763 130.759 26.2266C130.765 26.2266 130.765 26.2203 130.772 26.2203C130.84 26.1396 130.921 26.065 130.996 25.9904C132.987 23.9893 135.496 22.7589 138.187 22.4668C138.193 22.4668 138.199 22.4668 138.205 22.4668C138.38 22.4482 138.561 22.4357 138.742 22.4233C138.773 22.4233 138.798 22.4171 138.829 22.4171C139.035 22.4047 139.241 22.3984 139.454 22.3984ZM148.704 34.2868C148.704 34.2805 148.704 34.2805 148.704 34.2743C148.485 32.0371 147.561 30.0174 146.182 28.4576C146.12 28.3892 146.063 28.3208 146.001 28.2525C145.963 28.2152 145.926 28.1779 145.889 28.1406C145.814 28.0661 145.745 27.9915 145.67 27.9169C145.601 27.8485 145.527 27.7864 145.458 27.7243C145.414 27.687 145.377 27.6435 145.333 27.6062C145.221 27.5067 145.108 27.4135 144.996 27.3203C144.996 27.3203 144.99 27.3203 144.99 27.3141C143.685 26.2638 142.119 25.574 140.434 25.3814C140.415 25.3814 140.402 25.3752 140.39 25.3752C140.259 25.3565 140.134 25.3503 140.003 25.3441C139.972 25.3379 139.947 25.3379 139.922 25.3379C139.766 25.3255 139.61 25.3255 139.454 25.3255C139.298 25.3255 139.142 25.3255 138.985 25.3379C138.961 25.3379 138.936 25.3379 138.904 25.3441C138.773 25.3503 138.648 25.3565 138.517 25.3752C138.505 25.3752 138.492 25.3814 138.474 25.3814C136.788 25.574 135.222 26.2638 133.917 27.3141C133.917 27.3203 133.911 27.3203 133.911 27.3203C133.799 27.4135 133.686 27.5067 133.574 27.6062C133.53 27.6435 133.493 27.6808 133.449 27.718C133.381 27.7864 133.306 27.8485 133.237 27.9169C133.168 27.9853 133.1 28.0598 133.025 28.1344C132.987 28.1717 132.95 28.209 132.906 28.2525C132.85 28.3146 132.794 28.383 132.731 28.4513C131.352 30.0112 130.422 32.0371 130.204 34.2743C130.204 34.2805 130.204 34.2805 130.204 34.2868C130.191 34.4297 130.179 34.5726 130.172 34.7218C130.172 34.7466 130.166 34.7715 130.166 34.7963C130.16 34.9641 130.154 35.1319 130.154 35.2997C130.154 40.7623 134.373 45.2243 139.454 45.2243C144.534 45.2243 148.753 40.7623 148.753 35.2997C148.753 35.1319 148.747 34.9641 148.741 34.7963C148.741 34.7715 148.735 34.7466 148.735 34.7218C148.728 34.5726 148.716 34.4297 148.704 34.2868Z"
            fill="#29B5E8" />
        <path
            d="M187.865 23.0426C187.853 23.0301 187.847 23.0177 187.834 23.0053C187.684 22.8189 187.485 22.6697 187.26 22.5765C187.26 22.5765 187.26 22.5765 187.254 22.5765C187.229 22.5578 187.197 22.5516 187.173 22.5392C187.16 22.5392 187.148 22.533 187.129 22.5268C186.929 22.4584 186.711 22.446 186.498 22.4771H186.492C186.062 22.5454 185.65 22.8064 185.419 23.1917C185.419 23.1917 185.419 23.1917 185.412 23.1917C185.381 23.2539 185.344 23.316 185.319 23.3782L185.313 23.3844V23.3906L178.16 42.8854L172.542 29.574C172.486 29.4497 172.411 29.3379 172.324 29.2322C172.018 28.878 171.55 28.6543 171.069 28.6543C170.995 28.6543 170.926 28.6543 170.851 28.6729C170.845 28.6729 170.839 28.6729 170.826 28.6729C170.327 28.7599 169.859 29.1079 169.646 29.574C169.646 29.5802 169.646 29.5802 169.646 29.5802L164.029 42.8917L161.308 35.5275L156.826 23.3906C156.801 23.3222 156.776 23.2663 156.745 23.2042C156.739 23.1979 156.739 23.1979 156.733 23.1917C156.595 22.9369 156.377 22.7381 156.115 22.6138C156.115 22.6138 156.109 22.6138 156.109 22.6076C155.977 22.5516 155.84 22.5081 155.697 22.4833C155.684 22.4833 155.678 22.4833 155.665 22.4771C155.597 22.4708 155.522 22.4646 155.453 22.4646H155.447C155.428 22.4646 155.416 22.4646 155.403 22.4646C155.372 22.4646 155.341 22.4646 155.31 22.4708C155.291 22.4708 155.266 22.4771 155.247 22.4771C155.216 22.4833 155.191 22.4833 155.166 22.4895C155.147 22.4957 155.129 22.4957 155.11 22.5019C155.079 22.5081 155.047 22.5143 155.016 22.5268C155.004 22.533 154.991 22.533 154.979 22.5392C154.948 22.5516 154.916 22.5578 154.885 22.5765C154.885 22.5765 154.885 22.5765 154.879 22.5765C154.623 22.6883 154.417 22.881 154.267 23.1047C154.261 23.1171 154.255 23.1234 154.249 23.1358C154.242 23.1482 154.236 23.1607 154.23 23.1731C154.118 23.3595 154.049 23.577 154.024 23.7945C153.999 24.0245 154.03 24.2668 154.124 24.4906L159.31 38.3675L162.637 47.2667C162.637 47.2667 162.637 47.2667 162.637 47.2729C162.774 47.6084 162.974 47.8384 163.249 47.9627C163.255 47.9689 163.268 47.9751 163.274 47.9813C163.28 47.9875 163.286 47.9937 163.299 48C163.299 48.0062 163.305 48.0062 163.311 48.0124C163.324 48.0186 163.33 48.0248 163.342 48.0372C163.349 48.0372 163.349 48.0372 163.355 48.0372C163.405 48.0683 163.467 48.0932 163.548 48.0994C163.555 48.0994 163.561 48.1056 163.567 48.1056C163.592 48.1118 163.617 48.1243 163.642 48.1305C163.655 48.1305 163.667 48.1367 163.679 48.1367C163.836 48.1864 163.935 48.205 164.06 48.205C164.129 48.205 164.191 48.1988 164.26 48.1864C164.31 48.1802 164.366 48.1678 164.416 48.1491C164.428 48.1429 164.441 48.1429 164.453 48.1367C164.503 48.1243 164.553 48.1056 164.603 48.0807C164.622 48.0745 164.641 48.0683 164.659 48.0559C164.691 48.0372 164.728 48.0186 164.766 48C164.79 47.9813 164.822 47.9627 164.853 47.944C164.872 47.9316 164.89 47.913 164.909 47.9005C164.953 47.8695 164.99 47.8384 165.034 47.8011C165.04 47.7949 165.046 47.7887 165.053 47.7762C165.096 47.7327 165.14 47.6892 165.184 47.6395C165.184 47.6333 165.19 47.6271 165.196 47.6209C165.234 47.5712 165.271 47.5152 165.302 47.4593C165.333 47.3972 165.365 47.3288 165.39 47.2604L165.396 47.2418L165.415 47.2169L165.433 47.1734L171.069 33.775L176.755 47.2232C176.799 47.3599 176.868 47.4842 176.961 47.6022C176.974 47.6209 176.986 47.6333 176.999 47.652C177.03 47.6892 177.061 47.7265 177.099 47.7638C177.117 47.7762 177.136 47.7949 177.155 47.8073C177.186 47.8384 177.224 47.8695 177.261 47.9005C177.28 47.913 177.292 47.9254 177.311 47.9316C177.355 47.9627 177.398 47.9937 177.442 48.0186C177.455 48.0248 177.467 48.031 177.479 48.0372C177.529 48.0621 177.573 48.087 177.629 48.1056C177.642 48.1118 177.654 48.118 177.673 48.118C177.717 48.1367 177.76 48.1553 177.81 48.1678C177.873 48.1802 177.935 48.1926 177.991 48.205H178.179C178.253 48.205 178.322 48.1988 178.391 48.1864C178.409 48.1864 178.422 48.1864 178.441 48.1802C178.503 48.1678 178.559 48.1553 178.615 48.1367C178.634 48.1305 178.647 48.1243 178.659 48.118C178.722 48.0994 178.784 48.0683 178.84 48.0372C178.846 48.0372 178.853 48.031 178.859 48.031C178.927 47.9875 178.996 47.944 179.052 47.9005C179.302 47.7141 179.483 47.4717 179.608 47.1734V47.1672L183.122 37.7461L188.065 24.4906C188.259 24.0245 188.184 23.5149 187.915 23.1171C187.903 23.0923 187.884 23.0674 187.865 23.0426Z"
            fill="#29B5E8" />
        <path
            d="M267.243 23.4554C267.243 23.4306 267.237 23.3995 267.23 23.3746C267.23 23.356 267.224 23.3374 267.218 23.3187C267.212 23.2876 267.205 23.2566 267.199 23.2317C267.193 23.2131 267.187 23.1944 267.18 23.182C267.174 23.1447 267.162 23.1136 267.143 23.0826C267.143 23.0701 267.137 23.0639 267.13 23.0515C267.112 23.008 267.093 22.9707 267.068 22.9334C267.068 22.9272 267.068 22.9272 267.068 22.9272C266.993 22.7967 266.899 22.6848 266.793 22.5854C266.787 22.5792 266.787 22.5792 266.787 22.5792C266.781 22.573 266.781 22.573 266.781 22.573C266.25 22.0447 265.501 21.9764 264.915 22.3865C264.896 22.399 264.883 22.4114 264.865 22.4176C264.84 22.4363 264.815 22.4549 264.79 22.4735C264.752 22.5108 264.715 22.5419 264.678 22.5792C264.678 22.5792 264.671 22.5792 264.671 22.5854L250.047 36.7793V13.04C250.047 12.9902 250.047 12.9405 250.041 12.8908C249.985 12.3439 249.617 11.8903 249.117 11.679C249.111 11.679 249.111 11.6728 249.105 11.6728C249.074 11.6603 249.043 11.6479 249.011 11.6417C248.999 11.6355 248.98 11.6293 248.961 11.623C248.936 11.6168 248.911 11.6106 248.88 11.6044C248.862 11.5982 248.837 11.592 248.812 11.5858C248.787 11.5795 248.755 11.5733 248.73 11.5733C248.706 11.5671 248.687 11.5671 248.662 11.5609C248.606 11.5547 248.556 11.5547 248.506 11.5547C247.688 11.5547 247.008 12.2321 247.008 13.04V46.71C247.008 47.5241 247.688 48.2015 248.506 48.2015C248.556 48.2015 248.612 48.2015 248.662 48.1953C248.668 48.1953 248.674 48.1891 248.687 48.1891C248.73 48.1829 248.774 48.1829 248.812 48.1705C248.824 48.1705 248.837 48.1642 248.849 48.1642C248.887 48.1518 248.924 48.1456 248.961 48.1332C248.968 48.1332 248.974 48.127 248.98 48.127C249.554 47.9467 249.979 47.4558 250.041 46.8654C250.047 46.8157 250.047 46.766 250.047 46.71V41.03L254.972 36.133L264.54 47.6298C264.603 47.7292 264.671 47.8162 264.759 47.8846C264.777 47.9032 264.79 47.9157 264.809 47.9281C264.834 47.9467 264.859 47.9654 264.883 47.9778C264.915 48.0027 264.946 48.0151 264.977 48.0337C264.99 48.04 265.008 48.0524 265.021 48.0586C265.064 48.0772 265.102 48.0897 265.146 48.1083C265.158 48.1145 265.171 48.1145 265.177 48.1207C265.227 48.1332 265.27 48.1456 265.32 48.158C265.327 48.158 265.339 48.1642 265.352 48.1642C265.402 48.1767 265.445 48.1829 265.501 48.1891C265.514 48.1891 265.526 48.1891 265.539 48.1953C265.601 48.1953 265.664 48.2015 265.732 48.2015C265.832 48.2015 265.926 48.1953 266.013 48.1829C266.019 48.1829 266.019 48.1829 266.019 48.1829C266.194 48.158 266.356 48.1021 266.506 48.0275C266.513 48.0275 266.513 48.0213 266.513 48.0213C266.581 47.984 266.65 47.9405 266.718 47.8908L266.737 47.8722C267.305 47.3066 267.393 46.536 266.981 45.896C266.943 45.84 266.906 45.7841 266.862 45.7282L257.144 33.9766L266.793 24.6921C267.049 24.4311 267.205 24.1142 267.243 23.7724C267.243 23.7662 267.243 23.7599 267.249 23.7537C267.249 23.7227 267.249 23.6854 267.249 23.6543C267.249 23.6357 267.255 23.617 267.255 23.6046C267.255 23.5922 267.255 23.5859 267.255 23.5797C267.255 23.5549 267.249 23.5362 267.249 23.5114C267.249 23.4927 267.243 23.4741 267.243 23.4554Z"
            fill="#29B5E8" />
    </g>
    <defs>
        <clipPath id="clip0_2643_2300">
            <rect width="294" height="70" fill="white" />
        </clipPath>
    </defs>
</svg>