<svg width="204" height="204" viewBox="0 0 204 204" fill="none" xmlns="http://www.w3.org/2000/svg">
    <g clip-path="url(#clip0_2764_2311)">
        <path
            d="M170.487 0H116.411C111.762 0 107.992 3.76934 107.992 8.41905V195.581C107.992 200.231 111.762 204 116.411 204H170.487C175.137 204 178.906 200.231 178.906 195.581V8.41905C178.906 3.76934 175.137 0 170.487 0Z"
            fill="url(#paint0_linear_2764_2311)" />
        <g filter="url(#filter0_d_2764_2311)">
            <path
                d="M137.133 195.579V203.998H128.714H74.6378C69.9881 203.998 66.2188 200.229 66.2188 195.579V59.255C66.2188 54.6053 69.9881 50.8359 74.6378 50.8359H128.714C133.364 50.8359 137.133 54.6053 137.133 59.255V195.579Z"
                fill="#080808" />
        </g>
        <path
            d="M137.133 195.579V203.998H128.714H74.6378C69.9881 203.998 66.2188 200.229 66.2188 195.579V59.255C66.2188 54.6053 69.9881 50.8359 74.6378 50.8359H128.714C133.364 50.8359 137.133 54.6053 137.133 59.255V195.579Z"
            fill="url(#paint1_linear_2764_2311)" />
        <path fill-rule="evenodd" clip-rule="evenodd"
            d="M96.008 195.581V204H87.589H33.5128C28.8631 204 25.0938 200.231 25.0938 195.581V110.419C25.0938 105.769 28.8631 102 33.5128 102H87.589C92.2387 102 96.008 105.769 96.008 110.419V195.581Z"
            fill="url(#paint2_linear_2764_2311)" />
    </g>
    <defs>
        <filter id="filter0_d_2764_2311" x="66.2188" y="40.8359" width="110.914" height="193.164"
            filterUnits="userSpaceOnUse" color-interpolation-filters="sRGB">
            <feFlood flood-opacity="0" result="BackgroundImageFix" />
            <feColorMatrix in="SourceAlpha" type="matrix" values="0 0 0 0 0 0 0 0 0 0 0 0 0 0 0 0 0 0 127 0"
                result="hardAlpha" />
            <feOffset dx="20" dy="10" />
            <feGaussianBlur stdDeviation="10" />
            <feColorMatrix type="matrix" values="0 0 0 0 0 0 0 0 0 0 0 0 0 0 0 0 0 0 0.0530212 0" />
            <feBlend mode="normal" in2="BackgroundImageFix" result="effect1_dropShadow_2764_2311" />
            <feBlend mode="normal" in="SourceGraphic" in2="effect1_dropShadow_2764_2311" result="shape" />
        </filter>
        <linearGradient id="paint0_linear_2764_2311" x1="143.449" y1="0" x2="143.449" y2="204"
            gradientUnits="userSpaceOnUse">
            <stop stop-color="#EBBB14" />
            <stop offset="1" stop-color="#B25400" />
        </linearGradient>
        <linearGradient id="paint1_linear_2764_2311" x1="101.676" y1="50.8359" x2="101.676" y2="203.998"
            gradientUnits="userSpaceOnUse">
            <stop stop-color="#F9E583" />
            <stop offset="1" stop-color="#DE9800" />
        </linearGradient>
        <linearGradient id="paint2_linear_2764_2311" x1="60.5509" y1="102" x2="60.5509" y2="204"
            gradientUnits="userSpaceOnUse">
            <stop stop-color="#F9E68B" />
            <stop offset="1" stop-color="#F3CD32" />
        </linearGradient>
        <clipPath id="clip0_2764_2311">
            <rect width="204" height="204" fill="white" />
        </clipPath>
    </defs>
</svg>