<svg width="122" height="123" viewBox="0 0 122 123" fill="none" xmlns="http://www.w3.org/2000/svg">
    <g clip-path="url(#clip0_2772_2292)">
        <path fill-rule="evenodd" clip-rule="evenodd"
            d="M33.237 57.68V76.41C33.2344 76.6373 33.1429 76.8545 32.9822 77.0152C32.8215 77.176 32.6043 77.2674 32.377 77.27H24.997C24.7697 77.2674 24.5525 77.176 24.3917 77.0152C24.231 76.8545 24.1396 76.6373 24.137 76.41V57.68H33.237ZM53.617 2.26139e-06C63.2866 -0.00280561 72.777 2.60925 81.0833 7.5596C89.3896 12.5099 96.2027 19.6143 100.801 28.1205C105.4 36.6267 107.612 46.2181 107.205 55.8791C106.798 65.5401 103.785 74.9112 98.487 83L121.697 108.29L105.697 122.92L83.317 98.26C76.3498 102.896 68.3942 105.837 60.0867 106.848C51.7791 107.858 43.3504 106.91 35.475 104.079C27.5996 101.249 20.4961 96.6137 14.7329 90.5457C8.96972 84.4776 4.70691 77.1447 2.28557 69.1339C-0.135765 61.1232 -0.648406 52.6568 0.788673 44.4124C2.22575 36.168 5.57265 28.3744 10.5615 21.6552C15.5504 14.9361 22.0428 9.47801 29.5192 5.7177C36.9955 1.95738 45.2483 -0.000745947 53.617 2.26139e-06ZM87.297 19.93C79.4934 12.1479 69.233 7.31208 58.2638 6.24636C47.2947 5.18064 36.2954 7.95094 27.1396 14.0853C17.9839 20.2197 11.2382 29.3387 8.05176 39.8888C4.86529 50.4389 5.43514 61.7674 9.66426 71.9444C13.8934 82.1215 21.5201 90.5175 31.2452 95.7021C40.9703 100.887 52.1921 102.539 62.9989 100.378C73.8058 98.217 83.529 92.376 90.5123 83.8501C97.4956 75.3241 101.307 64.6408 101.297 53.62C101.3 47.3587 100.065 41.1586 97.662 35.3767C95.2593 29.5947 91.7367 24.3451 87.297 19.93ZM24.117 51.56L43.687 34.44C47.997 38.68 52.217 43.81 56.497 48.05L72.127 32.35L67.127 27.35L81.947 27.22V42.22L77.087 37.3C73.617 40.81 65.427 48.55 61.997 52C57.617 56.38 55.527 56.46 51.137 52.08L43.737 43.83L34.997 51.56H24.117ZM77.917 47V76.41C77.9144 76.6373 77.8229 76.8545 77.6622 77.0152C77.5015 77.176 77.2843 77.2674 77.057 77.27H69.647C69.4206 77.2674 69.2045 77.1756 69.0453 77.0146C68.8862 76.8536 68.797 76.6364 68.797 76.41V54.12L73.527 49.55L76.997 46.17C77.2672 46.4587 77.5653 46.72 77.887 46.95L77.917 47ZM62.997 59.32V76.41C62.997 76.6364 62.9078 76.8536 62.7486 77.0146C62.5895 77.1756 62.3733 77.2674 62.147 77.27H54.757C54.5306 77.2674 54.3145 77.1756 54.1553 77.0146C53.9962 76.8536 53.907 76.6364 53.907 76.41V61.15C55.4651 61.5097 57.082 61.5326 58.6497 61.217C60.2173 60.9014 61.6995 60.2546 62.997 59.32ZM48.127 57.93V76.41C48.127 76.6381 48.0364 76.8568 47.8751 77.0181C47.7138 77.1794 47.4951 77.27 47.267 77.27H39.867C39.6397 77.2674 39.4225 77.176 39.2617 77.0152C39.101 76.8545 39.0096 76.6373 39.007 76.41V56.41C39.1604 56.2985 39.3074 56.1783 39.447 56.05L43.147 52.77L46.147 56.09L46.377 56.33C46.977 56.93 47.567 57.48 48.147 57.98L48.127 57.93Z"
            fill="url(#paint0_linear_2772_2292)" />
    </g>
    <defs>
        <linearGradient id="paint0_linear_2772_2292" x1="0.242335" y1="-8.903e-07" x2="121.447" y2="122.92"
            gradientUnits="userSpaceOnUse">
            <stop stop-color="#287BE9" />
            <stop offset="1" stop-color="#164583" />
        </linearGradient>
        <clipPath id="clip0_2772_2292">
            <rect width="121.7" height="122.88" fill="white" />
        </clipPath>
    </defs>
</svg>