<svg width="107" height="71" viewBox="0 0 107 71" fill="none" xmlns="http://www.w3.org/2000/svg">
<g clip-path="url(#clip0_2800_2286)">
<path d="M20 32.5V44.5169C20 69.2577 86.8241 69.2577 86.8241 44.5169V32.5H20Z" fill="#596066"/>
<path d="M106.68 24.0134L53.5038 47.8705L0.328125 24.0134L53.5038 0.15625L106.68 24.0134Z" fill="#3E4347"/>
<path d="M53.3281 22.9536C45.1745 26.6647 27.4493 34.6171 26.7403 34.9705C26.3858 35.1472 26.0312 35.5006 26.0312 36.0308V48.0477C26.0312 49.4615 27.8038 49.4615 27.8038 48.0477V36.9144C35.7801 33.38 52.9736 25.6044 53.6826 25.2509C54.7461 24.7208 54.3916 22.6001 53.3281 22.9536Z" fill="#FFCE31"/>
<path d="M26.9147 52.1153C28.7746 52.1153 30.2825 50.2165 30.2825 47.8741C30.2825 45.5317 28.7746 43.6328 26.9147 43.6328C25.0547 43.6328 23.5469 45.5317 23.5469 47.8741C23.5469 50.2165 25.0547 52.1153 26.9147 52.1153Z" fill="#FFCE31"/>
<path d="M26.9147 70.8485C28.6872 70.8485 30.2825 69.9649 30.2825 68.7279V47.875H23.5469V68.7279C23.5469 69.9649 25.1421 70.8485 26.9147 70.8485Z" fill="#FFCE31"/>
<path d="M29.2217 48.4062C29.0444 48.4062 29.0444 48.583 28.8672 48.583V70.4608C29.0444 70.3902 29.1862 70.3195 29.2217 70.2825V48.4062Z" fill="#594640"/>
<path d="M27.7998 48.9375H27.4453V70.8242L27.5517 70.8154L27.7998 70.7767V48.9375Z" fill="#594640"/>
<path d="M26.3779 48.9375H26.0234V70.7773C26.2359 70.8085 26.2716 70.8154 26.3779 70.8265C26.4843 70.8376 26.3779 48.9375 26.3779 48.9375Z" fill="#594640"/>
<path d="M24.9639 48.583C24.7866 48.583 24.7866 48.4062 24.6094 48.4062V70.2837C24.7866 70.3902 24.7866 70.3902 24.9639 70.4608V48.583Z" fill="#594640"/>
</g>
<defs>
<clipPath id="clip0_2800_2286">
<rect width="107" height="71" fill="white"/>
</clipPath>
</defs>
</svg>